<?xml version="1.0" encoding="utf-8"?>
<!-- Generator: Adobe Illustrator 22.1.0, SVG Export Plug-In . SVG Version: 6.00 Build 0)  -->
<svg version="1.1" id="Layer_1" xmlns="http://www.w3.org/2000/svg" xmlns:xlink="http://www.w3.org/1999/xlink" x="0px" y="0px"
	 viewBox="0 0 232 53" style="enable-background:new 0 0 232 53;" xml:space="preserve">
<style type="text/css">
	.st0{fill:#300A45;}
</style>
<title>Logotype</title>
<desc>Created with Sketch.</desc>
<g>
	<path class="st0" d="M110.6,0.3c-2.1,0-3.9,1.8-3.9,3.9c0,0.7,0.2,1.4,0.5,2h6.7c0.4-0.6,0.5-1.3,0.5-2
		C114.5,2.1,112.8,0.3,110.6,0.3z"/>
	<path class="st0" d="M91.5,11.9c-2.9,0-7,0.9-9.7,4.5c-1.9-2.8-5.1-4.5-9.2-4.5c-2.7,0-5.6,1-7.6,3.2v-2.8h-6.5v29.5h6.5V23.2
		c1.2-3.4,3.5-5,6.4-5c4.3,0,6.1,3.4,6.1,6.6v17.2h6.5V24.6c0-0.5,0-0.9-0.1-1.4c1.2-3.4,3.5-5.1,6.4-5.1c4.3,0,6.1,3.4,6.1,6.6
		v17.2h6.5V24.6C102.9,17,98.7,11.9,91.5,11.9z"/>
	<rect x="107.4" y="12.4" class="st0" width="6.5" height="29.5"/>
	<polygon class="st0" points="6.9,0 0,0 0,41.9 24.5,41.9 24.5,35.1 6.9,35.1 	"/>
	<path class="st0" d="M47.1,31.2c-1.2,3.4-3.7,5-7,5c-4.3,0-6.7-3.4-6.7-6.6V12.4h-6.5v17.3c0,7.6,4.7,12.7,12,12.7
		c3.1,0,6.2-0.9,8.3-3.2v2.7h6.5V12.4h-6.5V31.2z"/>
	<path class="st0" d="M133.4,11.9c-3.1,0-6.2,1-8.3,3.2v-2.8h-6.5v29.5h6.5V23.3c1.2-3.5,3.7-5.2,7-5.2c4.4,0,6.7,3.4,6.7,6.6v17.2
		h6.5V24.6C145.4,17,140.7,11.9,133.4,11.9z"/>
	<polygon class="st0" points="224.5,12.4 216.4,32.8 208.4,12.4 201.4,12.4 213.1,40.4 207.7,52.8 214.6,52.8 231.5,12.4 	"/>
	<path class="st0" d="M189.3,15.3v-2.9h-6.5v29.5h6.5V22.1c1.3-2.5,3.7-3.5,6.5-3.5c1.2,0,2.4,0.1,3.2,0.4v-6.8
		c-0.6-0.1-1.4-0.2-2.1-0.2C193.7,12,191.2,13.1,189.3,15.3z"/>
	<path class="st0" d="M171.7,14.6c-2.1-1.7-4.8-2.7-7.9-2.7c-8.7,0-15.2,6.6-15.2,15.2s6.4,15.2,15.2,15.2c3.1,0,5.8-0.9,7.9-2.6
		v2.1h6.5V12.4h-6.5V14.6z M171.7,32.2c-1.6,2.4-4.6,4-7.9,4c-5,0-8.6-3.9-8.6-9s3.5-9,8.6-9c3.2,0,6.3,1.6,7.9,4V32.2z"/>
</g>
</svg>
