<svg width="207" height="120" viewBox="0 0 207 120" fill="none" xmlns="http://www.w3.org/2000/svg">
<path d="M101.128 64.8528H93.6067L91.7186 70.5451C91.6907 70.7155 91.5762 70.802 91.3751 70.802H87.9703C87.7413 70.802 87.6854 70.6875 87.7413 70.4864L94.4921 51.2086C94.6346 50.893 94.7491 50.2645 94.777 49.3791C94.777 49.2367 94.8636 49.178 95.0061 49.178H99.6677C99.7822 49.178 99.8688 49.2339 99.9247 49.3484L107.446 70.5144C107.502 70.7155 107.446 70.7993 107.245 70.7993H103.413C103.271 70.7993 103.156 70.7127 103.098 70.5702L101.123 64.85L101.128 64.8528ZM94.4363 61.7078H100.271C100.184 61.3922 99.7264 60.0208 98.8968 57.588C98.0952 55.1273 97.5533 53.4403 97.2964 52.5269H97.2685C97.0394 53.6414 96.0954 56.7026 94.4363 61.7078V61.7078Z" fill="black"/>
<path d="M116.602 71.1176C114.086 71.1176 112.083 70.4305 110.538 69.087C109.022 67.7128 108.279 65.6823 108.279 63.0233C108.279 60.6212 109.08 58.6465 110.709 57.074C112.34 55.5015 114.541 54.6999 117.286 54.6999C118.029 54.6999 118.661 54.7558 119.116 54.901V47.6362C119.116 47.4938 119.203 47.4072 119.345 47.4072H123.035C123.177 47.4072 123.236 47.463 123.236 47.6083V67.171C123.236 67.5425 123.264 68.2854 123.322 69.3719C123.35 69.5144 123.266 69.6289 123.121 69.6568C121.091 70.6288 118.918 71.1148 116.599 71.1148L116.602 71.1176ZM119.091 67.7436V57.9036C118.605 57.6745 117.976 57.56 117.203 57.56C115.773 57.56 114.627 58.0181 113.77 58.9621C112.913 59.8783 112.482 61.1631 112.482 62.8529C112.482 64.6265 112.913 65.942 113.77 66.7995C114.627 67.657 115.714 68.0871 117.06 68.0871C117.946 68.115 118.605 68.0005 119.091 67.7436V67.7436Z" fill="black"/>
<path d="M133.677 54.7C136.137 54.7 138.081 55.4709 139.483 57.0155C140.885 58.56 141.601 60.504 141.601 62.8502C141.601 65.3947 140.858 67.4253 139.4 68.914C137.942 70.372 135.995 71.1149 133.623 71.1149C130.992 71.1149 129.018 70.3133 127.646 68.7408C126.272 67.1404 125.616 65.1936 125.616 62.9061C125.616 60.504 126.359 58.5293 127.817 56.9847C129.303 55.4681 131.249 54.6972 133.679 54.6972L133.677 54.7ZM133.506 57.5322C132.392 57.5322 131.476 58.0182 130.789 58.9622C130.101 59.9063 129.758 61.1939 129.758 62.853C129.758 64.5121 130.101 65.8276 130.789 66.7996C131.476 67.7716 132.448 68.2576 133.677 68.2576C134.735 68.2576 135.621 67.7995 136.336 66.9141C137.051 65.998 137.394 64.6545 137.394 62.8809C137.394 61.2498 137.079 59.965 136.422 58.9902C135.794 58.0182 134.822 57.5322 133.506 57.5322V57.5322Z" fill="black"/>
<path d="M144.173 47.4072H147.804C147.974 47.4072 148.061 47.4938 148.061 47.6641V55.3004C149.119 54.901 150.234 54.7278 151.435 54.7278C153.694 54.7278 155.496 55.4428 156.839 56.9008C158.214 58.3309 158.87 60.1911 158.87 62.4507C158.87 65.1683 158.04 67.2855 156.353 68.858C154.666 70.4026 152.664 71.1735 150.317 71.1735C147.971 71.1735 145.826 70.7741 144.111 69.9445C143.969 69.8886 143.91 69.7741 143.91 69.6289V47.6362C143.938 47.4658 143.997 47.4072 144.167 47.4072H144.173ZM154.669 62.8222C154.669 61.1631 154.298 59.9062 153.524 59.0459C152.781 58.1884 151.778 57.7583 150.493 57.7583C149.549 57.7583 148.72 57.9287 148.033 58.2722V67.738C148.661 68.0815 149.491 68.2519 150.521 68.2519C151.667 68.2519 152.639 67.7938 153.437 66.8498C154.267 65.9057 154.666 64.5622 154.666 62.8166L154.669 62.8222Z" fill="black"/>
<path d="M171.288 63.6518H164.766C164.794 64.9673 165.196 66.0259 165.995 66.8275C166.825 67.5984 167.998 68.0006 169.57 68.0006C171.143 68.0006 172.458 67.7437 173.604 67.199C173.746 67.1432 173.805 67.199 173.805 67.3694V69.7994C173.805 70.0005 173.749 70.115 173.604 70.1988C172.229 70.8272 170.601 71.1428 168.713 71.1428C167.255 71.1428 165.995 70.9138 164.909 70.4557C163.822 69.9977 162.993 69.3972 162.392 68.5956C161.792 67.8247 161.334 66.9644 161.018 66.0511C160.733 65.107 160.588 64.135 160.588 63.0764C160.588 60.7303 161.275 58.7304 162.618 57.1272C163.993 55.496 165.878 54.6972 168.252 54.6972C170.626 54.6972 172.199 55.3564 173.313 56.6998C174.428 58.0433 175 59.6158 175 61.4201C175 62.0793 174.944 62.7077 174.858 63.2803C174.83 63.4228 174.743 63.5094 174.601 63.5373C174 63.6239 172.886 63.6518 171.283 63.6518H171.288ZM164.738 61.1352H169.344C170.375 61.1352 170.945 61.1073 171.059 61.0794C171.087 60.9928 171.087 60.8504 171.087 60.6213C171.087 59.7918 170.858 59.0767 170.372 58.4204C169.914 57.7612 169.171 57.4484 168.112 57.4484C167.054 57.4484 166.283 57.7919 165.71 58.507C165.166 59.1941 164.853 60.0795 164.738 61.138V61.1352Z" fill="black"/>
<path d="M59.0005 40.9999H74.8149V78.8964L59.0005 40.9999Z" fill="black"/>
<path d="M47.8451 40.9999H32V78.8964L47.8451 40.9999Z" fill="black"/>
<path d="M53.4227 54.9568L63.489 78.8963H56.8833L53.8808 71.26H46.5015L53.4227 54.9568Z" fill="black"/>
</svg>
