<svg width="207" height="120" viewBox="0 0 207 120" fill="none" xmlns="http://www.w3.org/2000/svg">
<path d="M64.9911 57.5936C66.1903 57.4555 69.6728 55.758 71.4145 54.8799C71.5081 54.8348 71.5914 54.9663 71.5013 55.032C70.2117 55.9863 67.8311 57.7944 66.1835 59.3604C65.5468 59.9658 65.5749 60.9786 66.2423 61.5525C67.4831 62.6242 69.2976 63.9143 70.347 64.6403C70.4379 64.702 70.361 64.837 70.2601 64.7956C69.075 64.2667 66.969 63.3611 65.2794 62.7732C64.4314 62.4757 63.5137 62.9803 63.3196 63.8558L61.7204 71.0816C61.696 71.1851 61.543 71.1748 61.543 71.0676C61.5217 69.7501 61.4597 67.0296 61.2756 65.0513C61.1783 63.9935 60.0276 63.3746 59.0859 63.876C56.9204 65.0171 54.5391 66.6213 53.1282 67.6066C53.038 67.6723 52.9336 67.5445 53.0174 67.4684C54.2266 66.3481 55.8362 64.7754 56.9554 63.4371C57.2091 63.1329 57.7684 62.6589 57.8865 62.3064C56.9969 61.8014 56.3991 61.1685 56.274 61.0339C55.9267 60.6468 55.579 60.3011 55.2384 59.9829C39.6807 57.9294 36 68.682 36 68.682C43.789 71.7487 48.0648 70.6184 48.4394 70.5558C48.4394 70.5558 44.842 76.1608 45.4956 86C59.1035 83.739 61.6547 74.3279 61.6547 74.3279C64.8005 81.5024 74.5878 80.6449 74.5878 80.6449C74.5878 80.6449 77.2716 72.1187 73.4656 66.687C83.4538 68.424 89.6939 56.8298 89.6939 56.8298C89.6939 56.8298 83.7135 52.311 75.8109 52.7395L75.8028 52.7508C76.9802 51.0997 81.2306 44.1255 77.3861 34C61.4212 38.7416 61.9176 50.3926 62.1538 52.55C59.4569 48.0555 59.941 43.4598 56.8649 41.2434C54.6508 39.5356 50.7474 40.3548 47.6297 43.1276C44.4355 45.9629 43.1948 49.8457 44.8143 52.2142C44.8457 52.2385 44.8734 52.2655 44.9012 52.2934C44.9083 52.3002 44.9153 52.3074 44.9221 52.3178L44.9256 52.3209C44.9986 52.4046 45.0891 52.4874 45.1898 52.5667C45.5093 52.8124 45.9477 53.0127 46.4098 53.1406C47.0252 53.3067 47.6889 53.3998 48.363 53.3967C49.7082 53.3931 51.0776 53.0821 52.3255 52.5149C53.5803 51.9477 54.703 51.0975 55.6553 50.0806C56.5975 49.0539 57.3478 47.8372 57.9286 46.5337L57.9318 46.5305C57.9843 46.4193 58.1024 46.3568 58.2241 46.3743C58.2481 46.3779 58.273 46.3847 58.2969 46.395C58.4255 46.4504 58.4884 46.5958 58.4467 46.7272C57.9911 48.1343 57.3169 49.4964 56.3679 50.6825C55.4222 51.8649 54.2266 52.8746 52.8574 53.5794C51.4914 54.292 49.9725 54.7345 48.405 54.8245C48.2865 54.8281 48.1653 54.8348 48.0468 54.8348C50.9632 56.3252 53.9588 56.6119 57.2888 60.284C58.245 61.3346 60.9967 63.3845 63.7054 61.0443C65.396 59.5836 64.9914 57.5936 64.9914 57.5936" fill="black"/>
<path d="M117.961 53.7316C117.961 54.0624 117.786 54.3361 117.437 54.5539C117.087 54.7718 116.632 54.8798 116.072 54.8798C115.075 54.8798 114.376 54.5238 113.974 53.8103C113.571 53.0965 113.37 52.1399 113.37 50.939C113.37 49.6863 113.588 48.7208 114.026 48.0425C114.463 47.3637 115.136 47.0247 116.046 47.0247C116.501 47.0247 116.899 47.1157 117.24 47.2984C117.581 47.4812 117.821 47.6423 117.961 47.7814V53.7316ZM121.53 54.0188V44.7017L121.136 44.6499C121.013 44.6328 120.878 44.6197 120.729 44.6103C120.58 44.6017 120.428 44.5972 120.27 44.5972C119.763 44.5972 119.317 44.7017 118.932 44.9105C118.547 45.1194 118.294 45.4237 118.171 45.8243C118.119 45.7198 118.014 45.5852 117.857 45.4196C117.699 45.2544 117.485 45.0933 117.214 44.9371C116.942 44.78 116.619 44.6409 116.243 44.5189C115.867 44.3978 115.442 44.3362 114.971 44.3362C114.341 44.3362 113.715 44.4451 113.095 44.6629C112.473 44.8808 111.909 45.2499 111.402 45.7716C110.895 46.2942 110.484 46.9851 110.169 47.8467C109.854 48.7082 109.697 49.7826 109.697 51.07C109.697 52.2354 109.832 53.2189 110.104 54.0188C110.375 54.8191 110.747 55.4672 111.219 55.9633C111.691 56.4593 112.237 56.8158 112.859 57.0332C113.479 57.2506 114.139 57.3596 114.839 57.3596C115.591 57.3596 116.238 57.2376 116.781 56.9941C117.323 56.7506 117.769 56.4373 118.119 56.0547C118.206 56.5075 118.451 56.8374 118.854 57.0463C119.255 57.2547 119.772 57.3596 120.401 57.3596C120.978 57.3596 121.52 57.2461 122.028 57.0202C121.888 56.724 121.77 56.3247 121.674 55.8197C121.577 55.3151 121.53 54.7146 121.53 54.0188ZM170.319 78.9844C170.232 79.0192 170.065 79.0447 169.821 79.0623C169.576 79.0795 169.305 79.0885 169.008 79.0885C168.71 79.0885 168.426 79.0582 168.155 78.9976C167.884 78.9359 167.644 78.8233 167.434 78.658C167.225 78.4929 167.058 78.2714 166.936 77.9929C166.813 77.7147 166.752 77.3581 166.752 76.9233V60.4358C166.787 60.4186 166.927 60.397 167.172 60.3709C167.416 60.3444 167.679 60.3318 167.959 60.3318C168.238 60.3318 168.518 60.3579 168.798 60.4101C169.078 60.4623 169.331 60.5622 169.558 60.7099C169.785 60.858 169.969 61.0664 170.109 61.336C170.249 61.6061 170.319 61.9581 170.319 62.3924V78.9844ZM164.849 78.9844C164.779 79.0192 164.621 79.0447 164.377 79.0623C164.132 79.0795 163.869 79.0885 163.59 79.0885C162.908 79.0885 162.353 78.9454 161.924 78.658C161.496 78.3709 161.282 77.793 161.282 76.9233V66.4886C161.317 66.4715 161.456 66.4489 161.702 66.4228C161.947 66.3972 162.209 66.3837 162.488 66.3837C162.768 66.3837 163.048 66.4098 163.328 66.462C163.607 66.5142 163.861 66.6146 164.088 66.7622C164.315 66.9103 164.499 67.1187 164.639 67.3884C164.779 67.658 164.849 68.0104 164.849 68.4448V78.9844ZM164.875 62.3141C164.875 62.8709 164.687 63.3232 164.311 63.6707C163.935 64.0187 163.486 64.1924 162.961 64.1924C162.419 64.1924 161.964 64.0187 161.597 63.6707C161.23 63.3232 161.046 62.8709 161.046 62.3141C161.046 61.7577 161.23 61.3013 161.597 60.9448C161.964 60.5883 162.419 60.4101 162.961 60.4101C163.486 60.4101 163.935 60.5883 164.311 60.9448C164.687 61.3013 164.875 61.7577 164.875 62.3141ZM156.083 76.5978C156.468 76.5978 156.817 76.5546 157.132 76.4672C157.447 76.3803 157.726 76.2715 157.971 76.1409C158.216 76.0104 158.426 75.8718 158.601 75.7237C158.775 75.576 158.907 75.45 158.994 75.3456C159.099 75.45 159.204 75.585 159.309 75.7498C159.414 75.9154 159.51 76.0892 159.598 76.2715C159.684 76.4542 159.755 76.633 159.808 76.8067C159.86 76.9804 159.886 77.1371 159.886 77.2762C159.886 77.4499 159.851 77.6196 159.781 77.7843C159.711 77.9505 159.563 78.1196 159.335 78.2933C159.003 78.5369 158.531 78.7628 157.919 78.9717C157.307 79.1803 156.529 79.2847 155.585 79.2847C154.956 79.2847 154.274 79.1973 153.539 79.0236C152.805 78.8499 152.123 78.5195 151.494 78.0325C150.865 77.5457 150.34 76.8715 149.92 76.0104C149.5 75.1498 149.291 74.024 149.291 72.6322C149.291 71.3111 149.509 70.2322 149.947 69.3977C150.383 68.5627 150.926 67.9019 151.572 67.4149C152.219 66.9283 152.905 66.5934 153.631 66.4106C154.357 66.2279 155.008 66.1365 155.585 66.1365C156.32 66.1365 156.988 66.2148 157.591 66.3715C158.194 66.5281 158.697 66.7365 159.099 66.9976C159.431 67.206 159.663 67.4063 159.794 67.5976C159.925 67.7889 159.991 68.0149 159.991 68.2755C159.991 68.5195 159.912 68.8192 159.755 69.1757C159.598 69.5322 159.396 69.8586 159.151 70.1539C158.872 69.8586 158.461 69.5629 157.919 69.2671C157.377 68.9714 156.773 68.8237 156.11 68.8237C154.956 68.8237 154.134 69.1757 153.644 69.8802C153.154 70.5842 152.91 71.4844 152.91 72.58C152.91 73.1368 152.962 73.6585 153.067 74.1451C153.172 74.6326 153.351 75.0589 153.605 75.4235C153.858 75.789 154.186 76.0761 154.588 76.2845C154.991 76.4929 155.489 76.5978 156.083 76.5978ZM140.28 78.8412H136.687V66.502L137.001 66.4498C137.107 66.4327 137.228 66.4192 137.369 66.4106C137.508 66.4021 137.674 66.3976 137.867 66.3976C138.427 66.3976 138.912 66.498 139.322 66.6978C139.732 66.8977 139.991 67.2497 140.096 67.7543C140.393 67.3541 140.847 66.9845 141.46 66.6452C142.072 66.3062 142.902 66.1365 143.951 66.1365C145.192 66.1365 146.11 66.3805 146.705 66.8671C147.299 67.3541 147.684 67.9978 147.859 68.7976C147.946 69.1978 148.003 69.6326 148.029 70.1021C148.055 70.5716 148.069 71.0321 148.069 71.4844V78.8426H144.501V71.6424C144.501 71.2598 144.489 70.9033 144.462 70.5729C144.436 70.2425 144.366 69.9599 144.253 69.7249C144.139 69.4904 143.955 69.3076 143.702 69.1771C143.448 69.0466 143.094 68.9813 142.64 68.9813C141.993 68.9813 141.438 69.1163 140.974 69.3855C140.511 69.6556 140.28 69.9905 140.28 70.3902V78.8412ZM134.754 78.8412H132.368C131.931 78.8412 131.656 78.7238 131.542 78.4892C131.428 78.2543 131.372 77.9113 131.372 77.4585C131.074 77.8585 130.62 78.2281 130.008 78.5671C129.396 78.9065 128.566 79.0762 127.516 79.0762C126.274 79.0762 125.357 78.8326 124.763 78.3456C124.168 77.8585 123.783 77.2153 123.608 76.4152C123.521 76.0154 123.464 75.5801 123.438 75.1106C123.412 74.6411 123.399 74.1807 123.399 73.7283V66.502C123.434 66.4849 123.573 66.4629 123.818 66.4367C124.063 66.4106 124.325 66.3976 124.606 66.3976C124.885 66.3976 125.164 66.4237 125.445 66.4755C125.724 66.5281 125.978 66.628 126.205 66.7757C126.432 66.9238 126.616 67.1322 126.756 67.4018C126.895 67.6719 126.965 68.0239 126.965 68.4582V73.5671C126.965 73.9673 126.979 74.3283 127.005 74.6492C127.031 74.9715 127.101 75.2497 127.215 75.4847C127.328 75.7192 127.512 75.9019 127.765 76.0325C128.019 76.163 128.373 76.2278 128.828 76.2278C129.474 76.2278 130.029 76.0932 130.493 75.8236C130.956 75.554 131.188 75.2195 131.188 74.8189V66.4975C131.223 66.4804 131.362 66.4584 131.607 66.4322C131.852 66.4061 132.115 66.3931 132.394 66.3931C132.674 66.3931 132.954 66.4232 133.234 66.484C133.513 66.5452 133.767 66.6582 133.994 66.8234C134.221 66.989 134.405 67.2146 134.544 67.5017C134.685 67.7885 134.754 68.1495 134.754 68.5843V78.8412ZM118.462 72.6322C118.462 72.1628 118.427 71.6978 118.357 71.2369C118.287 70.7759 118.156 70.3717 117.964 70.0238C117.771 69.6758 117.509 69.3936 117.177 69.1757C116.845 68.9588 116.425 68.8494 115.918 68.8494C115.411 68.8494 114.988 68.9628 114.646 69.1888C114.306 69.4152 114.034 69.7064 113.833 70.0629C113.632 70.4194 113.488 70.8241 113.401 71.2756C113.313 71.7279 113.269 72.1889 113.269 72.6588C113.269 73.1283 113.309 73.5978 113.388 74.0672C113.466 74.5372 113.602 74.9585 113.794 75.3321C113.986 75.7066 114.253 76.0068 114.594 76.2323C114.935 76.4588 115.359 76.5716 115.866 76.5716C116.39 76.5716 116.823 76.4588 117.164 76.2323C117.505 76.0068 117.771 75.7066 117.964 75.3321C118.156 74.9585 118.287 74.5372 118.357 74.0672C118.427 73.5978 118.462 73.1193 118.462 72.6322ZM122.055 72.6066C122.055 73.4762 121.946 74.3112 121.727 75.1106C121.509 75.9105 121.15 76.6154 120.652 77.2234C120.154 77.8331 119.511 78.3195 118.724 78.6846C117.938 79.0496 116.984 79.2325 115.866 79.2325C114.747 79.2325 113.798 79.0542 113.021 78.6976C112.242 78.3416 111.608 77.8626 111.119 77.2627C110.629 76.6627 110.271 75.9672 110.044 75.1759C109.816 74.385 109.703 73.5545 109.703 72.6845C109.703 71.7977 109.834 70.9587 110.096 70.1674C110.358 69.376 110.748 68.6802 111.263 68.0801C111.779 67.4801 112.43 67.0066 113.217 66.6582C114.004 66.3107 114.922 66.1365 115.971 66.1365C117.072 66.1365 118.012 66.3107 118.79 66.6582C119.568 67.0066 120.197 67.4761 120.678 68.0671C121.159 68.6586 121.509 69.3454 121.727 70.1282C121.946 70.9105 122.055 71.7369 122.055 72.6066ZM108.552 77.8528C108.447 77.9567 108.277 78.0873 108.041 78.2438C107.805 78.4005 107.486 78.5568 107.084 78.7134C106.681 78.8699 106.196 79.0046 105.628 79.118C105.06 79.2305 104.409 79.2874 103.674 79.2874C102.258 79.2874 101.034 79.0612 100.003 78.6093C98.9711 78.157 98.1185 77.5264 97.4461 76.7174C96.7728 75.9091 96.2786 74.953 95.9642 73.848C95.6492 72.7438 95.4922 71.5307 95.4922 70.2092C95.4922 68.8872 95.6628 67.6655 96.0035 66.5434C96.3443 65.4217 96.8556 64.4526 97.5375 63.6351C98.2195 62.8177 99.0715 62.1785 100.095 61.7172C101.117 61.2567 102.319 61.0262 103.701 61.0262C104.383 61.0262 104.998 61.0874 105.55 61.2085C106.1 61.3305 106.581 61.4741 106.992 61.6393C107.403 61.8049 107.743 61.9782 108.015 62.161C108.285 62.3433 108.491 62.4959 108.631 62.6174C108.788 62.7569 108.924 62.9221 109.038 63.113C109.151 63.3047 109.208 63.5136 109.208 63.7391C109.208 64.0875 109.077 64.435 108.814 64.7825C108.552 65.1309 108.264 65.4523 107.949 65.748C107.739 65.5392 107.504 65.3267 107.241 65.1088C106.979 64.8914 106.686 64.7006 106.363 64.5349C106.039 64.3697 105.672 64.2307 105.261 64.1172C104.85 64.0047 104.391 63.948 103.884 63.948C102.992 63.948 102.245 64.1267 101.642 64.4827C101.039 64.8392 100.553 65.3046 100.187 65.8785C99.8195 66.4525 99.5571 67.1087 99.3996 67.8478C99.2421 68.5874 99.1634 69.3395 99.1634 70.1048C99.1634 70.9222 99.2421 71.7049 99.3996 72.4526C99.5571 73.2003 99.8281 73.8615 100.213 74.4349C100.597 75.0093 101.1 75.4698 101.721 75.8173C102.341 76.1657 103.115 76.3394 104.041 76.3394C104.531 76.3394 104.981 76.2786 105.392 76.1567C105.803 76.0356 106.166 75.8875 106.48 75.7133C106.795 75.5395 107.07 75.3572 107.307 75.1655C107.543 74.9742 107.739 74.809 107.897 74.6699C108.002 74.7914 108.124 74.9395 108.264 75.1133C108.404 75.2875 108.535 75.4698 108.657 75.6611C108.779 75.8528 108.884 76.0437 108.972 76.235C109.059 76.4268 109.103 76.6005 109.103 76.7566C109.103 76.9831 109.059 77.1739 108.972 77.3311C108.884 77.4872 108.744 77.6615 108.552 77.8528ZM163.147 45.9152C163.252 45.7585 163.397 45.5848 163.58 45.393C163.764 45.2022 163.978 45.0275 164.223 44.8714C164.467 44.7147 164.743 44.5842 165.049 44.4797C165.354 44.3758 165.682 44.3236 166.032 44.3236C166.242 44.3236 166.465 44.3411 166.701 44.3758C166.937 44.4109 167.156 44.4761 167.357 44.5711C167.557 44.667 167.72 44.7975 167.842 44.9627C167.964 45.1279 168.026 45.3323 168.026 45.5758C168.026 45.9408 167.93 46.3761 167.737 46.8798C167.545 47.3848 167.352 47.8107 167.16 48.1582C166.863 47.9151 166.566 47.7278 166.268 47.5973C165.971 47.4672 165.621 47.4019 165.22 47.4019C164.677 47.4019 164.223 47.5581 163.856 47.8714C163.489 48.1843 163.305 48.5583 163.305 48.9931V57.0278H159.738V44.6886L160.053 44.6364C160.158 44.6193 160.28 44.6062 160.42 44.5977C160.56 44.5887 160.726 44.5842 160.919 44.5842C161.478 44.5842 161.963 44.6931 162.374 44.9105C162.785 45.1279 163.043 45.4628 163.147 45.9152ZM155.316 49.5148C155.316 48.6803 155.154 48.0015 154.831 47.4803C154.508 46.9586 153.926 46.6971 153.087 46.6971C152.353 46.6971 151.776 46.9451 151.357 47.4407C150.937 47.9367 150.727 48.6281 150.727 49.5148H155.316ZM154.136 54.8105C154.573 54.8105 154.958 54.7633 155.29 54.6669C155.622 54.572 155.92 54.4545 156.182 54.3149C156.444 54.1758 156.671 54.0237 156.864 53.8585C157.056 53.6933 157.231 53.5412 157.388 53.4021C157.598 53.6627 157.817 53.9976 158.044 54.4063C158.271 54.815 158.385 55.1499 158.385 55.4105C158.385 55.7936 158.166 56.1411 157.729 56.4539C157.362 56.7325 156.842 56.972 156.169 57.1714C155.496 57.3713 154.704 57.4716 153.796 57.4716C152.973 57.4716 152.165 57.3672 151.37 57.1584C150.574 56.95 149.865 56.5845 149.246 56.0628C148.625 55.5411 148.122 54.8411 147.737 53.9629C147.352 53.0847 147.16 51.9761 147.16 50.6365C147.16 49.5409 147.331 48.5979 147.672 47.8062C148.012 47.0148 148.467 46.3581 149.036 45.8364C149.603 45.3147 150.246 44.9326 150.963 44.6886C151.68 44.4455 152.414 44.3236 153.166 44.3236C154.145 44.3236 154.976 44.4761 155.658 44.78C156.339 45.0847 156.894 45.4934 157.322 46.0061C157.751 46.5193 158.061 47.1062 158.254 47.767C158.446 48.4282 158.542 49.1237 158.542 49.8542V50.2193C158.542 50.3584 158.538 50.5064 158.529 50.6626C158.52 50.8193 158.512 50.9719 158.503 51.1191C158.494 51.2672 158.481 51.3846 158.464 51.4715H150.753C150.823 52.428 151.12 53.2238 151.645 53.8585C152.17 54.4932 153 54.8105 154.136 54.8105ZM142.769 54.7844C143.153 54.7844 143.504 54.7412 143.819 54.6539C144.133 54.567 144.412 54.4585 144.658 54.328C144.902 54.1975 145.112 54.0588 145.287 53.9107C145.461 53.7631 145.592 53.6366 145.68 53.5322C145.785 53.6366 145.89 53.7716 145.995 53.9368C146.1 54.102 146.196 54.2758 146.283 54.4585C146.371 54.6408 146.44 54.8195 146.493 54.9933C146.546 55.1675 146.572 55.3237 146.572 55.4627C146.572 55.6369 146.536 55.8062 146.467 55.9714C146.397 56.137 146.249 56.3067 146.021 56.4805C145.689 56.724 145.217 56.95 144.605 57.1584C143.993 57.3672 143.215 57.4716 142.271 57.4716C141.642 57.4716 140.96 57.3843 140.225 57.2106C139.491 57.0364 138.809 56.7064 138.18 56.2194C137.551 55.7328 137.026 55.0585 136.606 54.1975C136.187 53.3364 135.977 52.2111 135.977 50.8193C135.977 49.4977 136.195 48.4192 136.633 47.5842C137.069 46.7497 137.612 46.0889 138.258 45.6015C138.905 45.1153 139.592 44.78 140.317 44.5977C141.043 44.4149 141.694 44.3236 142.271 44.3236C143.005 44.3236 143.674 44.4014 144.277 44.5585C144.88 44.7147 145.383 44.9236 145.785 45.1842C146.117 45.393 146.349 45.5929 146.48 45.7842C146.611 45.976 146.677 46.2019 146.677 46.4625C146.677 46.7065 146.598 47.0063 146.44 47.3628C146.283 47.7193 146.082 48.0452 145.837 48.3409C145.558 48.0452 145.147 47.7499 144.605 47.4542C144.063 47.1584 143.46 47.0108 142.796 47.0108C141.642 47.0108 140.82 47.3628 140.33 48.0668C139.841 48.7712 139.596 49.6715 139.596 50.7671C139.596 51.3239 139.648 51.8456 139.753 52.3321C139.858 52.8192 140.037 53.2454 140.291 53.6105C140.544 53.976 140.872 54.2627 141.274 54.4716C141.676 54.6804 142.175 54.7844 142.769 54.7844ZM126.992 57.0278H123.399V44.6886L123.714 44.6364C123.818 44.6193 123.941 44.6062 124.081 44.5977C124.221 44.5887 124.386 44.5842 124.579 44.5842C125.138 44.5842 125.624 44.6846 126.035 44.8844C126.445 45.0847 126.703 45.4367 126.808 45.9408C127.105 45.5411 127.56 45.1716 128.172 44.8322C128.784 44.4928 129.614 44.3236 130.663 44.3236C131.904 44.3236 132.823 44.5671 133.417 45.0541C134.011 45.5411 134.396 46.1844 134.571 46.9842C134.658 47.3848 134.715 47.8192 134.741 48.2887C134.768 48.7582 134.781 49.2195 134.781 49.6715V57.0265H131.214V49.8268C131.214 49.4442 131.201 49.0877 131.175 48.7568C131.149 48.4269 131.078 48.1437 130.965 47.9088C130.851 47.6743 130.667 47.492 130.414 47.3614C130.161 47.2309 129.807 47.1656 129.352 47.1656C128.705 47.1656 128.15 47.3007 127.687 47.5698C127.223 47.8395 126.992 48.1744 126.992 48.5741V57.0278ZM108.553 56.0367C108.448 56.1411 108.277 56.2716 108.042 56.4278C107.805 56.5845 107.486 56.7411 107.084 56.8977C106.682 57.0539 106.197 57.1885 105.629 57.302C105.06 57.4149 104.409 57.4716 103.675 57.4716C102.259 57.4716 101.035 57.2452 100.003 56.7933C98.9715 56.3409 98.119 55.7108 97.4466 54.9019C96.7732 54.093 96.2791 53.137 95.9646 52.0324C95.6497 50.9282 95.4926 49.7151 95.4926 48.3931C95.4926 47.0716 95.6632 45.8495 96.004 44.7278C96.3447 43.6061 96.856 42.6369 97.538 41.8191C98.2199 41.0016 99.072 40.3625 100.095 39.9015C101.118 39.4411 102.32 39.2102 103.701 39.2102C104.383 39.2102 104.999 39.2714 105.55 39.3929C106.101 39.5144 106.581 39.6585 106.992 39.8237C107.403 39.9889 107.744 40.1626 108.015 40.3449C108.286 40.5277 108.491 40.6803 108.631 40.8018C108.789 40.9413 108.924 41.1061 109.038 41.2974C109.152 41.4887 109.209 41.6975 109.209 41.9235C109.209 42.2714 109.077 42.6194 108.815 42.9669C108.553 43.3148 108.264 43.6367 107.949 43.9319C107.74 43.7235 107.504 43.5106 107.242 43.2932C106.979 43.0758 106.686 42.8845 106.363 42.7193C106.039 42.5541 105.672 42.415 105.262 42.3016C104.85 42.1886 104.392 42.1324 103.885 42.1324C102.993 42.1324 102.246 42.3106 101.642 42.6671C101.039 43.0236 100.554 43.4886 100.187 44.0625C99.82 44.6364 99.5575 45.2931 99.4 46.0322C99.2426 46.7718 99.1638 47.5235 99.1638 48.2887C99.1638 49.1066 99.2426 49.8889 99.4 50.6365C99.5575 51.3846 99.8286 52.0454 100.213 52.6193C100.597 53.1932 101.1 53.6542 101.721 54.0021C102.341 54.35 103.115 54.5238 104.042 54.5238C104.531 54.5238 104.982 54.4626 105.393 54.341C105.803 54.2195 106.166 54.0714 106.481 53.8977C106.796 53.7239 107.071 53.5412 107.307 53.3494C107.543 53.1586 107.74 52.9934 107.897 52.8543C108.002 52.9758 108.124 53.1239 108.264 53.2977C108.404 53.4714 108.535 53.6542 108.657 53.8455C108.78 54.0372 108.885 54.2281 108.972 54.4194C109.06 54.6111 109.104 54.7844 109.104 54.9411C109.104 55.1675 109.06 55.3583 108.972 55.515C108.885 55.6716 108.745 55.8454 108.553 56.0367Z" fill="black"/>
</svg>
