<svg width="207" height="120" viewBox="0 0 207 120" fill="none" xmlns="http://www.w3.org/2000/svg">
<path fill-rule="evenodd" clip-rule="evenodd" d="M65.48 70.8871H165.592V70.3537H65.48V70.8871Z" fill="black"/>
<path fill-rule="evenodd" clip-rule="evenodd" d="M72.6873 85.7109C72.8503 85.6033 72.9917 85.4871 73.1053 85.3579C73.2224 85.2286 73.3178 85.0959 73.3915 84.9563C73.4644 84.8193 73.5286 84.6857 73.5789 84.5574L75.2987 80.0578C75.3048 80.0396 75.2866 80.0101 75.2449 79.9711C75.2024 79.9321 75.1487 79.8904 75.081 79.8453C75.0134 79.8011 74.9344 79.7621 74.8442 79.7309C74.7549 79.697 74.6613 79.6823 74.565 79.6823C74.4167 79.6823 74.2753 79.7274 74.14 79.8219C74.0038 79.9156 73.8954 80.0969 73.8122 80.3666L72.9041 83.0509L71.8798 80.3579C71.7914 80.0865 71.6812 79.9069 71.552 79.8159C71.4245 79.7265 71.2788 79.6823 71.1184 79.6823C71.0151 79.6823 70.918 79.6996 70.8243 79.7352C70.7315 79.7708 70.6491 79.8089 70.5832 79.8506C70.5156 79.8931 70.4618 79.9355 70.4245 79.9815C70.3846 80.0257 70.369 80.0587 70.3751 80.0778L71.9978 83.8418C72.042 83.939 72.0993 84.0101 72.1704 84.0543C72.2406 84.1003 72.3308 84.1289 72.441 84.1411C72.447 84.1679 72.441 84.2052 72.4202 84.2573C72.4089 84.2963 72.382 84.3466 72.3438 84.4073C72.3057 84.468 72.251 84.5409 72.1808 84.625C72.0516 84.7586 71.8954 84.8349 71.7116 84.8505C71.5286 84.8678 71.3465 84.8592 71.1669 84.8271C70.9605 84.7881 70.7454 84.7213 70.5199 84.625C70.3586 84.8045 70.2693 84.9685 70.2485 85.1168C70.2302 85.2642 70.2563 85.3934 70.3317 85.5018C70.4063 85.612 70.5173 85.7039 70.6648 85.7785C70.8131 85.8505 70.9709 85.906 71.1426 85.9416C71.3135 85.9771 71.4844 85.9962 71.6587 85.9997C71.8321 86.0023 71.9813 85.9884 72.1027 85.9572C72.3282 85.8991 72.5225 85.8158 72.6873 85.7109ZM66.4514 82.3648C66.4514 82.5322 66.4818 82.6849 66.5434 82.8245C66.6032 82.9615 66.6882 83.0812 66.7949 83.181C66.9016 83.2798 67.0256 83.3588 67.167 83.4125C67.3092 83.4663 67.4644 83.4941 67.6327 83.4941C68.0004 83.4941 68.2962 83.3674 68.5173 83.1133C68.7402 82.8592 68.853 82.5262 68.853 82.1142C68.853 81.6901 68.7428 81.3518 68.5234 81.1012C68.3031 80.8505 68.01 80.7248 67.6422 80.7248C67.3517 80.7248 67.1054 80.7933 66.9068 80.9312C66.7064 81.0708 66.5547 81.2582 66.4514 81.4967V82.3648ZM66.4514 83.8444C66.4514 84.0855 66.3942 84.2538 66.2823 84.3466C66.1687 84.4394 66.0273 84.4845 65.8539 84.4845H65.7099C65.5234 84.4845 65.3734 84.4403 65.2606 84.3509C65.1496 84.2607 65.0933 84.0899 65.0933 83.8384V77.8983C65.0933 77.8731 65.1453 77.8402 65.2476 77.802C65.3508 77.7638 65.4697 77.7439 65.6041 77.7439C65.7064 77.7439 65.8062 77.7604 65.9077 77.7925C66.0065 77.8246 66.0959 77.8809 66.1765 77.9616C66.2563 78.0414 66.3222 78.1533 66.3743 78.2938C66.4237 78.436 66.4514 78.6164 66.4514 78.835L66.4549 80.4082C66.6232 80.1697 66.8357 79.9824 67.0924 79.8419C67.35 79.7048 67.6457 79.6346 67.9814 79.6346C68.2962 79.6346 68.5867 79.6927 68.8547 79.8089C69.1236 79.926 69.3517 80.0891 69.5451 80.3015C69.7394 80.5149 69.8885 80.7725 69.9987 81.0778C70.108 81.3839 70.1635 81.7239 70.1635 82.0968C70.1635 82.4646 70.1097 82.8002 70.003 83.1064C69.8981 83.4125 69.7472 83.6727 69.5555 83.8878C69.3612 84.1038 69.1279 84.2712 68.8582 84.3943C68.5867 84.5166 68.2884 84.5773 67.9597 84.5773C67.5919 84.5773 67.2806 84.4992 67.0265 84.3423C66.7723 84.1827 66.5798 83.9919 66.4514 83.7673V83.8444Z" fill="black"/>
<path fill-rule="evenodd" clip-rule="evenodd" d="M165.581 83.6032V84.3179C165.214 84.4532 164.856 84.5199 164.505 84.5199C163.93 84.5199 163.469 84.35 163.126 84.0082C162.782 83.6665 162.61 83.2095 162.61 82.6353C162.61 82.0568 162.779 81.5894 163.113 81.2355C163.449 80.8799 163.889 80.703 164.438 80.703C164.627 80.703 164.799 80.7203 164.95 80.7568C165.1 80.7932 165.288 80.8608 165.512 80.9597V81.7351C165.139 81.4957 164.795 81.3751 164.478 81.3751C164.145 81.3751 163.874 81.4914 163.661 81.7247C163.447 81.9554 163.342 82.252 163.342 82.611C163.342 82.99 163.455 83.2901 163.685 83.513C163.915 83.7359 164.224 83.8469 164.612 83.8469C164.893 83.8469 165.215 83.7663 165.581 83.6032ZM159.499 84.4506H160.231V80.7836H159.499V84.4506ZM159.57 79.3708C159.485 79.4567 159.442 79.5573 159.442 79.6674C159.442 79.7828 159.485 79.8834 159.57 79.9701C159.655 80.0569 159.754 80.0993 159.865 80.0993C159.985 80.0993 160.087 80.0569 160.172 79.9719C160.257 79.886 160.3 79.7854 160.3 79.6674C160.3 79.5478 160.257 79.4471 160.172 79.3648C160.087 79.2824 159.985 79.2407 159.865 79.2407C159.754 79.2407 159.655 79.285 159.57 79.3708ZM155.467 80.7836V81.618L155.506 81.5538C155.859 80.9875 156.212 80.703 156.565 80.703C156.841 80.703 157.128 80.8409 157.428 81.1193L157.043 81.7593C156.789 81.5191 156.553 81.3986 156.336 81.3986C156.101 81.3986 155.898 81.5113 155.726 81.7342C155.553 81.958 155.467 82.2234 155.467 82.5304V84.4506H154.735V80.7836H155.467ZM149.906 81.4332H150.546V83.0655C150.546 83.3985 150.561 83.6232 150.591 83.7429C150.621 83.8617 150.659 83.9579 150.703 84.0299C150.748 84.1045 150.806 84.1704 150.875 84.2294C151.095 84.4237 151.369 84.5199 151.701 84.5199C152.029 84.5199 152.333 84.4428 152.611 84.2866V83.6154C152.323 83.7853 152.051 83.8703 151.794 83.8703C151.448 83.8703 151.277 83.6596 151.277 83.2381V81.4332H152.425V80.7836H151.277V80.0187L149.906 81.3621V81.4332ZM148.049 83.6032V84.3179C147.683 84.4532 147.324 84.5199 146.975 84.5199C146.398 84.5199 145.938 84.35 145.594 84.0082C145.252 83.6665 145.079 83.2095 145.079 82.6353C145.079 82.0568 145.247 81.5894 145.583 81.2355C145.917 80.8799 146.358 80.703 146.905 80.703C147.096 80.703 147.267 80.7203 147.42 80.7568C147.57 80.7932 147.756 80.8608 147.98 80.9597V81.7351C147.608 81.4957 147.264 81.3751 146.946 81.3751C146.615 81.3751 146.342 81.4914 146.128 81.7247C145.916 81.9554 145.81 82.252 145.81 82.611C145.81 82.99 145.925 83.2901 146.155 83.513C146.383 83.7359 146.692 83.8469 147.081 83.8469C147.363 83.8469 147.684 83.7663 148.049 83.6032ZM140.717 81.5677C140.884 81.4098 141.098 81.33 141.357 81.33C141.617 81.33 141.823 81.4098 141.978 81.5677C142.133 81.7273 142.219 81.9528 142.237 82.2468H140.392C140.443 81.9528 140.553 81.7273 140.717 81.5677ZM142.956 82.5833C142.956 82.0117 142.812 81.5547 142.521 81.2138C142.232 80.873 141.844 80.703 141.357 80.703C140.852 80.703 140.442 80.8782 140.124 81.2294C139.808 81.579 139.651 82.0343 139.651 82.5946C139.651 82.9675 139.725 83.2953 139.874 83.5789C140.025 83.8634 140.225 84.088 140.474 84.2572C140.724 84.4245 141.05 84.5087 141.453 84.5087C141.749 84.5087 142.005 84.4766 142.225 84.4141C142.442 84.3508 142.664 84.245 142.886 84.0976V83.3951C142.485 83.6891 142.044 83.8357 141.568 83.8357C141.227 83.8357 140.948 83.7316 140.734 83.5217C140.518 83.3118 140.399 83.0308 140.381 82.6752H142.956V82.5833ZM136.505 84.4506H137.236V78.8817H136.505V84.4506ZM130.949 84.4506H134.187V83.7429H131.75V82.0135H134.036V81.2953H131.75V79.5894H134.105V78.8817H130.949V84.4506ZM126.355 79.9085L125.729 81.605C125.47 81.3595 125.21 81.2372 124.946 81.2372C124.708 81.2372 124.501 81.3179 124.327 81.4809C124.153 81.6423 123.985 81.9423 123.824 82.3803V84.4506H122.13V79.6475H123.824V80.8045C123.932 80.5209 124.12 80.2425 124.39 79.9719C124.66 79.7013 124.979 79.566 125.342 79.566C125.534 79.566 125.703 79.5946 125.845 79.6501C125.987 79.7065 126.158 79.7923 126.355 79.9085ZM117.873 81.6188C117.873 81.3196 117.96 81.0759 118.135 80.8895C118.311 80.703 118.541 80.6102 118.825 80.6102C119.113 80.6102 119.333 80.7021 119.488 80.8851C119.639 81.0672 119.717 81.3127 119.717 81.6188H117.873ZM121.306 82.1158C121.306 81.5139 121.188 81.0222 120.954 80.6414C120.721 80.2598 120.423 79.9857 120.058 79.8175C119.695 79.6501 119.319 79.566 118.929 79.566C118.338 79.566 117.834 79.6718 117.418 79.8834C117.004 80.0959 116.692 80.389 116.488 80.7611C116.28 81.1323 116.178 81.5538 116.178 82.0256C116.178 82.5035 116.28 82.9302 116.488 83.3075C116.692 83.6839 117.004 83.9822 117.418 84.2025C117.834 84.4219 118.338 84.5312 118.929 84.5312C119.476 84.5312 119.926 84.4792 120.281 84.3734C120.634 84.2693 120.936 84.1513 121.185 84.0221V82.971C120.492 83.291 119.858 83.4532 119.285 83.4532C118.957 83.4532 118.664 83.3604 118.405 83.1739C118.149 82.9883 117.985 82.7481 117.919 82.4549H121.306V82.1158ZM113.613 82.9276V81.0907C113.414 80.9814 113.258 80.9016 113.146 80.8556C113.034 80.8079 112.903 80.7836 112.751 80.7836C112.483 80.7836 112.261 80.8973 112.081 81.1236C111.904 81.3509 111.815 81.6587 111.815 82.0482C111.815 82.474 111.908 82.7836 112.095 82.977C112.283 83.1704 112.502 83.2676 112.751 83.2676C112.957 83.2676 113.122 83.2355 113.248 83.1696C113.374 83.1054 113.496 83.0256 113.613 82.9276ZM115.307 84.4506H113.613V84.0169C113.433 84.167 113.243 84.2901 113.043 84.3873C112.843 84.4835 112.567 84.5312 112.215 84.5312C111.864 84.5312 111.521 84.4462 111.184 84.2728C110.848 84.0993 110.571 83.8304 110.353 83.4644C110.137 83.0985 110.027 82.6371 110.027 82.082C110.027 81.6457 110.11 81.2372 110.273 80.8548C110.437 80.4732 110.694 80.1627 111.043 79.9242C111.393 79.6857 111.821 79.566 112.327 79.566C112.643 79.566 112.897 79.6007 113.092 79.6692C113.288 79.7394 113.461 79.827 113.613 79.9346V77.919H115.307V84.4506ZM108.708 78.0378C108.568 77.8964 108.4 77.8262 108.206 77.8262C108.009 77.8262 107.842 77.8964 107.706 78.0378C107.567 78.1783 107.497 78.3474 107.497 78.5417C107.497 78.6727 107.529 78.7932 107.591 78.9016C107.653 79.01 107.74 79.0968 107.849 79.1583C107.955 79.2216 108.074 79.2529 108.206 79.2529C108.4 79.2529 108.568 79.1844 108.708 79.0447C108.849 78.9077 108.919 78.7386 108.919 78.5417C108.919 78.3474 108.849 78.1783 108.708 78.0378ZM107.362 84.4506H109.056V79.6475H107.362V84.4506ZM104.856 81.6188C104.856 81.3127 104.779 81.0672 104.626 80.8851C104.471 80.7021 104.251 80.6102 103.964 80.6102C103.679 80.6102 103.449 80.703 103.274 80.8895C103.098 81.0759 103.011 81.3196 103.011 81.6188H104.856ZM106.444 82.4549H103.058C103.124 82.7481 103.286 82.9883 103.544 83.1739C103.804 83.3604 104.095 83.4532 104.423 83.4532C104.997 83.4532 105.63 83.291 106.322 82.971V84.0221C106.075 84.1513 105.772 84.2693 105.418 84.3734C105.066 84.4792 104.614 84.5312 104.067 84.5312C103.477 84.5312 102.973 84.4219 102.558 84.2025C102.143 83.9822 101.831 83.6839 101.626 83.3075C101.419 82.9302 101.316 82.5035 101.316 82.0256C101.316 81.5538 101.419 81.1323 101.626 80.7611C101.831 80.389 102.143 80.0959 102.558 79.8834C102.973 79.6718 103.476 79.566 104.067 79.566C104.458 79.566 104.834 79.6501 105.196 79.8175C105.561 79.9857 105.86 80.2598 106.093 80.6414C106.327 81.0222 106.444 81.5139 106.444 82.1158V82.4549ZM100.501 81.6319C100.501 80.2537 99.9268 79.566 98.7776 79.566C98.4489 79.566 98.1488 79.6232 97.8799 79.7386C97.612 79.853 97.344 80.0534 97.0786 80.3396V79.6475H95.3839V84.4506H97.0786V81.6319C97.1375 81.5469 97.1957 81.4662 97.252 81.3916C97.3084 81.3153 97.3787 81.2372 97.4619 81.1548C97.546 81.0742 97.6397 81.0065 97.7446 80.9554C97.8487 80.9025 97.971 80.8764 98.1089 80.8764C98.4012 80.8764 98.5911 80.9753 98.677 81.1722C98.7629 81.3682 98.8071 81.5989 98.8071 81.8626V81.9606V84.4506H100.501V81.6319ZM94.3596 84.4506H92.6658V81.9606C92.6658 81.9423 92.6658 81.9241 92.6675 81.9068C92.6692 81.8894 92.671 81.853 92.671 81.7966C92.671 81.5677 92.6207 81.3569 92.5235 81.1653C92.4264 80.9727 92.2408 80.8764 91.9676 80.8764C91.7542 80.8764 91.5652 80.9493 91.4021 81.0915C91.2391 81.2346 91.0838 81.415 90.9373 81.6319V84.4506H89.2417V77.919H90.9373V80.3396C91.2148 80.0404 91.4915 79.8374 91.7647 79.7281C92.0379 79.6206 92.3284 79.566 92.6363 79.566C93.7846 79.566 94.3596 80.2121 94.3596 81.5044V84.4506ZM88.4108 82.8929C88.0995 82.9883 87.8367 83.0612 87.6199 83.1097C87.403 83.1609 87.2096 83.186 87.0396 83.186C86.861 83.186 86.6814 83.1453 86.5028 83.0638C86.3233 82.9814 86.1758 82.853 86.0605 82.6795C85.9442 82.5044 85.8853 82.2901 85.8853 82.0343C85.8853 81.6509 86.0024 81.3673 86.2374 81.1861C86.4707 81.0031 86.7378 80.9111 87.0396 80.9111C87.351 80.9111 87.7829 80.9996 88.3371 81.1765V79.8444C88.1064 79.7585 87.88 79.6917 87.658 79.6406C87.4343 79.592 87.1446 79.566 86.7907 79.566C86.2591 79.566 85.8115 79.6544 85.4499 79.8296C85.0865 80.0048 84.809 80.2242 84.6173 80.4853C84.4247 80.7446 84.2903 81.0161 84.2157 81.2953C84.1359 81.5746 84.0986 81.8218 84.0986 82.0343C84.0986 82.2485 84.1359 82.4948 84.2114 82.7741C84.2877 83.0542 84.423 83.3283 84.619 83.5963C84.8159 83.866 85.0952 84.088 85.4586 84.2658C85.8211 84.4436 86.2651 84.5312 86.7907 84.5312C87.0223 84.5312 87.2374 84.5173 87.4343 84.4861C87.6303 84.4575 87.8063 84.4202 87.9633 84.3742C88.1212 84.3291 88.2703 84.2788 88.4108 84.2259V82.8929ZM83.24 82.5521C83.24 82.9606 83.1351 83.3127 82.9269 83.611C82.7179 83.9076 82.4274 84.1366 82.0544 84.2953C81.6806 84.4532 81.2539 84.5312 80.7708 84.5312C80.6364 84.5312 80.4708 84.5225 80.2747 84.5061C80.0779 84.4887 79.8185 84.441 79.4942 84.363C79.1698 84.284 78.8324 84.1687 78.4812 84.016V82.415C78.809 82.6206 79.1316 82.7897 79.4499 82.9241C79.7674 83.0612 80.1065 83.1279 80.4699 83.1279C80.8038 83.1279 81.0206 83.0716 81.1195 82.9606C81.2184 82.8487 81.2669 82.7446 81.2669 82.6475C81.2669 82.4714 81.1828 82.3222 81.0137 82.2008C80.8446 82.0794 80.6008 81.9554 80.2782 81.827C79.9209 81.6752 79.6087 81.5113 79.3398 81.3335C79.0701 81.1548 78.8506 80.9328 78.6807 80.6657C78.5089 80.3986 78.4248 80.0829 78.4248 79.7177C78.4248 79.3648 78.5107 79.0465 78.6841 78.7628C78.855 78.4775 79.1186 78.2503 79.4725 78.0812C79.8264 77.9103 80.26 77.8262 80.77 77.8262C81.1334 77.8262 81.4707 77.8617 81.7786 77.9311C82.0874 78.0022 82.3415 78.082 82.5427 78.1714C82.7431 78.259 82.8818 78.3275 82.9564 78.3786V79.9111C82.6884 79.7203 82.3927 79.5478 82.064 79.3977C81.737 79.2477 81.3849 79.1713 81.0119 79.1713C80.7674 79.1713 80.5913 79.219 80.4803 79.3136C80.3701 79.4072 80.3155 79.5243 80.3155 79.6622C80.3155 79.7906 80.3701 79.9025 80.4794 79.997C80.5896 80.0915 80.7847 80.206 81.0657 80.3413C81.5679 80.5772 81.972 80.7888 82.273 80.9779C82.5739 81.167 82.8107 81.3847 82.9833 81.6319C83.1542 81.8782 83.24 82.1852 83.24 82.5521Z" fill="black"/>
<path fill-rule="evenodd" clip-rule="evenodd" d="M63.6584 38.503L59.7712 62.8948H50.7617L54.5613 38.503H63.6584Z" fill="black"/>
<path fill-rule="evenodd" clip-rule="evenodd" d="M43.7632 38.503L40 62.8939H48.9748L52.862 38.503H43.7632Z" fill="black"/>
<path fill-rule="evenodd" clip-rule="evenodd" d="M130.759 63.0422L139.677 38.8716H147.352L149.028 62.8237H142.575L142.56 59.5575H138.423L137.117 63.0405L130.759 63.0422ZM140.123 54.4647L142.168 54.463L142.124 46.7085L140.123 54.4647ZM100.243 62.8488L106.85 62.867L108.037 54.9487C108.294 54.9487 108.552 54.9842 108.808 54.9842C114.183 54.9842 118.674 53.0449 119.045 46.9262C119.478 39.7433 115.125 38.8716 112.948 38.6522H104.236L100.243 62.8488ZM110.135 44.0979H110.33C111.619 44.0979 112.729 44.3148 112.729 46.2749C112.729 48.2358 111.417 49.4162 109.786 49.4162C109.674 49.4162 109.472 49.4162 109.243 49.3824L110.135 44.0979ZM150.05 62.8679L154.088 38.8716H160.591L157.585 57.3788H163.029L162.162 62.8246L150.05 62.8679ZM118.315 55.1204L117.346 61.6676C118.489 62.6407 120.317 63.3206 122.402 63.3024C127.536 63.2582 132.326 60.4291 132.326 55.2019C132.326 51.2843 130.05 50.4804 128.536 48.6703C127.451 47.3486 126.881 46.5871 126.881 45.4041C126.881 44.3937 127.755 43.8803 128.19 43.8803C129.219 43.8803 131.356 44.2861 132.614 45.3651L133.416 39.307C131.844 38.3304 129.28 38 127.536 38C123.217 38 119.915 42.5724 119.915 45.6218C119.915 48.0944 120.678 49.5853 122.309 51.5012C123.568 52.9617 125.254 53.6442 125.254 55.0371C125.254 56.3259 124.541 57.1611 123.398 57.1611C122.198 57.1611 119.66 56.4794 118.315 55.1204ZM91.8246 62.867L95.5262 38.4354H102.496L98.3562 62.867H91.8246ZM78.4986 62.8237H90.5193L91.6061 56.7266H86.3815L89.2115 38.5681H82.5558L78.4986 62.8237ZM79.6305 44.9678C79.0017 44.5854 78.431 44.4657 77.7736 44.4657C75.1994 44.4657 72.2272 47.1404 72.2272 52.1534C72.2272 55.6382 73.3166 57.2496 75.7675 57.1967C76.281 57.1863 76.8005 57.1611 77.5403 57.1611L76.8005 62.3883C75.4926 63.0405 73.9696 63.0405 73.9696 63.0405C69.8318 63.0405 65.5161 60.1325 65.5161 53.9348C65.5161 44.3269 71.1414 38.144 77.3156 38.144C78.4579 38.144 79.516 38.3868 80.516 38.8404L79.6305 44.9678Z" fill="black"/>
<path fill-rule="evenodd" clip-rule="evenodd" d="M162.742 40.4625C162.742 39.5371 163.495 38.8546 164.383 38.8546C165.26 38.8546 166.012 39.5371 166.012 40.4625C166.012 41.3983 165.26 42.0809 164.383 42.0809C163.495 42.0809 162.742 41.3983 162.742 40.4625ZM164.383 41.812C165.11 41.812 165.688 41.2396 165.688 40.4625C165.688 39.6993 165.11 39.1234 164.383 39.1234C163.641 39.1234 163.067 39.6993 163.067 40.4625C163.067 41.2396 163.641 41.812 164.383 41.812ZM164.04 41.3983H163.757V39.5371H164.468C164.907 39.5371 165.124 39.6993 165.124 40.0662C165.124 40.3992 164.914 40.544 164.64 40.5779L165.17 41.3983H164.856L164.364 40.5909H164.04V41.3983ZM164.378 40.3524C164.617 40.3524 164.83 40.3359 164.83 40.0488C164.83 39.819 164.619 39.7756 164.424 39.7756H164.04V40.3524H164.378Z" fill="black"/>
</svg>
