<svg width="207" height="120" viewBox="0 0 207 120" fill="none" xmlns="http://www.w3.org/2000/svg">
<path fill-rule="evenodd" clip-rule="evenodd" d="M88.5419 64.5467C90.6232 64.5467 91.6438 65.8627 91.6438 67.4024C91.6438 68.9428 90.6232 70.2588 88.5419 70.2588C86.4605 70.2588 85.4408 68.9428 85.4408 67.4024C85.4408 65.8627 86.4605 64.5467 88.5419 64.5467ZM128.395 64.5467C130.477 64.5467 131.497 65.8627 131.497 67.4024C131.497 68.9428 130.477 70.2588 128.395 70.2588C126.314 70.2588 125.293 68.9428 125.293 67.4024C125.293 65.8627 126.314 64.5467 128.395 64.5467ZM111.635 62.7316V70.0759H110.617V69.3926H110.595C110.197 69.9536 109.351 70.2594 108.565 70.2594C106.954 70.2594 105.659 69.2292 105.659 67.4336C105.659 65.6388 106.954 64.6077 108.565 64.6077C109.361 64.6077 110.188 64.8935 110.595 65.4754H110.617V62.7316H111.635ZM115.524 64.5475C116.614 64.5475 117.981 64.822 117.981 66.0671V68.9436C117.981 69.2599 118.123 69.4024 118.44 69.4024C118.552 69.4024 118.695 69.3823 118.797 69.3622V70.0753C118.552 70.1171 118.246 70.1372 118.002 70.1372C117.491 70.1372 117.154 69.994 117.083 69.3928C116.675 69.9433 115.675 70.2588 114.809 70.2588C113.034 70.2588 112.637 69.3412 112.637 68.6483C112.637 67.6688 113.217 67.1689 114.93 66.9854L116.094 66.8623C116.666 66.8011 117.022 66.6997 117.022 66.22C117.022 65.4868 116.308 65.3427 115.481 65.3427C114.604 65.3427 113.86 65.577 113.829 66.4027H112.872C113.004 65.0675 113.921 64.5475 115.524 64.5475ZM93.6729 64.73V68.1683C93.6729 68.9531 94.1623 69.4022 95.2545 69.4022C96.1825 69.4022 97.0082 68.8621 97.0082 67.8118V64.73H98.028V70.0758H97.0082V69.2702H96.9881C96.5084 70.0147 95.6625 70.2593 94.8971 70.2593C93.6126 70.2593 92.6532 69.7088 92.6532 68.3728V64.73H93.6729ZM120.959 63.0884V64.7311H122.49V65.5263H120.959V68.8206C120.959 69.2496 121.265 69.4025 121.785 69.4025C122.021 69.4025 122.255 69.3719 122.49 69.3317V70.188C122.142 70.2484 121.766 70.2589 121.347 70.2589C120.347 70.2589 119.94 69.7695 119.94 68.9944V65.5263H118.838V64.7311H119.94V63.0884H120.959ZM124.285 64.7314V70.0764H123.266V64.7314H124.285ZM135.638 64.546C136.922 64.546 137.882 65.0973 137.882 66.4334V70.0761H136.861V66.6378C136.861 65.8531 136.373 65.404 135.28 65.404C134.353 65.404 133.527 65.9448 133.527 66.9944V70.0761H132.507V64.7303H133.527V65.5368H133.548C134.026 64.7915 134.873 64.546 135.638 64.546ZM102.405 64.546C103.689 64.546 104.649 65.0973 104.649 66.4334V70.0761H103.628V66.6378C103.628 65.8531 103.14 65.404 102.047 65.404C101.119 65.404 100.294 65.9448 100.294 66.9944V70.0761H99.273V64.7303H100.294V65.5368H100.314C100.793 64.7915 101.639 64.546 102.405 64.546ZM84.87 62.7929V63.7313H80.3105V65.8835H84.6559V66.822H80.3105V70.076H79.2288V62.7929H84.87ZM117.022 67.2808C116.869 67.4547 116.594 67.5255 116.023 67.5963L114.87 67.7396C114.074 67.8418 113.655 68.0559 113.655 68.6169C113.655 69.1175 114.155 69.4636 114.9 69.4636C116.054 69.4636 117.022 68.8511 117.022 67.9641V67.2808ZM108.698 65.4649C107.515 65.4649 106.74 66.2094 106.74 67.4336C106.74 68.4437 107.321 69.4022 108.698 69.4022C110.086 69.4022 110.677 68.4437 110.677 67.4336C110.677 66.2094 109.891 65.4649 108.698 65.4649ZM88.5419 65.4031C87.0625 65.4031 86.5217 66.4333 86.5217 67.4024C86.5217 68.3722 87.0625 69.4024 88.5419 69.4024C90.0204 69.4024 90.5628 68.3722 90.5628 67.4024C90.5628 66.4333 90.0204 65.4031 88.5419 65.4031ZM128.395 65.4031C126.917 65.4031 126.375 66.4333 126.375 67.4024C126.375 68.3722 126.917 69.4024 128.395 69.4024C129.875 69.4024 130.416 68.3722 130.416 67.4024C130.416 66.4333 129.875 65.4031 128.395 65.4031ZM124.285 62.7313V63.8541H123.266V62.7313H124.285ZM161.374 51.7643C163.537 51.7643 164.985 52.6416 164.985 54.702C164.985 56.7625 163.537 57.6398 161.374 57.6398C159.21 57.6398 157.763 56.7625 157.763 54.702C157.763 52.6416 159.21 51.7643 161.374 51.7643ZM129.599 50.0297V57.436H127.866V56.7526H127.846C127.264 57.4561 126.498 57.6396 125.682 57.6396C123.979 57.6396 122.633 56.6697 122.633 54.7631C122.633 52.9884 123.958 51.8253 125.682 51.8253C126.692 51.8253 127.437 52.1521 127.784 52.6415H127.804V50.0297H129.599ZM147.399 51.7643C149.562 51.7643 151.01 52.6416 151.01 54.702C151.01 56.7625 149.562 57.6398 147.399 57.6398C145.236 57.6398 143.789 56.7625 143.789 54.702C143.789 52.6416 145.236 51.7643 147.399 51.7643ZM118.46 51.7637C120.827 51.7637 121.97 52.9581 121.97 55.0177V55.1811H116.705V55.202C116.705 55.722 117.236 56.518 118.46 56.518C119.185 56.518 119.695 56.2725 119.949 55.8032H121.867C121.347 57.0991 120.103 57.6391 118.46 57.6391C116.298 57.6391 114.85 56.7626 114.85 54.7022C114.85 52.641 116.298 51.7637 118.46 51.7637ZM179.562 51.7642C182.082 51.7642 182.673 52.5908 182.795 53.6105H180.816C180.715 53.0487 180.123 52.8861 179.603 52.8861C179.133 52.8861 178.429 52.9272 178.429 53.468C178.429 53.7232 178.563 53.8962 179.339 53.9775L180.583 54.1103C182.408 54.3043 183 54.8451 183 55.7925C183 57.415 181.184 57.6388 179.624 57.6388C177.553 57.6388 176.502 57.0376 176.41 55.7426H178.389C178.471 56.2118 178.797 56.5176 179.726 56.5176C180.541 56.5176 181.021 56.3237 181.021 55.9261C181.021 55.6202 180.868 55.4971 180.001 55.3755L178.369 55.151C177.227 54.9981 176.573 54.6407 176.573 53.6C176.573 52.1215 178.073 51.7642 179.562 51.7642ZM95.163 51.9073C96.5707 51.9073 98.0588 52.7234 98.0588 54.9367V55.0695H93.142C93.2241 56.1706 94.2036 56.7629 95.1115 56.7629C95.6918 56.7629 96.4886 56.5682 96.8354 55.814H97.9164C97.4061 57.0994 96.2133 57.6193 95.163 57.6193C93.0816 57.6193 92.0611 56.3034 92.0611 54.7637C92.0611 53.2232 93.0816 51.9073 95.163 51.9073ZM86.6959 50.0913V52.8954H86.7161C87.1965 52.1517 88.0424 51.907 88.8079 51.907C90.0924 51.907 91.0518 52.4576 91.0518 53.7944V57.4364H90.0304V53.998C90.0304 53.2125 89.5427 52.7634 88.4497 52.7634C87.5217 52.7634 86.6959 53.3043 86.6959 54.3554V57.4364H85.6754V50.0913H86.6959ZM167.321 51.9683L168.576 55.702H168.596L169.862 51.9683H171.595L172.86 55.702H172.881L174.135 51.9683H176.115L174.074 57.4356H171.922L170.739 53.9064H170.718L169.535 57.4356H167.383L165.342 51.9683H167.321ZM156.794 50.03V57.4354H154.999V50.03H156.794ZM113.799 51.825C114.003 51.825 114.247 51.8355 114.452 51.8765V53.5595C114.124 53.4677 113.799 53.3953 113.463 53.3953C112.237 53.3953 111.657 54.0182 111.657 55.0798V57.4356H109.861V51.9683H111.595V53.0395H111.616C112.268 52.2033 112.778 51.825 113.799 51.825ZM136.658 50.1526V52.8859H140.759V50.1526H142.738V57.4357H140.759V54.2735H136.658V57.4357H134.679V50.1526H136.658ZM153.774 50.03V57.4354H151.98V50.03H153.774ZM85.0445 50.1526V51.0911H82.2887V57.4357H81.2078V51.0911H78.4536V50.1526H85.0445ZM109.086 50.1526V51.5402H104.557V53.1314H108.8V54.5181H104.557V57.4357H102.578V50.1526H109.086ZM161.374 53.0296C160.262 53.0296 159.62 53.6316 159.62 54.702C159.62 55.7725 160.262 56.3745 161.374 56.3745C162.486 56.3745 163.128 55.7725 163.128 54.702C163.128 53.6316 162.486 53.0296 161.374 53.0296ZM147.399 53.0296C146.288 53.0296 145.645 53.6316 145.645 54.702C145.645 55.7725 146.288 56.3745 147.399 56.3745C148.511 56.3745 149.154 55.7725 149.154 54.702C149.154 53.6316 148.511 53.0296 147.399 53.0296ZM126.183 53.1509C125.274 53.1509 124.489 53.6926 124.489 54.7333C124.489 55.7731 125.274 56.314 126.183 56.314C127.08 56.314 127.866 55.7731 127.866 54.7333C127.866 53.6926 127.08 53.1509 126.183 53.1509ZM95.1115 52.7636C94.173 52.7636 93.3263 53.315 93.1726 54.2735H96.9779C96.8258 53.3045 96.0708 52.7636 95.1115 52.7636ZM118.42 52.8857C117.002 52.8857 116.705 53.9682 116.705 54.1002V54.1203H120.113V54.1002C120.113 53.804 119.736 52.8857 118.42 52.8857Z" fill="black"/>
<path fill-rule="evenodd" clip-rule="evenodd" d="M44.18 73.5743C43.7036 73.2829 43.1514 73.3795 42.6388 73.3006C40.4479 72.9674 38.3392 72.3879 36.2925 71.5219C34.4027 70.7219 32.7286 69.6031 31.0851 68.4015C30.3921 67.8944 30.1949 67.195 30.038 66.4602C29.5623 64.2348 29.8247 62.0593 30.826 60.0391C32.0694 57.5304 34.1057 56.0366 36.9428 55.6889C38.3698 55.5142 39.7469 55.6905 41.1168 56.0599C41.2391 56.0929 41.3679 56.1026 41.5297 56.1299C40.9783 57.062 40.5453 58.0334 40.3401 59.0821C39.7831 61.9184 40.4141 64.4441 42.5695 66.424C44.0867 67.8188 45.9378 68.3733 48.0305 68.1327C49.9452 67.9122 51.5364 67.0952 52.8877 65.7624C53.0407 65.6111 53.1678 65.6151 53.3586 65.6602C54.6415 65.9636 55.9397 66.1334 57.2621 66.0594C59.5905 65.9306 61.626 65.092 63.193 63.3583C64.5041 61.908 65.243 60.1397 65.5674 58.2065C65.713 57.338 65.6921 56.4631 65.6664 55.5875C65.6599 55.383 65.6647 55.1786 65.6647 54.8929C66.1299 55.3267 66.4108 55.8032 66.699 56.2539C67.4523 57.4346 68.1002 58.6757 68.6242 59.9795C68.7183 60.2129 68.7344 60.3884 68.5992 60.6057C67.8499 61.8154 67.062 62.9977 66.1493 64.0915C64.6297 65.9137 62.9073 67.5218 60.9564 68.8691C58.7028 70.4257 56.2584 71.608 53.6338 72.4008C51.7279 72.9755 49.781 73.3433 47.7946 73.493C47.5741 73.5847 47.3262 73.4503 47.1097 73.5743H44.18Z" fill="black"/>
<path fill-rule="evenodd" clip-rule="evenodd" d="M32.1764 56.02C30.7993 57.2184 29.7635 58.6414 29.0979 60.3629C28.4419 62.0604 28.2769 63.8045 28.2745 65.6283C27.9075 65.188 27.5107 64.7663 27.1775 64.3003C26.3767 63.1799 25.6837 61.9928 25.0334 60.7791C24.9457 60.6133 25.0519 60.5368 25.1107 60.4338C26.037 58.7911 27.1703 57.3021 28.4114 55.8815C29.3892 54.762 30.4629 53.739 31.6251 52.8344C32.9362 51.813 34.3198 50.8874 35.8079 50.1099C37.4547 49.2488 39.1513 48.5252 40.9308 48.0342C42.5156 47.5964 44.1293 47.2576 45.7784 47.1006C47.2095 46.9638 48.6389 46.9928 50.0651 47.0354C51.6506 47.0829 53.2032 47.4274 54.7453 47.8129C56.6632 48.2918 58.4379 49.0926 60.145 50.0665C61.4328 50.8005 62.6038 51.6866 63.6831 52.6959C64.1483 53.1306 64.1838 53.7535 64.2691 54.3072C64.5902 56.3741 64.4542 58.4047 63.6059 60.3541C62.8783 62.0274 61.7491 63.332 60.0629 64.05C58.8814 64.553 57.6162 64.7534 56.3131 64.6303C55.6676 64.5691 55.0254 64.5087 54.3847 64.4025C54.1255 64.359 54.1255 64.2713 54.2406 64.0958C54.8982 63.1059 55.2628 62.0024 55.4278 60.8378C55.7127 58.8144 55.4334 56.8924 54.2189 55.1869C52.7645 53.1475 50.7629 52.1374 48.2702 52.2018C46.1776 52.2565 44.3764 53.0895 42.8721 54.5415C42.6178 54.7885 42.415 54.8417 42.0657 54.737C39.9062 54.0915 37.717 53.8541 35.5021 54.4384C34.4172 54.7266 33.3966 55.1717 32.4718 55.8236C32.3318 55.826 32.2634 55.9371 32.1764 56.02Z" fill="black"/>
</svg>
