<svg width="207" height="120" viewBox="0 0 207 120" fill="none" xmlns="http://www.w3.org/2000/svg">
<path d="M168.722 50.2334C167.266 50.2334 166.201 49.108 166.201 47.5886C166.201 46.1255 167.322 45 168.722 45C170.123 45 171.244 46.1255 171.244 47.5886C171.188 49.108 170.123 50.2334 168.722 50.2334ZM168.722 45.5627C167.602 45.5627 166.761 46.4068 166.761 47.5886C166.761 48.7703 167.602 49.6707 168.722 49.6707C169.843 49.6707 170.683 48.7703 170.683 47.5886C170.627 46.4068 169.787 45.5627 168.722 45.5627Z" fill="black"/>
<path fill-rule="evenodd" clip-rule="evenodd" d="M169.171 47.8137C169.619 47.7574 170.011 47.5323 170.011 46.9696C170.011 46.3506 169.675 46.0692 168.89 46.0692H167.658V49.2768H168.162V47.8137H168.666L169.507 49.1642H170.011L169.171 47.8137ZM168.666 47.4198H168.162V46.4068H168.834C169.171 46.4068 169.507 46.4631 169.507 46.9133C169.507 47.4198 169.114 47.4198 168.666 47.4198Z" fill="black"/>
<path fill-rule="evenodd" clip-rule="evenodd" d="M167.266 52.9908C163.512 50.2334 159.029 48.9954 133.144 47.1947C128.83 46.9133 121.378 46.4631 111.236 46.0692C108.211 45.9566 104.345 45.8441 103 45.8441C101.655 45.8441 97.7894 45.9566 94.7638 46.0692C84.6225 46.4068 77.1707 46.9133 72.8564 47.1947C46.9709 48.9391 42.4326 50.2334 38.7347 52.9908C36.3254 54.7353 34.4204 58.3368 34.4204 62.2197C34.4204 66.6653 36.8297 70.6044 40.5836 72.3489C45.6262 74.7687 48.7078 74.9375 103 74.9938C157.292 75.05 160.318 74.7687 165.417 72.3489C169.171 70.5482 171.58 66.6653 171.58 62.2197C171.524 58.3368 169.675 54.7353 167.266 52.9908ZM156.116 70.3231C151.241 71.6736 123.675 71.7299 103 71.7299C82.3253 71.7299 54.759 71.6736 49.8845 70.3231C46.1865 69.3101 43.3851 65.9337 43.3851 61.7695C43.3851 57.4927 46.1865 54.1163 50.4447 53.0471C57.2803 51.3026 87.6481 49.2205 103 49.2205C118.352 49.2205 148.72 51.3026 155.555 53.0471C159.814 54.1163 162.615 57.4927 162.615 61.7695C162.559 65.9337 159.758 69.3101 156.116 70.3231Z" fill="black"/>
<path fill-rule="evenodd" clip-rule="evenodd" d="M92.6349 60.025C92.7469 59.6874 92.5789 59.4623 92.2427 59.4623H88.7689C88.4887 59.4623 88.1526 59.6874 88.0405 60.025L87.8164 60.7566C87.7043 61.0942 87.8724 61.3193 88.2086 61.3193H89.2731C89.5533 61.3193 89.7774 61.5444 89.6653 61.882L88.937 63.9079C88.7689 64.4143 88.2086 64.8645 87.7043 64.8645H84.9589C84.4546 64.8645 84.1745 64.4143 84.2865 63.9079L86.8639 56.5361C86.9759 56.1984 87.3121 55.9733 87.5923 55.9733H91.1221C91.4583 55.9733 91.6264 56.1984 91.5143 56.5361C91.4023 56.8737 91.5703 57.0988 91.9065 57.0988H93.1952C93.5314 57.0988 93.7555 56.7049 93.8675 56.4235C94.3158 55.073 93.6434 54.3414 92.4108 54.1726C91.5703 54.0038 91.4583 54.0038 89.5533 54.0038C87.5923 54.0038 87.2001 54.06 86.5837 54.2289C85.5192 54.4539 84.9589 54.9604 84.6788 55.9733L81.8773 63.9642C81.373 65.5398 82.2135 66.7778 83.7823 66.7778H88.3767C89.3852 66.7778 90.5058 65.9337 90.842 64.9208L92.6349 60.025Z" fill="black"/>
<path fill-rule="evenodd" clip-rule="evenodd" d="M105.522 54.5665C105.634 54.2851 105.465 54.0038 105.129 54.0038H103.897C103.617 54.0038 103.28 54.2289 103.168 54.5665L101.655 58.8995C101.543 59.2372 101.207 59.4623 100.927 59.4623H97.9576C97.6214 59.4623 97.4533 59.2372 97.5654 58.8995L99.0782 54.5665C99.1902 54.2289 99.0221 54.0038 98.686 54.0038H97.4533C97.1171 54.0038 96.837 54.2289 96.7249 54.5665L92.6908 66.2151C92.5788 66.5527 92.7469 66.7778 93.083 66.7778H94.3157C94.6519 66.7778 94.932 66.5527 95.0441 66.2151L96.5568 61.9383C96.6689 61.6007 97.0051 61.3756 97.2852 61.3756H100.255C100.591 61.3756 100.759 61.6007 100.647 61.9383L99.1342 66.2151C99.0221 66.5527 99.1902 66.7778 99.5264 66.7778H100.759C101.095 66.7778 101.375 66.5527 101.487 66.2151L105.522 54.5665Z" fill="black"/>
<path fill-rule="evenodd" clip-rule="evenodd" d="M120.369 66.215C120.257 66.5527 119.921 66.7778 119.641 66.7778H113.926C113.59 66.7778 113.422 66.5527 113.534 66.215L117.512 54.7915C117.624 54.4539 117.96 54.2288 118.24 54.2288H119.473C119.809 54.2288 119.977 54.4539 119.865 54.7915L116.559 64.3017C116.447 64.6394 116.615 64.8645 116.952 64.8645H120.257C120.593 64.8645 120.762 65.0896 120.649 65.4272L120.369 66.215Z" fill="black"/>
<path fill-rule="evenodd" clip-rule="evenodd" d="M144.742 64.8646C145.078 64.8646 145.246 65.0897 145.134 65.4273L144.854 66.2152C144.742 66.5528 144.406 66.7779 144.125 66.7779H138.242C137.906 66.7779 137.738 66.5528 137.85 66.2152L141.436 55.7483C141.548 55.4106 141.884 55.1856 142.164 55.1856L147.935 55.6357C148.272 55.6357 148.44 55.8608 148.328 56.1985L148.103 56.8738C147.991 57.2114 147.655 57.4365 147.375 57.4365L143.901 57.2114C143.565 57.2114 143.285 57.4365 143.173 57.7741L142.613 59.3498C142.501 59.6874 142.669 59.9125 143.005 59.9125L145.526 60.0251C145.862 60.0251 146.03 60.3064 145.918 60.5878L145.694 61.2631C145.582 61.6007 145.246 61.8258 144.966 61.8258L142.444 61.7696C142.164 61.7696 141.828 61.9946 141.716 62.3323L140.988 64.3019C140.876 64.6395 141.044 64.8646 141.38 64.8646H144.742Z" fill="black"/>
<path fill-rule="evenodd" clip-rule="evenodd" d="M74.3134 64.8645C74.6495 64.8645 74.8176 65.0896 74.7056 65.4272L74.4254 66.215C74.3134 66.5527 73.9772 66.7778 73.6971 66.7778H67.7019C67.3658 66.7778 67.1977 66.5527 67.3097 66.215L71.1197 55.298C71.2318 54.9604 71.5679 54.7353 71.8481 54.7353L77.8432 54.5102C78.1794 54.5102 78.3475 54.7353 78.2354 55.0729L77.8992 55.917C77.7872 56.2546 77.451 56.4797 77.1709 56.4797L73.7531 56.5923C73.4169 56.5923 73.1368 56.8174 73.0247 57.155L72.2963 59.0683C72.1843 59.406 72.3524 59.631 72.6885 59.631H75.3219C75.6581 59.631 75.8262 59.8561 75.7141 60.1938L75.49 60.8691C75.3779 61.2067 75.0418 61.4318 74.7616 61.4318L72.1282 61.4881C71.7921 61.4881 71.5119 61.7132 71.3999 62.0508L70.5594 64.3017C70.4474 64.6394 70.6155 64.8645 70.9516 64.8645H74.3134Z" fill="black"/>
<path fill-rule="evenodd" clip-rule="evenodd" d="M51.6775 66.2151C51.5654 66.5527 51.2293 66.7778 50.9491 66.7778H49.6604C49.3243 66.7778 49.1562 66.5527 49.2682 66.2151L52.63 56.3672C52.742 56.0296 53.0782 55.8045 53.3584 55.8045L58.7372 55.5231C59.0173 55.5231 59.1854 55.8045 59.1294 56.0858L58.8492 56.9862C58.7372 57.3239 58.513 57.4927 58.1208 57.549L55.0392 57.7741C54.7591 57.7741 54.4229 57.9991 54.3109 58.3368L53.9187 59.5748C53.8066 59.9124 53.9747 60.1375 54.3109 60.1375H56.6081C56.9442 60.1375 57.1123 60.4189 57.0003 60.7003L56.7201 61.5444C56.6081 61.882 56.2719 62.1071 55.9917 62.1071H53.6385C53.3023 62.1071 53.0222 62.3322 52.9101 62.6698L51.6775 66.2151Z" fill="black"/>
<path fill-rule="evenodd" clip-rule="evenodd" d="M110.004 56.5361C110.116 56.1984 109.948 55.9733 109.612 55.9733H107.258C106.922 55.9733 106.754 55.7482 106.866 55.4106L107.146 54.5665C107.258 54.2289 107.595 54.0038 107.875 54.0038L115.551 54.1163C115.887 54.1163 116.055 54.3414 115.943 54.679L115.663 55.4669C115.551 55.8045 115.215 56.0296 114.934 56.0296H113.029C112.693 56.0296 112.413 56.2547 112.301 56.5923L109.051 66.1588C108.939 66.4965 108.603 66.7216 108.323 66.7216H107.09C106.754 66.7216 106.586 66.4965 106.698 66.1588L110.004 56.5361Z" fill="black"/>
<path fill-rule="evenodd" clip-rule="evenodd" d="M124.123 66.2151C124.011 66.5528 123.675 66.7779 123.395 66.7779H122.162C121.826 66.7779 121.658 66.5528 121.77 66.2151L125.636 55.0167C125.748 54.6791 126.084 54.454 126.365 54.454L127.597 54.5102C127.877 54.5102 128.101 54.7353 127.989 55.073L124.123 66.2151Z" fill="black"/>
<path fill-rule="evenodd" clip-rule="evenodd" d="M78.9078 66.2151C78.7957 66.5527 78.4595 66.7778 78.1794 66.7778H76.9468C76.6106 66.7778 76.4425 66.5527 76.5545 66.2151L80.4206 54.9604C80.5326 54.6227 80.8128 54.4539 81.1489 54.3976H82.3816C82.7178 54.3976 82.8858 54.6227 82.7738 54.9604L78.9078 66.2151Z" fill="black"/>
<path fill-rule="evenodd" clip-rule="evenodd" d="M64.172 59.8562H62.5471C62.211 59.8562 62.0429 59.6311 62.1549 59.2935L62.6592 57.8304C62.7713 57.4927 63.1074 57.2677 63.3876 57.2677L65.1245 57.1551C66.021 57.0988 66.3011 57.3802 65.8529 58.5057C65.3486 59.7437 65.1805 59.8562 64.172 59.8562ZM65.4607 61.8258C66.7493 61.7133 67.4777 60.7566 68.094 58.5057C68.9345 55.6357 67.9259 54.9604 66.189 55.0167L61.6507 55.2981C61.3145 55.3544 61.0344 55.5232 60.9223 55.8608L57.3925 66.2151C57.2804 66.5528 57.4485 66.7779 57.7847 66.7779H59.0173C59.3535 66.7779 59.6336 66.5528 59.7457 66.2151L61.1464 62.2197C61.3145 61.8821 61.3705 61.8258 61.7627 61.8258H62.267C62.7152 61.8258 62.7713 61.8821 62.8273 62.2197L63.4996 66.2151C63.5557 66.5528 63.8358 66.7779 64.172 66.7779H65.4046C65.7408 66.7779 65.9089 66.5528 65.8529 66.2151L65.2926 62.4448C65.1245 61.9384 65.2365 61.8821 65.4607 61.8258Z" fill="black"/>
<path fill-rule="evenodd" clip-rule="evenodd" d="M152.362 60.3626L151.353 60.2501C151.073 60.2501 150.849 60.025 150.961 59.6873L151.409 58.3368C151.521 57.9991 151.858 57.7741 152.138 57.7741L153.314 57.8866C154.211 57.9991 154.435 58.1117 153.987 59.1246C153.538 60.3064 153.314 60.4189 152.362 60.3626ZM154.603 61.9946C155.611 61.8257 156.172 60.1375 156.508 58.8432C157.012 56.9862 156.172 56.1421 154.491 56.0858L150.513 55.8045C150.121 55.8608 149.84 56.1421 149.728 56.4798L146.367 66.2713C146.255 66.609 146.423 66.8341 146.759 66.8341H147.991C148.328 66.8341 148.608 66.609 148.72 66.2713L150.121 62.4447C150.289 62.1071 150.345 62.0508 150.737 62.0508L151.241 62.1071C151.689 62.1071 151.745 62.1634 151.801 62.501L153.034 66.3276C153.146 66.6653 153.426 66.8904 153.762 66.8904H154.995C155.275 66.8904 155.499 66.6653 155.387 66.3276L154.211 62.6698C154.155 62.1634 154.155 62.0508 154.603 61.9946Z" fill="black"/>
<path fill-rule="evenodd" clip-rule="evenodd" d="M131.911 59.8L133.2 66.2152C133.256 66.5528 133.424 66.7779 133.704 66.7779H134.937C135.273 66.7779 135.553 66.5528 135.665 66.2152L139.363 55.5795C139.475 55.2418 139.307 55.0167 138.971 55.0167L137.738 54.9605C137.402 54.9605 137.122 55.1856 137.01 55.5232L135.105 61.1505C134.881 61.7696 134.545 61.8258 134.433 61.0943L133.312 55.2981C133.256 54.9042 133.088 54.7354 132.696 54.6791L131.239 54.6228C130.903 54.6228 130.623 54.8479 130.511 55.1856L126.701 66.2152C126.589 66.5528 126.757 66.7779 127.093 66.7779H128.325C128.606 66.7779 128.942 66.5528 129.054 66.2152L131.239 59.7437C131.519 59.1247 131.855 59.2935 131.911 59.8Z" fill="black"/>
</svg>
