<svg width="207" height="120" viewBox="0 0 207 120" fill="none" xmlns="http://www.w3.org/2000/svg">
<path d="M158.378 43.451H48.6216C45.5169 43.451 43 45.9679 43 49.0726V70.9274C43 74.0321 45.5169 76.549 48.6216 76.549H158.378C161.483 76.549 164 74.0321 164 70.9274V49.0726C164 45.9679 161.483 43.451 158.378 43.451Z" fill="black"/>
<path d="M76.0733 51.2272H56.2368V68.9959H60.7192V62.297H75.4666V58.8176H60.7811V55.0038H76.0733V51.2272Z" fill="white"/>
<path d="M85.2362 68.8844C82.6359 68.8844 79.6889 67.4852 79.6889 63.6715V51.2891H84.1713V62.8047C84.1713 64.142 84.7657 65.0583 86.2887 65.0583H93.7676C95.303 65.0583 95.885 64.1048 95.885 62.7799V51.2396H100.367V63.6219C100.367 67.4233 97.408 68.8596 94.8201 68.8596L85.2362 68.8844Z" fill="white"/>
<path d="M119.548 61.7893H108.837C106.608 61.7893 104.181 60.7245 104.181 56.4649C104.181 52.2054 106.15 51.2148 108.837 51.2148H124.934V54.8552H110.273C109.283 54.8552 108.738 55.1896 108.738 56.4154C108.738 57.6413 109.258 58.0994 110.372 58.0994H121.071C123.299 58.0994 125.702 59.1519 125.702 63.4362C125.702 67.51 123.77 68.8968 121.058 68.8968H104.565V65.2688H119.622C120.6 65.2688 121.157 64.6992 121.157 63.4733C121.157 62.2475 120.65 61.7893 119.548 61.7893Z" fill="white"/>
<path d="M135.942 68.8473C133.242 68.8473 128.909 68.8473 128.909 63.3743V56.7374C128.909 51.2148 133.242 51.252 135.942 51.252H145.711C148.423 51.252 152.757 51.1901 152.757 56.725V63.3867C152.757 68.9216 148.423 68.8596 145.711 68.8596L135.942 68.8473ZM144.25 65.2812C145.724 65.2812 148.312 65.6526 148.312 62.4456V57.6908C148.312 54.4838 145.724 54.8552 144.25 54.8552H137.415C135.929 54.8552 133.354 54.4838 133.354 57.6908V62.4332C133.354 65.6402 135.929 65.2812 137.415 65.2812H144.25Z" fill="white"/>
</svg>
