<svg width="207" height="120" viewBox="0 0 207 120" fill="none" xmlns="http://www.w3.org/2000/svg">
<path d="M89.3346 72.3102C89.5634 72.3102 89.7635 72.3274 89.9348 72.3608C90.1062 72.3953 90.2499 72.4252 90.366 72.4539V74.9055C90.366 75.3287 90.2557 75.6357 90.0372 75.8255C89.8187 76.0164 89.4875 76.1106 89.0436 76.1106C88.8712 76.1106 88.7079 76.0968 88.5549 76.0681C88.402 76.0394 88.2686 76.006 88.1559 75.9681L88.2456 75.5403C88.3445 75.5794 88.4652 75.6127 88.6078 75.6426C88.7504 75.6725 88.8999 75.6886 89.054 75.6886C89.3472 75.6886 89.5577 75.63 89.6853 75.5138C89.8152 75.3977 89.8785 75.2114 89.8785 74.9584V74.8423C89.8371 74.871 89.7554 74.9067 89.6335 74.9504C89.5117 74.9952 89.3702 75.0171 89.2081 75.0171C89.0425 75.0171 88.8873 74.9906 88.7401 74.9377C88.5929 74.8848 88.4664 74.802 88.356 74.6916C88.2479 74.5813 88.1617 74.4433 88.0984 74.2765C88.0352 74.1121 88.003 73.9143 88.003 73.6855C88.003 73.4842 88.0329 73.3002 88.0927 73.1324C88.1525 72.9656 88.2387 72.8207 88.3537 72.7C88.4687 72.5769 88.609 72.4826 88.7746 72.4137C88.9401 72.3458 89.1264 72.3102 89.3346 72.3102ZM134.083 72.3687C134.122 72.5274 134.168 72.6987 134.223 72.8816C134.277 73.0644 134.338 73.253 134.405 73.4473C134.473 73.6417 134.544 73.8348 134.621 74.0292C134.699 74.2224 134.781 74.4086 134.864 74.5892C134.998 74.2189 135.114 73.8521 135.214 73.4899C135.312 73.1265 135.405 72.7528 135.494 72.3687H136.001C135.873 72.8873 135.733 73.3841 135.578 73.8613C135.424 74.3397 135.256 74.787 135.076 75.2009C135.006 75.3596 134.933 75.4976 134.858 75.6115C134.781 75.7253 134.697 75.8196 134.605 75.8943C134.514 75.9679 134.412 76.022 134.297 76.0576C134.183 76.0933 134.053 76.1105 133.908 76.1105C133.869 76.1105 133.829 76.1082 133.786 76.1025C133.745 76.0967 133.702 76.091 133.662 76.0829C133.622 76.0726 133.585 76.0634 133.552 76.0519C133.518 76.0427 133.494 76.0335 133.48 76.0254L133.57 75.6299C133.609 75.6483 133.659 75.6644 133.721 75.6805C133.782 75.6954 133.843 75.7035 133.902 75.7035C134.097 75.7035 134.248 75.6609 134.357 75.5747C134.467 75.4884 134.566 75.3481 134.653 75.1538C134.431 74.7318 134.225 74.2822 134.032 73.8084C133.84 73.3346 133.682 72.8551 133.554 72.3687H134.083ZM126.52 72.3106C126.731 72.3106 126.922 72.344 127.091 72.4107C127.26 72.4774 127.405 72.574 127.525 72.6958C127.644 72.82 127.736 72.9707 127.803 73.1489C127.866 73.326 127.899 73.5261 127.899 73.748C127.899 73.9562 127.872 74.1482 127.818 74.3241C127.763 74.5001 127.682 74.6519 127.577 74.7783C127.472 74.9048 127.342 75.0049 127.189 75.075C127.036 75.1452 126.86 75.1797 126.663 75.1797C126.503 75.1797 126.364 75.159 126.242 75.1176C126.121 75.075 126.03 75.0348 125.971 74.9957V76.095H125.479V72.4544C125.595 72.4256 125.741 72.3946 125.916 72.3612C126.089 72.3279 126.291 72.3106 126.52 72.3106ZM79.0654 72.3C79.2529 72.3 79.4254 72.3357 79.5841 72.4024C79.7416 72.4725 79.8796 72.5691 79.9934 72.6968C80.1084 72.8233 80.197 72.9762 80.2602 73.1544C80.3235 73.3315 80.3557 73.5282 80.3557 73.7432C80.3557 73.9617 80.3235 74.1595 80.2602 74.3354C80.197 74.5102 80.1084 74.6631 79.9934 74.7896C79.8796 74.9173 79.7416 75.0139 79.5841 75.0828C79.4254 75.1507 79.2529 75.1863 79.0654 75.1863C78.8792 75.1863 78.7055 75.1507 78.548 75.0828C78.3893 75.0139 78.2525 74.9173 78.1375 74.7896C78.0248 74.6631 77.9339 74.5102 77.8707 74.3354C77.8074 74.1595 77.7764 73.9617 77.7764 73.7432C77.7764 73.5282 77.8074 73.3315 77.8707 73.1544C77.9339 72.9762 78.0248 72.8233 78.1375 72.6968C78.2525 72.5691 78.3893 72.4725 78.548 72.4024C78.7055 72.3357 78.8792 72.3 79.0654 72.3ZM67.297 72.3C67.4833 72.3 67.6558 72.3357 67.8145 72.4024C67.9732 72.4725 68.1089 72.5691 68.2239 72.6968C68.3389 72.8233 68.4274 72.9762 68.4907 73.1544C68.5539 73.3315 68.5861 73.5282 68.5861 73.7432C68.5861 73.9617 68.5539 74.1595 68.4907 74.3354C68.4274 74.5102 68.3389 74.6631 68.2239 74.7896C68.1089 74.9173 67.9732 75.0139 67.8145 75.0828C67.6558 75.1507 67.4833 75.1863 67.297 75.1863C67.1096 75.1863 66.936 75.1507 66.7784 75.0828C66.6197 75.0139 66.4829 74.9173 66.3679 74.7896C66.2552 74.6631 66.1644 74.5102 66.1011 74.3354C66.0379 74.1595 66.0068 73.9617 66.0068 73.7432C66.0068 73.5282 66.0379 73.3315 66.1011 73.1544C66.1644 72.9762 66.2552 72.8233 66.3679 72.6968C66.4829 72.5691 66.6197 72.4725 66.7784 72.4024C66.936 72.3357 67.1096 72.3 67.297 72.3ZM94.1232 72.3C94.3095 72.3 94.4808 72.3357 94.6406 72.4024C94.7993 72.4725 94.9362 72.5691 95.05 72.6968C95.165 72.8233 95.2535 72.9762 95.3168 73.1544C95.38 73.3315 95.4122 73.5282 95.4122 73.7432C95.4122 73.9617 95.38 74.1595 95.3168 74.3354C95.2535 74.5102 95.165 74.6631 95.05 74.7896C94.9362 74.9173 94.7993 75.0139 94.6406 75.0828C94.4808 75.1507 94.3095 75.1863 94.1232 75.1863C93.9357 75.1863 93.7621 75.1507 93.6057 75.0828C93.4459 75.0139 93.309 74.9173 93.1952 74.7896C93.0814 74.6631 92.9905 74.5102 92.9273 74.3354C92.864 74.1595 92.833 73.9617 92.833 73.7432C92.833 73.5282 92.864 73.3315 92.9273 73.1544C92.9905 72.9762 93.0814 72.8233 93.1952 72.6968C93.309 72.5691 93.4459 72.4725 93.6057 72.4024C93.7621 72.3357 93.9357 72.3 94.1232 72.3ZM106.912 72.3C107.099 72.3 107.272 72.3357 107.431 72.4024C107.59 72.4725 107.725 72.5691 107.84 72.6968C107.955 72.8233 108.044 72.9762 108.107 73.1544C108.172 73.3315 108.203 73.5282 108.203 73.7432C108.203 73.9617 108.172 74.1595 108.107 74.3354C108.044 74.5102 107.955 74.6631 107.84 74.7896C107.725 74.9173 107.59 75.0139 107.431 75.0828C107.272 75.1507 107.099 75.1863 106.912 75.1863C106.726 75.1863 106.552 75.1507 106.395 75.0828C106.236 75.0139 106.099 74.9173 105.984 74.7896C105.871 74.6631 105.781 74.5102 105.718 74.3354C105.654 74.1595 105.623 73.9617 105.623 73.7432C105.623 73.5282 105.654 73.3315 105.718 73.1544C105.781 72.9762 105.871 72.8233 105.984 72.6968C106.099 72.5691 106.236 72.4725 106.395 72.4024C106.552 72.3357 106.726 72.3 106.912 72.3ZM109.898 72.3C110.086 72.3 110.258 72.3357 110.417 72.4024C110.575 72.4725 110.711 72.5691 110.826 72.6968C110.941 72.8233 111.03 72.9762 111.093 73.1544C111.156 73.3315 111.189 73.5282 111.189 73.7432C111.189 73.9617 111.156 74.1595 111.093 74.3354C111.03 74.5102 110.941 74.6631 110.826 74.7896C110.711 74.9173 110.575 75.0139 110.417 75.0828C110.258 75.1507 110.086 75.1863 109.898 75.1863C109.712 75.1863 109.538 75.1507 109.381 75.0828C109.222 75.0139 109.085 74.9173 108.97 74.7896C108.857 74.6631 108.768 74.5102 108.704 74.3354C108.64 74.1595 108.609 73.9617 108.609 73.7432C108.609 73.5282 108.64 73.3315 108.704 73.1544C108.768 72.9762 108.857 72.8233 108.97 72.6968C109.085 72.5691 109.222 72.4725 109.381 72.4024C109.538 72.3357 109.712 72.3 109.898 72.3ZM119.211 72.3C119.397 72.3 119.57 72.3357 119.728 72.4024C119.887 72.4725 120.024 72.5691 120.139 72.6968C120.253 72.8233 120.342 72.9762 120.406 73.1544C120.469 73.3315 120.501 73.5282 120.501 73.7432C120.501 73.9617 120.469 74.1595 120.406 74.3354C120.342 74.5102 120.253 74.6631 120.139 74.7896C120.024 74.9173 119.887 75.0139 119.728 75.0828C119.57 75.1507 119.397 75.1863 119.211 75.1863C119.025 75.1863 118.851 75.1507 118.693 75.0828C118.534 75.0139 118.398 74.9173 118.284 74.7896C118.169 74.6631 118.079 74.5102 118.016 74.3354C117.953 74.1595 117.922 73.9617 117.922 73.7432C117.922 73.5282 117.953 73.3315 118.016 73.1544C118.079 72.9762 118.169 72.8233 118.284 72.6968C118.398 72.5691 118.534 72.4725 118.693 72.4024C118.851 72.3357 119.025 72.3 119.211 72.3ZM86.4336 72.3008C86.8027 72.3008 87.0867 72.4147 87.2845 72.6458C87.4811 72.877 87.58 73.2277 87.58 73.7003V73.7831C87.58 73.8164 87.5789 73.8475 87.5754 73.8751H85.693C85.7149 74.1603 85.7965 74.3764 85.9414 74.5259C86.0863 74.672 86.3117 74.7467 86.6175 74.7467C86.7912 74.7467 86.9361 74.7329 87.0545 74.7019C87.1718 74.672 87.2615 74.6432 87.3213 74.6156L87.3891 75.0273C87.3293 75.0595 87.2247 75.0928 87.0752 75.1273C86.9257 75.163 86.7555 75.1802 86.5658 75.1802C86.3255 75.1802 86.1196 75.1446 85.9437 75.0721C85.77 74.9997 85.6263 74.9008 85.5125 74.7732C85.4009 74.6455 85.317 74.496 85.2618 74.3213C85.2089 74.1476 85.1813 73.9556 85.1813 73.7474C85.1813 73.5048 85.2158 73.2932 85.2859 73.1115C85.3561 72.9298 85.4492 72.7792 85.5665 72.6585C85.6827 72.54 85.816 72.4492 85.9678 72.3905C86.1196 72.3296 86.2749 72.3008 86.4336 72.3008ZM116.98 72.3008C117.104 72.3008 117.226 72.3112 117.35 72.3319C117.474 72.3526 117.592 72.3871 117.704 72.4319L117.594 72.8505C117.519 72.8149 117.434 72.7861 117.338 72.7654C117.241 72.7447 117.136 72.7332 117.027 72.7332C116.753 72.7332 116.543 72.8206 116.396 72.9919C116.25 73.1656 116.177 73.4174 116.177 73.7486C116.177 73.8969 116.193 74.0315 116.228 74.1557C116.261 74.2787 116.313 74.3845 116.387 74.4719C116.458 74.5604 116.55 74.6283 116.664 74.6754C116.776 74.7237 116.913 74.7467 117.075 74.7467C117.206 74.7467 117.324 74.7352 117.43 74.7099C117.534 74.6858 117.618 74.6593 117.678 74.6306L117.747 75.0434C117.718 75.0606 117.678 75.0779 117.625 75.0928C117.572 75.1089 117.512 75.1227 117.446 75.1354C117.378 75.148 117.308 75.1584 117.231 75.1664C117.156 75.1756 117.082 75.1802 117.012 75.1802C116.79 75.1802 116.596 75.1457 116.428 75.0756C116.261 75.0043 116.119 74.9054 116.006 74.7789C115.891 74.6524 115.805 74.5006 115.748 74.327C115.693 74.1534 115.664 73.9602 115.664 73.7486C115.664 73.537 115.694 73.3427 115.756 73.1679C115.818 72.9919 115.905 72.8379 116.019 72.7102C116.131 72.5814 116.269 72.4802 116.434 72.4078C116.597 72.3365 116.78 72.3008 116.98 72.3008ZM114.016 71.0148V75.0383C113.902 75.0694 113.759 75.1016 113.583 75.1326C113.406 75.1648 113.203 75.1798 112.974 75.1798C112.764 75.1798 112.573 75.1476 112.404 75.0797C112.235 75.013 112.09 74.9176 111.969 74.7946C111.851 74.6715 111.759 74.5209 111.693 74.3426C111.628 74.1644 111.596 73.9643 111.596 73.7435C111.596 73.5319 111.622 73.3376 111.677 73.1628C111.732 72.9857 111.812 72.8339 111.918 72.7063C112.023 72.5798 112.153 72.4821 112.306 72.4108C112.459 72.3406 112.634 72.305 112.832 72.305C112.99 72.305 113.131 72.3268 113.252 72.3682C113.373 72.4108 113.464 72.451 113.524 72.4901V71.101L114.016 71.0148ZM129.348 72.3002C129.544 72.3002 129.711 72.3254 129.847 72.376C129.982 72.4278 130.093 72.5002 130.173 72.5945C130.257 72.6877 130.317 72.7981 130.352 72.9257C130.387 73.0556 130.403 73.1971 130.403 73.3523V75.0692C130.362 75.0772 130.303 75.0864 130.227 75.0991C130.151 75.1117 130.066 75.1221 129.971 75.1324C129.875 75.1428 129.773 75.1531 129.663 75.1623C129.55 75.1704 129.441 75.175 129.332 75.175C129.176 75.175 129.035 75.1589 128.904 75.1278C128.773 75.0956 128.66 75.045 128.565 74.9772C128.47 74.9082 128.397 74.8185 128.344 74.7046C128.29 74.5919 128.263 74.4563 128.263 74.2976C128.263 74.1469 128.294 74.0158 128.356 73.9066C128.417 73.7973 128.501 73.71 128.607 73.6433C128.713 73.5766 128.837 73.526 128.977 73.4949C129.118 73.4627 129.266 73.4466 129.421 73.4466C129.471 73.4466 129.522 73.4489 129.575 73.4547C129.627 73.4593 129.678 73.4673 129.726 73.4765C129.773 73.4857 129.815 73.4926 129.849 73.4995C129.885 73.5064 129.91 73.5133 129.923 73.5168V73.3788C129.923 73.2971 129.916 73.2178 129.897 73.1373C129.879 73.0591 129.848 72.989 129.803 72.9257C129.756 72.8648 129.695 72.8153 129.614 72.7785C129.535 72.7417 129.432 72.7233 129.305 72.7233C129.143 72.7233 129.002 72.7348 128.88 72.7578C128.758 72.7808 128.667 72.805 128.607 72.828L128.55 72.422C128.613 72.3933 128.719 72.3657 128.867 72.3404C129.014 72.314 129.175 72.3002 129.348 72.3002ZM69.6056 72.3677V73.8062C69.6056 74.1408 69.6585 74.3812 69.7643 74.5249C69.8701 74.6686 70.0483 74.7422 70.2979 74.7422C70.3508 74.7422 70.4048 74.7399 70.4612 74.7365C70.5175 74.733 70.5704 74.7284 70.621 74.7238C70.6705 74.7181 70.7141 74.7123 70.7555 74.7077C70.7958 74.702 70.8245 74.6962 70.8418 74.6893V72.3677H71.334V75.0378C71.2213 75.0665 71.0718 75.0964 70.8878 75.1275C70.7015 75.1597 70.4876 75.1746 70.245 75.1746C70.0334 75.1746 69.8563 75.1447 69.7114 75.0826C69.5665 75.0217 69.4504 74.9343 69.3618 74.8216C69.2744 74.7089 69.2112 74.5755 69.1721 74.4226C69.133 74.2685 69.1146 74.0983 69.1146 73.9108V72.3677H69.6056ZM96.1043 72.3679C96.1399 72.5346 96.1825 72.714 96.2319 72.9083C96.2813 73.1015 96.3319 73.2959 96.3883 73.4902C96.4423 73.6834 96.4987 73.8708 96.5585 74.0502C96.6194 74.2296 96.6758 74.386 96.7287 74.5194C96.7885 74.3549 96.8471 74.1779 96.9058 73.9939C96.9633 73.8099 97.0196 73.6225 97.0725 73.4339C97.1254 73.2453 97.176 73.0601 97.2231 72.8784C97.2703 72.6979 97.3117 72.5277 97.3473 72.3679H97.7544C97.7854 72.5277 97.8245 72.6979 97.8705 72.8784C97.9154 73.0601 97.966 73.2453 98.0177 73.4339C98.0706 73.6225 98.1258 73.8099 98.1845 73.9939C98.242 74.1779 98.3018 74.3549 98.3616 74.5194C98.4144 74.386 98.4696 74.2296 98.5283 74.0502C98.5858 73.8708 98.6433 73.6834 98.6996 73.4902C98.756 73.2959 98.8089 73.1015 98.8583 72.9083C98.9078 72.714 98.9492 72.5346 98.986 72.3679H99.4931C99.3551 72.9083 99.209 73.4097 99.0538 73.8754C98.8997 74.3411 98.7399 74.754 98.5777 75.1173H98.15C98.0511 74.8632 97.9476 74.5734 97.836 74.248C97.7245 73.9226 97.6233 73.5834 97.5313 73.2303C97.4405 73.5834 97.3404 73.9226 97.23 74.248C97.1208 74.5734 97.0173 74.8632 96.9196 75.1173H96.4906C96.3285 74.754 96.1698 74.3411 96.0146 73.8754C95.8605 73.4097 95.7133 72.9083 95.5764 72.3679H96.1043ZM92.0935 72.311C92.1349 72.311 92.1832 72.3133 92.2383 72.319C92.2924 72.3236 92.3464 72.3317 92.4005 72.3397C92.4522 72.3489 92.5005 72.3581 92.5454 72.3662C92.5891 72.3754 92.6213 72.3834 92.6431 72.3903L92.558 72.8181C92.5189 72.8043 92.4557 72.787 92.366 72.7675C92.2751 72.7491 92.1602 72.7387 92.0199 72.7387C91.9279 72.7387 91.837 72.7491 91.7473 72.7675C91.6576 72.787 91.5978 72.8008 91.5702 72.8077V75.1179H91.0792V72.4846C91.1942 72.4432 91.3403 72.403 91.5116 72.3662C91.6841 72.3294 91.8784 72.311 92.0935 72.311ZM104.941 71.0156C105.086 71.0156 105.21 71.0271 105.314 71.0478C105.417 71.0685 105.491 71.088 105.534 71.1053L105.444 71.5284C105.4 71.5077 105.34 71.4882 105.263 71.4675C105.186 71.448 105.091 71.4388 104.978 71.4388C104.749 71.4388 104.59 71.5008 104.498 71.6262C104.407 71.7515 104.36 71.9194 104.36 72.1299V72.3679H105.417V72.7807H104.36V75.1173H103.869V72.1207C103.869 71.7688 103.955 71.4962 104.127 71.3042C104.3 71.1122 104.571 71.0156 104.941 71.0156ZM75.5348 71.0156V72.4219C75.6268 72.3874 75.7246 72.3598 75.8292 72.3403C75.9327 72.3207 76.0362 72.3104 76.1374 72.3104C76.357 72.3104 76.5376 72.3414 76.6813 72.4024C76.8262 72.4656 76.9423 72.5507 77.0286 72.6623C77.1148 72.7727 77.1758 72.9061 77.2103 73.0613C77.2459 73.2165 77.2632 73.3867 77.2632 73.573V75.1173H76.7722V73.6799C76.7722 73.5109 76.7607 73.366 76.7388 73.2453C76.7147 73.1268 76.6767 73.0291 76.6238 72.9555C76.5709 72.8819 76.5008 72.8279 76.4122 72.7945C76.3248 72.7612 76.2144 72.7439 76.0845 72.7439C76.0316 72.7439 75.9776 72.7474 75.9201 72.7554C75.8649 72.7612 75.8108 72.7704 75.7602 72.7784C75.7096 72.7876 75.6636 72.798 75.6222 72.8083C75.582 72.8187 75.5532 72.8267 75.5348 72.8348V75.1173H75.0438V71.1007L75.5348 71.0156ZM73.0623 72.311C73.1037 72.311 73.1531 72.3133 73.2072 72.319C73.2624 72.3236 73.3153 72.3317 73.3682 72.3397C73.4211 72.3489 73.4705 72.3581 73.5142 72.3662C73.5579 72.3754 73.5912 72.3834 73.6119 72.3903L73.528 72.8181C73.4878 72.8043 73.4245 72.787 73.3348 72.7675C73.244 72.7491 73.129 72.7387 72.9887 72.7387C72.8967 72.7387 72.8059 72.7491 72.7162 72.7675C72.6265 72.787 72.5667 72.8008 72.5391 72.8077V75.1179H72.0481V72.4846C72.163 72.4432 72.3079 72.403 72.4804 72.3662C72.6529 72.3294 72.8472 72.311 73.0623 72.311ZM83.6261 72.3114C83.8377 72.3114 84.0102 72.3413 84.1448 72.4034C84.2793 72.4655 84.3839 72.5518 84.4598 72.6644C84.5346 72.7771 84.5863 72.9105 84.6128 73.0669C84.6381 73.2222 84.6519 73.3912 84.6519 73.5729V75.1172H84.1608V73.6787C84.1608 73.5177 84.1528 73.3785 84.1367 73.2624C84.1206 73.1451 84.0907 73.0485 84.047 72.9715C84.0033 72.8944 83.9424 72.8358 83.8676 72.8001C83.7917 72.7633 83.6928 72.7438 83.5744 72.7438C83.4077 72.7438 83.272 72.7656 83.165 72.8105C83.0569 72.8542 82.9833 72.8944 82.9442 72.9289C82.973 73.0209 82.9948 73.121 83.0086 73.2314C83.0224 73.3406 83.0293 73.4533 83.0293 73.5729V75.1172H82.5372V73.6787C82.5372 73.5177 82.5291 73.3785 82.5107 73.2624C82.4935 73.1451 82.4636 73.0485 82.4199 72.9715C82.375 72.8944 82.3152 72.8358 82.2393 72.8001C82.1634 72.7633 82.068 72.7438 81.9507 72.7438C81.9024 72.7438 81.8495 72.7461 81.792 72.7495C81.7357 72.753 81.6828 72.7576 81.6322 72.7633C81.5804 72.7679 81.5344 72.7737 81.4919 72.7806C81.4493 72.7886 81.4206 72.7932 81.4068 72.7967V75.1172H80.9158V72.4483C81.0285 72.4195 81.1768 72.3896 81.3619 72.3586C81.5471 72.3264 81.761 72.3114 82.0036 72.3114C82.1795 72.3114 82.3279 72.3356 82.4475 72.3816C82.5671 72.4299 82.6671 72.4989 82.7499 72.5909C82.774 72.5736 82.812 72.5483 82.866 72.5173C82.9178 72.4851 82.9833 72.454 83.0615 72.4241C83.1386 72.3954 83.2248 72.3678 83.3203 72.3459C83.4157 72.3229 83.5169 72.3114 83.6261 72.3114ZM123.771 72.3114C123.983 72.3114 124.155 72.3413 124.291 72.4034C124.424 72.4655 124.528 72.5518 124.605 72.6644C124.68 72.7771 124.731 72.9105 124.758 73.0669C124.784 73.2222 124.797 73.3912 124.797 73.5729V75.1172H124.306V73.6787C124.306 73.5177 124.298 73.3785 124.282 73.2624C124.266 73.1451 124.236 73.0485 124.192 72.9715C124.148 72.8944 124.087 72.8358 124.013 72.8001C123.937 72.7633 123.838 72.7438 123.718 72.7438C123.554 72.7438 123.417 72.7656 123.31 72.8105C123.202 72.8542 123.13 72.8944 123.089 72.9289C123.118 73.0209 123.14 73.121 123.154 73.2314C123.168 73.3406 123.174 73.4533 123.174 73.5729V75.1172H122.682V73.6787C122.682 73.5177 122.674 73.3785 122.656 73.2624C122.639 73.1451 122.609 73.0485 122.565 72.9715C122.521 72.8944 122.46 72.8358 122.384 72.8001C122.309 72.7633 122.213 72.7438 122.096 72.7438C122.047 72.7438 121.995 72.7461 121.937 72.7495C121.882 72.753 121.828 72.7576 121.777 72.7633C121.727 72.7679 121.68 72.7737 121.637 72.7806C121.594 72.7886 121.566 72.7932 121.552 72.7967V75.1172H121.061V72.4483C121.174 72.4195 121.322 72.3896 121.507 72.3586C121.692 72.3264 121.906 72.3114 122.15 72.3114C122.325 72.3114 122.473 72.3356 122.593 72.3816C122.712 72.4299 122.813 72.4989 122.894 72.5909C122.919 72.5736 122.958 72.5483 123.011 72.5173C123.063 72.4851 123.13 72.454 123.207 72.4241C123.284 72.3954 123.37 72.3678 123.465 72.3459C123.561 72.3229 123.663 72.3114 123.771 72.3114ZM132.18 72.3114C132.398 72.3114 132.58 72.3413 132.724 72.4034C132.869 72.4655 132.985 72.5506 133.071 72.6621C133.157 72.7725 133.218 72.9059 133.253 73.0612C133.288 73.2164 133.306 73.3877 133.306 73.5729V75.1172H132.815V73.6787C132.815 73.5119 132.803 73.3659 132.78 73.2463C132.757 73.1267 132.719 73.029 132.667 72.9554C132.613 72.8818 132.543 72.8277 132.456 72.7944C132.367 72.761 132.257 72.7438 132.127 72.7438C132.074 72.7438 132.019 72.7461 131.964 72.7495C131.907 72.753 131.853 72.7576 131.803 72.7633C131.752 72.7679 131.706 72.7737 131.665 72.7806C131.624 72.7886 131.596 72.7932 131.578 72.7967V75.1172H131.086V72.4483C131.199 72.4195 131.348 72.3896 131.536 72.3586C131.722 72.3264 131.936 72.3114 132.18 72.3114ZM100.972 72.3114C101.19 72.3114 101.372 72.3413 101.516 72.4034C101.661 72.4655 101.777 72.5506 101.863 72.6621C101.949 72.7725 102.01 72.9059 102.045 73.0612C102.081 73.2164 102.098 73.3877 102.098 73.5729V75.1172H101.607V73.6787C101.607 73.5119 101.594 73.3659 101.572 73.2463C101.549 73.1267 101.511 73.029 101.46 72.9554C101.406 72.8818 101.335 72.8277 101.247 72.7944C101.159 72.761 101.049 72.7438 100.919 72.7438C100.866 72.7438 100.812 72.7461 100.755 72.7495C100.698 72.753 100.645 72.7576 100.595 72.7633C100.544 72.7679 100.497 72.7737 100.457 72.7806C100.417 72.7886 100.388 72.7932 100.369 72.7967V75.1172H99.8784V72.4483C99.9911 72.4195 100.141 72.3896 100.328 72.3586C100.514 72.3264 100.728 72.3114 100.972 72.3114ZM129.464 73.8433C129.39 73.8433 129.312 73.8491 129.228 73.8594C129.145 73.8698 129.071 73.8916 129.002 73.925C128.933 73.9595 128.875 74.0043 128.829 74.063C128.784 74.1205 128.761 74.1975 128.761 74.293C128.761 74.4689 128.818 74.5908 128.93 74.6598C129.043 74.7288 129.195 74.7633 129.39 74.7633C129.505 74.7633 129.609 74.761 129.698 74.7552C129.789 74.7495 129.864 74.7403 129.923 74.7265V73.9066C129.888 73.8893 129.831 73.8732 129.751 73.8617C129.672 73.8502 129.575 73.8433 129.464 73.8433ZM106.912 72.7336C106.673 72.7336 106.483 72.8244 106.344 73.0061C106.205 73.1866 106.135 73.4327 106.135 73.7432C106.135 74.0537 106.205 74.2986 106.344 74.4791C106.483 74.662 106.673 74.7528 106.912 74.7528C107.152 74.7528 107.341 74.662 107.48 74.4791C107.62 74.2986 107.69 74.0537 107.69 73.7432C107.69 73.4327 107.62 73.1866 107.48 73.0061C107.341 72.8244 107.152 72.7336 106.912 72.7336ZM94.1232 72.7336C93.8828 72.7336 93.6931 72.8244 93.5551 73.0061C93.4148 73.1866 93.3447 73.4327 93.3447 73.7432C93.3447 74.0537 93.4148 74.2986 93.5551 74.4791C93.6931 74.662 93.8828 74.7528 94.1232 74.7528C94.3624 74.7528 94.5509 74.662 94.6901 74.4791C94.8292 74.2986 94.8994 74.0537 94.8994 73.7432C94.8994 73.4327 94.8292 73.1866 94.6901 73.0061C94.5509 72.8244 94.3624 72.7336 94.1232 72.7336ZM119.211 72.7336C118.972 72.7336 118.782 72.8244 118.643 73.0061C118.504 73.1866 118.434 73.4327 118.434 73.7432C118.434 74.0537 118.504 74.2986 118.643 74.4791C118.782 74.662 118.972 74.7528 119.211 74.7528C119.45 74.7528 119.639 74.662 119.779 74.4791C119.918 74.2986 119.988 74.0537 119.988 73.7432C119.988 73.4327 119.918 73.1866 119.779 73.0061C119.639 72.8244 119.45 72.7336 119.211 72.7336ZM109.898 72.7336C109.659 72.7336 109.468 72.8244 109.33 73.0061C109.191 73.1866 109.121 73.4327 109.121 73.7432C109.121 74.0537 109.191 74.2986 109.33 74.4791C109.468 74.662 109.659 74.7528 109.898 74.7528C110.138 74.7528 110.327 74.662 110.466 74.4791C110.606 74.2986 110.676 74.0537 110.676 73.7432C110.676 73.4327 110.606 73.1866 110.466 73.0061C110.327 72.8244 110.138 72.7336 109.898 72.7336ZM67.297 72.7336C67.0567 72.7336 66.867 72.8244 66.7278 73.0061C66.5887 73.1866 66.5185 73.4327 66.5185 73.7432C66.5185 74.0537 66.5887 74.2986 66.7278 74.4791C66.867 74.662 67.0567 74.7528 67.297 74.7528C67.5351 74.7528 67.7248 74.662 67.864 74.4791C68.0031 74.2986 68.0732 74.0537 68.0732 73.7432C68.0732 73.4327 68.0031 73.1866 67.864 73.0061C67.7248 72.8244 67.5351 72.7336 67.297 72.7336ZM79.0654 72.7336C78.8263 72.7336 78.6365 72.8244 78.4985 73.0061C78.3582 73.1866 78.2881 73.4327 78.2881 73.7432C78.2881 74.0537 78.3582 74.2986 78.4985 74.4791C78.6365 74.662 78.8263 74.7528 79.0654 74.7528C79.3058 74.7528 79.4944 74.662 79.6335 74.4791C79.7726 74.2986 79.8428 74.0537 79.8428 73.7432C79.8428 73.4327 79.7726 73.1866 79.6335 73.0061C79.4944 72.8244 79.3058 72.7336 79.0654 72.7336ZM126.514 72.7487C126.367 72.7487 126.252 72.7545 126.169 72.7648C126.086 72.7763 126.019 72.789 125.971 72.8016V74.5346C126.03 74.5852 126.116 74.6335 126.23 74.6783C126.342 74.7243 126.465 74.7473 126.6 74.7473C126.74 74.7473 126.861 74.722 126.961 74.6714C127.062 74.6197 127.144 74.5484 127.208 74.4598C127.27 74.3701 127.316 74.2643 127.345 74.1424C127.373 74.0206 127.387 73.8895 127.387 73.748C127.387 73.4272 127.307 73.1823 127.149 73.0086C126.991 72.835 126.778 72.7487 126.514 72.7487ZM112.895 72.7385C112.755 72.7385 112.634 72.7649 112.534 72.8155C112.434 72.8661 112.35 72.9374 112.287 73.0271C112.223 73.1157 112.179 73.2238 112.15 73.3468C112.122 73.4699 112.109 73.6032 112.109 73.7435C112.109 74.0644 112.187 74.3104 112.347 74.4852C112.504 74.66 112.716 74.7463 112.98 74.7463C113.114 74.7463 113.226 74.7417 113.315 74.7279C113.406 74.7164 113.475 74.7037 113.524 74.6888V72.9501C113.464 72.9018 113.378 72.8523 113.265 72.8086C113.153 72.7615 113.028 72.7385 112.895 72.7385ZM89.3403 72.7437C89.0758 72.7437 88.8723 72.8299 88.7297 73.0024C88.586 73.1749 88.5158 73.4049 88.5158 73.6912C88.5158 73.8499 88.5365 73.9844 88.5768 74.0971C88.617 74.2098 88.6711 74.303 88.7401 74.3766C88.8091 74.4513 88.8873 74.5065 88.9781 74.541C89.0678 74.5767 89.1609 74.5939 89.2552 74.5939C89.3863 74.5939 89.5048 74.5755 89.6152 74.5376C89.7232 74.5008 89.8106 74.4582 89.8739 74.4088V72.8023C89.8244 72.7885 89.7589 72.7747 89.6761 72.7632C89.5933 72.7506 89.4806 72.7437 89.3403 72.7437ZM86.4278 72.7183C86.3151 72.7183 86.2151 72.7401 86.1288 72.7838C86.0437 72.8287 85.9701 72.885 85.9103 72.9551C85.8494 73.0264 85.8034 73.1069 85.77 73.1989C85.7367 73.2898 85.7149 73.3829 85.7034 73.4784H87.0672C87.0706 73.2564 87.0154 73.0747 86.9016 72.9321C86.7866 72.7884 86.629 72.7183 86.4278 72.7183Z" fill="black"/>
<path d="M36.7131 61.1394C37.2766 61.1394 37.8113 61.182 38.3184 61.2682C38.8243 61.3533 39.2544 61.4442 39.6086 61.5408V68.0332C39.6086 69.228 39.305 70.1019 38.6979 70.6573C38.0918 71.2104 37.1616 71.4876 35.9104 71.4876C35.4516 71.4876 35.0043 71.4485 34.5696 71.3737C34.135 71.2955 33.7405 71.1955 33.3864 71.0713L33.7038 69.5948C33.9981 69.7201 34.3362 69.8202 34.7134 69.8961C35.0906 69.972 35.4999 70.0122 35.938 70.0122C36.636 70.0122 37.134 69.8685 37.4295 69.581C37.725 69.2947 37.8734 68.8704 37.8734 68.3057V68.0183C37.702 68.1045 37.4743 68.1908 37.1938 68.2758C36.9109 68.3632 36.5889 68.4058 36.2255 68.4058C35.7483 68.4058 35.3102 68.3299 34.9135 68.177C34.5179 68.024 34.1787 67.7986 33.8969 67.5031C33.6141 67.2064 33.3944 66.8373 33.2369 66.3923C33.0793 65.9484 33 65.4344 33 64.8514C33 64.3063 33.0839 63.805 33.2518 63.3473C33.4186 62.8873 33.6624 62.4952 33.982 62.1709C34.3029 61.8455 34.6915 61.5937 35.1504 61.4108C35.6092 61.2303 36.1301 61.1394 36.7131 61.1394ZM52.8525 61.1103C53.378 61.1103 53.8632 61.2035 54.3071 61.3898C54.751 61.5761 55.1316 61.8405 55.4467 62.1855C55.7629 62.5293 56.0078 62.9422 56.1849 63.4251C56.362 63.907 56.4506 64.4451 56.4506 65.0373C56.4506 65.6307 56.3643 66.17 56.1918 66.6576C56.0205 67.1451 55.7767 67.5602 55.4616 67.9041C55.1454 68.2479 54.7659 68.5158 54.322 68.7067C53.877 68.8988 53.3872 68.993 52.8525 68.993C52.3166 68.993 51.829 68.8988 51.3898 68.7067C50.9505 68.5158 50.5733 68.2479 50.2582 67.9041C49.942 67.5602 49.6959 67.1451 49.52 66.6576C49.3429 66.17 49.2543 65.6307 49.2543 65.0373C49.2543 64.4451 49.3429 63.907 49.52 63.4251C49.6959 62.9422 49.9455 62.5293 50.2651 62.1855C50.5848 61.8405 50.9643 61.5761 51.4047 61.3898C51.844 61.2035 52.3269 61.1103 52.8525 61.1103ZM44.6394 61.1103C45.1649 61.1103 45.6502 61.2035 46.094 61.3898C46.5379 61.5761 46.9185 61.8405 47.2336 62.1855C47.5498 62.5293 47.7948 62.9422 47.9707 63.4251C48.1478 63.907 48.2375 64.4451 48.2375 65.0373C48.2375 65.6307 48.1512 66.17 47.9787 66.6576C47.8074 67.1451 47.5636 67.5602 47.2485 67.9041C46.9323 68.2479 46.5528 68.5158 46.109 68.7067C45.664 68.8988 45.1741 68.993 44.6394 68.993C44.1035 68.993 43.6159 68.8988 43.1778 68.7067C42.7386 68.5158 42.3602 68.2479 42.0452 67.9041C41.7301 67.5602 41.4828 67.1451 41.3069 66.6576C41.1298 66.17 41.0413 65.6307 41.0413 65.0373C41.0413 64.4451 41.1298 63.907 41.3069 63.4251C41.4828 62.9422 41.7324 62.5293 42.0521 62.1855C42.3717 61.8405 42.7512 61.5761 43.1916 61.3898C43.6309 61.2035 44.1139 61.1103 44.6394 61.1103ZM127.917 61.1095C128.949 61.1095 129.753 61.4304 130.331 62.0709C130.909 62.7114 131.199 63.667 131.199 64.9376C131.199 65.0331 131.197 65.14 131.192 65.2596C131.186 65.3803 131.179 65.4873 131.169 65.5827H126.226C126.273 66.1853 126.485 66.6499 126.863 66.9799C127.241 67.3099 127.787 67.4744 128.505 67.4744C128.924 67.4744 129.31 67.4376 129.658 67.3594C130.006 67.2835 130.281 67.2018 130.483 67.1156L130.713 68.5357C130.616 68.5829 130.485 68.6335 130.318 68.6864C130.15 68.7381 129.959 68.7864 129.743 68.829C129.529 68.8727 129.297 68.9072 129.049 68.9359C128.8 68.9647 128.547 68.9796 128.288 68.9796C127.63 68.9796 127.056 68.8807 126.569 68.6864C126.082 68.4897 125.68 68.2172 125.365 67.8688C125.048 67.5203 124.816 67.1098 124.662 66.6361C124.51 66.1623 124.434 65.6437 124.434 65.0814C124.434 64.4213 124.531 63.8441 124.727 63.3461C124.923 62.8494 125.183 62.4354 125.509 62.1065C125.833 61.7765 126.206 61.5281 126.627 61.3614C127.047 61.1935 127.477 61.1095 127.917 61.1095ZM108.008 61.1095C109.039 61.1095 109.844 61.4304 110.423 62.0709C111 62.7114 111.291 63.667 111.291 64.9376C111.291 65.0331 111.287 65.14 111.283 65.2596C111.277 65.3803 111.27 65.4873 111.26 65.5827H106.316C106.363 66.1853 106.577 66.6499 106.953 66.9799C107.333 67.3099 107.878 67.4744 108.595 67.4744C109.015 67.4744 109.4 67.4376 109.749 67.3594C110.098 67.2835 110.372 67.2018 110.573 67.1156L110.803 68.5357C110.707 68.5829 110.575 68.6335 110.409 68.6864C110.241 68.7381 110.05 68.7864 109.834 68.829C109.62 68.8727 109.389 68.9072 109.139 68.9359C108.892 68.9647 108.639 68.9796 108.38 68.9796C107.72 68.9796 107.148 68.8807 106.66 68.6864C106.172 68.4897 105.771 68.2172 105.456 67.8688C105.14 67.5203 104.905 67.1098 104.753 66.6361C104.6 66.1623 104.525 65.6437 104.525 65.0814C104.525 64.4213 104.622 63.8441 104.819 63.3461C105.013 62.8494 105.274 62.4354 105.6 62.1065C105.924 61.7765 106.297 61.5281 106.719 61.3614C107.138 61.1935 107.567 61.1095 108.008 61.1095ZM123 57.6696V68.5639C122.656 68.6685 122.223 68.764 121.703 68.8502C121.182 68.9353 120.635 68.979 120.062 68.979C119.469 68.979 118.939 68.8882 118.471 68.7065C118.002 68.5259 117.604 68.2649 117.274 67.9268C116.944 67.5865 116.691 67.1759 116.515 66.693C116.337 66.21 116.248 65.6684 116.248 65.067C116.248 64.4736 116.323 63.9366 116.472 63.4537C116.619 62.9718 116.836 62.5579 117.124 62.214C117.41 61.8702 117.758 61.6046 118.17 61.4183C118.58 61.232 119.053 61.1389 119.588 61.1389C119.951 61.1389 120.272 61.1814 120.549 61.2688C120.826 61.3527 121.064 61.4493 121.266 61.5551V57.957L123 57.6696ZM64.2186 57.6696V68.5639C63.8748 68.6685 63.4424 68.764 62.9215 68.8502C62.4006 68.9353 61.8532 68.979 61.2806 68.979C60.6884 68.979 60.1582 68.8882 59.6891 68.7065C59.2211 68.5259 58.822 68.2649 58.492 67.9268C58.1631 67.5865 57.9101 67.1759 57.7331 66.693C57.556 66.21 57.4674 65.6684 57.4674 65.067C57.4674 64.4736 57.541 63.9366 57.6905 63.4537C57.8377 62.9718 58.055 62.5579 58.3414 62.214C58.6288 61.8702 58.9773 61.6046 59.3889 61.4183C59.7995 61.232 60.2721 61.1389 60.8068 61.1389C61.1702 61.1389 61.491 61.1814 61.7681 61.2688C62.0453 61.3527 62.2844 61.4493 62.4845 61.5551V57.957L64.2186 57.6696ZM80.6016 61.1101C81.1754 61.1101 81.6584 61.1826 82.0494 61.3252C82.4415 61.4689 82.7543 61.669 82.9877 61.9277C83.2223 62.1853 83.3902 62.4981 83.4902 62.866C83.5903 63.234 83.6409 63.6376 83.6409 64.0769V68.6214C83.3729 68.6789 82.9693 68.749 82.43 68.8284C81.8895 68.91 81.2801 68.9503 80.6016 68.9503C80.152 68.9503 79.7415 68.9077 79.3689 68.8226C78.9975 68.7352 78.679 68.5972 78.4156 68.4064C78.1534 68.2143 77.9488 67.9671 77.7993 67.6612C77.6509 67.3542 77.5773 66.977 77.5773 66.5285C77.5773 66.0973 77.6613 65.7351 77.828 65.4396C77.9948 65.1429 78.2224 64.9014 78.5099 64.7151C78.7963 64.5288 79.1274 64.3954 79.5046 64.3126C79.8829 64.2333 80.2774 64.1919 80.6879 64.1919C80.8788 64.1919 81.08 64.2034 81.2904 64.2275C81.5009 64.2517 81.7251 64.2919 81.9643 64.3494V64.0631C81.9643 63.863 81.939 63.6698 81.8918 63.4893C81.8447 63.3076 81.7607 63.1489 81.6412 63.0086C81.5216 62.8718 81.364 62.7649 81.1674 62.6878C80.9731 62.6108 80.727 62.5728 80.4291 62.5728C80.029 62.5728 79.661 62.6016 79.3275 62.6579C78.9917 62.7154 78.7204 62.7821 78.5099 62.858L78.2949 61.4539C78.5145 61.378 78.8342 61.3022 79.2539 61.2251C79.6748 61.1481 80.1244 61.1101 80.6016 61.1101ZM114.471 57.6704V66.2568C114.471 66.4661 114.488 66.6432 114.521 66.7869C114.555 66.9295 114.614 67.0514 114.702 67.1515C114.787 67.2526 114.904 67.3285 115.051 67.3814C115.2 67.4343 115.389 67.4757 115.618 67.5033L115.375 68.9361C114.858 68.9269 114.432 68.8694 114.091 68.7636C113.752 68.659 113.483 68.5095 113.282 68.3129C113.082 68.1162 112.94 67.8725 112.858 67.5827C112.778 67.2906 112.737 66.9571 112.737 66.5868V57.9567L114.471 57.6704ZM98.6331 57.6705C98.9964 57.6705 99.3046 57.6982 99.5576 57.7557C99.8106 57.8132 100.01 57.8718 100.153 57.9282L99.8807 59.3322C99.7473 59.285 99.5863 59.2413 99.4001 59.2034C99.2138 59.1666 99.0102 59.147 98.7906 59.147C98.2179 59.147 97.8235 59.3 97.6096 59.6047C97.3934 59.9117 97.2865 60.3073 97.2865 60.7949V61.2962H100.038V62.744H97.2865V68.7937H95.5513V60.7673C95.5513 59.7922 95.8043 59.0321 96.3114 58.487C96.8185 57.9419 97.5924 57.6705 98.6331 57.6705ZM103.076 61.2974V68.7938H101.341V61.2974H103.076ZM88.4858 61.139C89.0976 61.139 89.6082 61.2229 90.0198 61.3897C90.4303 61.5576 90.7581 61.791 91.0019 62.0923C91.2445 62.3935 91.417 62.7569 91.517 63.1812C91.6171 63.6067 91.6665 64.0736 91.6665 64.5795V68.7929H89.9336V64.8509C89.9336 64.4508 89.9071 64.1081 89.8542 63.8263C89.8025 63.5446 89.7162 63.3158 89.5967 63.1387C89.4759 62.9616 89.3149 62.8328 89.1091 62.7512C88.9032 62.6707 88.6526 62.6304 88.357 62.6304C88.1374 62.6304 87.9074 62.6442 87.6694 62.6718C87.4291 62.7006 87.2531 62.7247 87.1393 62.7443V68.7929H85.404V61.5403C85.7387 61.4449 86.1733 61.3529 86.7081 61.2678C87.2428 61.1827 87.835 61.139 88.4858 61.139ZM73.4497 61.1394C74.0327 61.1394 74.5122 61.2234 74.8894 61.3901C75.2677 61.5569 75.5632 61.7914 75.7783 62.0916C75.9945 62.3929 76.1417 62.7562 76.2233 63.1817C76.3038 63.6072 76.3452 64.0717 76.3452 64.5789V68.7933H74.61V64.8514C74.61 64.0683 74.5145 63.5002 74.3248 63.153C74.1327 62.8045 73.7648 62.6297 73.2197 62.6297C72.9426 62.6297 72.6804 62.6757 72.432 62.7654C72.1836 62.8563 71.9973 62.946 71.8732 63.0311C71.9502 63.2702 72.0008 63.5232 72.0307 63.7912C72.0594 64.0579 72.0744 64.3454 72.0744 64.6502V68.7933H70.3392V64.8514C70.3392 64.0683 70.2414 63.5002 70.0448 63.153C69.8493 62.8045 69.4836 62.6297 68.9489 62.6297C68.758 62.6297 68.5476 62.6435 68.3176 62.6723C68.0888 62.701 67.9163 62.7252 67.8024 62.7447V68.7933H66.0672V61.5408C66.4018 61.4442 66.84 61.3533 67.3793 61.2682C67.9186 61.182 68.4901 61.1394 69.0915 61.1394C69.6078 61.1394 70.031 61.2061 70.361 61.3395C70.6899 61.4741 70.9647 61.6512 71.1855 61.8696C71.289 61.7937 71.4235 61.7121 71.5868 61.6259C71.749 61.5408 71.9307 61.4603 72.1307 61.3901C72.3308 61.3177 72.5447 61.2579 72.7689 61.2096C72.9932 61.1624 73.2197 61.1394 73.4497 61.1394ZM135.599 61.1386C135.713 61.1386 135.848 61.1467 136.001 61.1605C136.153 61.1743 136.307 61.1938 136.46 61.218C136.612 61.241 136.76 61.2709 136.904 61.3042C137.046 61.3376 137.161 61.3675 137.247 61.3974L136.946 62.8589C136.804 62.8106 136.605 62.76 136.352 62.7083C136.099 62.6565 135.804 62.6301 135.47 62.6301C135.279 62.6301 135.075 62.6496 134.86 62.6864C134.646 62.7244 134.495 62.7589 134.409 62.7876V68.7925H132.675V61.6549C133.009 61.5308 133.427 61.4135 133.929 61.3042C134.43 61.1938 134.988 61.1386 135.599 61.1386ZM80.9455 65.4396C80.7546 65.4396 80.5614 65.4534 80.3659 65.4821C80.1693 65.5109 79.9922 65.5626 79.8346 65.6397C79.6782 65.7167 79.5518 65.8236 79.4552 65.9628C79.3609 66.1008 79.3114 66.2744 79.3114 66.4848C79.3114 66.8965 79.4414 67.1805 79.6989 67.3381C79.9565 67.4956 80.3061 67.575 80.7454 67.575C81.2801 67.575 81.686 67.5462 81.9643 67.4887V65.5684C81.8688 65.5396 81.7297 65.5109 81.548 65.4821C81.3663 65.4534 81.1651 65.4396 80.9455 65.4396ZM52.8525 62.6144C52.2786 62.6144 51.8325 62.8329 51.5116 63.2676C51.192 63.7023 51.031 64.2922 51.031 65.0373C51.031 65.7928 51.192 66.3896 51.5116 66.8289C51.8325 67.2693 52.2786 67.489 52.8525 67.489C53.4251 67.489 53.8724 67.2693 54.1933 66.8289C54.5129 66.3896 54.6728 65.7928 54.6728 65.0373C54.6728 64.2922 54.5129 63.7023 54.1933 63.2676C53.8724 62.8329 53.4251 62.6144 52.8525 62.6144ZM44.6394 62.6144C44.0656 62.6144 43.6194 62.8329 43.2986 63.2676C42.9789 63.7023 42.8191 64.2922 42.8191 65.0373C42.8191 65.7928 42.9789 66.3896 43.2986 66.8289C43.6194 67.2693 44.0656 67.489 44.6394 67.489C45.212 67.489 45.6594 67.2693 45.979 66.8289C46.2999 66.3896 46.4597 65.7928 46.4597 65.0373C46.4597 64.2922 46.2999 63.7023 45.979 63.2676C45.6594 62.8329 45.212 62.6144 44.6394 62.6144ZM61.0655 62.6292C60.4354 62.6292 59.9743 62.8442 59.6822 63.2754C59.3901 63.7043 59.2452 64.2873 59.2452 65.0233C59.2452 65.788 59.4269 66.3871 59.7903 66.8218C60.1525 67.2564 60.6539 67.4749 61.2944 67.4749C61.5715 67.4749 61.8084 67.4634 62.0039 67.4381C62.2005 67.414 62.3603 67.3887 62.4845 67.3588V63.0592C62.3316 62.9546 62.1292 62.8568 61.8751 62.766C61.6221 62.6752 61.3519 62.6292 61.0655 62.6292ZM119.848 62.6292C119.216 62.6292 118.755 62.8442 118.463 63.2754C118.171 63.7043 118.026 64.2873 118.026 65.0233C118.026 65.788 118.208 66.3871 118.571 66.8218C118.935 67.2564 119.435 67.4749 120.075 67.4749C120.353 67.4749 120.589 67.4634 120.786 67.4381C120.982 67.414 121.141 67.3887 121.266 67.3588V63.0592C121.113 62.9546 120.909 62.8568 120.656 62.766C120.403 62.6752 120.134 62.6292 119.848 62.6292ZM36.7269 62.586C36.0967 62.586 35.6138 62.7942 35.2791 63.2104C34.9445 63.6267 34.7778 64.1729 34.7778 64.8514C34.7778 65.5873 34.9376 66.1255 35.2584 66.4636C35.5781 66.8028 35.9921 66.973 36.4981 66.973C36.7752 66.973 37.0351 66.9339 37.2789 66.8568C37.5226 66.7821 37.7216 66.6913 37.8734 66.5866V62.701C37.7492 62.6723 37.5974 62.6458 37.4157 62.6228C37.234 62.5987 37.004 62.586 36.7269 62.586ZM108.021 62.5584C107.754 62.5584 107.52 62.6079 107.32 62.7091C107.12 62.8091 106.949 62.9402 106.811 63.1024C106.671 63.2656 106.563 63.4508 106.489 63.6612C106.412 63.8717 106.359 64.0878 106.331 64.3063H109.555C109.555 64.0671 109.522 63.8406 109.454 63.6267C109.389 63.4105 109.29 63.2242 109.161 63.0667C109.032 62.9092 108.875 62.785 108.688 62.6953C108.502 62.6044 108.28 62.5584 108.021 62.5584ZM127.931 62.5584C127.663 62.5584 127.429 62.6079 127.228 62.7091C127.028 62.8091 126.858 62.9402 126.72 63.1024C126.581 63.2656 126.473 63.4508 126.398 63.6612C126.321 63.8717 126.267 64.0878 126.239 64.3063H129.465C129.465 64.0671 129.43 63.8406 129.364 63.6267C129.297 63.4105 129.199 63.2242 129.07 63.0667C128.942 62.9092 128.783 62.785 128.598 62.6953C128.412 62.6044 128.19 62.5584 127.931 62.5584ZM102.216 58.0282C102.504 58.0282 102.751 58.1248 102.963 58.3157C103.172 58.5066 103.278 58.7688 103.278 59.1034C103.278 59.4277 103.172 59.6864 102.963 59.8784C102.751 60.0693 102.504 60.1636 102.216 60.1636C101.921 60.1636 101.668 60.0693 101.457 59.8784C101.247 59.6864 101.142 59.4277 101.142 59.1034C101.142 58.7688 101.247 58.5066 101.457 58.3157C101.668 58.1248 101.921 58.0282 102.216 58.0282Z" fill="black"/>
<path d="M145.13 75.0713C144.783 75.7221 144.612 76.1671 144.639 76.9778C144.751 80.3494 148.083 81.5844 152.115 81.4614C157.147 81.3073 159.175 79.5514 159.106 77.2653C159.01 74.1145 153.6 73.7086 151.383 73.6431C149.71 73.5936 148.361 73.4982 147.225 73.3096C146.184 73.7362 145.714 74.2284 145.13 75.0713ZM174.899 41.3798C174.899 41.3798 171.632 41.3499 171.653 41.3924C171.588 39.6261 169.887 37.4459 166.844 37.8886C164.058 38.2945 162.469 41.5741 162.428 45.6563C162.419 46.6533 162.355 47.5893 162.346 47.8297H168.538L168.43 50.693H162.363C162.324 51.4646 162.327 53.2538 162.194 54.9465C161.98 57.6534 161.311 59.6186 159.858 61.4079C158.415 63.1834 154.821 66.4618 147.467 64.8623H147.456C146.822 65.3119 146.43 65.8616 146.527 66.9597C146.676 68.6444 149.44 68.5064 155.64 68.9399C159.843 69.2331 163.885 71.7848 163.867 76.005C163.842 81.4211 158.721 84.8099 151.15 84.8099C141.458 84.8099 138.658 81.0439 139.078 77.033C139.292 74.9758 141.331 72.8703 143.574 71.9561C143.288 71.7595 143.011 71.541 142.741 71.2972C141.92 70.536 141.378 69.3631 141.447 68.0476C141.542 66.2238 143.237 64.6909 144.996 63.8515L144.461 63.5295C144.133 63.2938 143.439 62.7844 143.117 62.4474C141.802 61.0146 141.032 59.1046 140.971 57.075C140.879 54.0783 142.597 51.5313 144.416 50.1812C147.293 48.0481 150.545 47.8607 154.104 47.8251L154.021 50.5791C152.659 50.647 150.024 50.8367 148.658 52.4696C147.642 53.6816 147.101 55.1661 147.008 56.7392C146.752 61.0595 149.319 62.4957 151.524 62.4773C154.509 62.4509 156.255 59.7463 156.405 56.5713C156.407 56.5426 156.629 47.7538 156.629 47.7538C156.629 46.7706 156.704 46.5831 156.732 45.6092C156.818 42.4699 157.861 39.472 160.285 37.4286C162.093 35.905 164.174 35.0943 167.056 35.0492C169.098 35.0368 170.748 35.5658 172.626 37.0837C174.618 38.6947 174.899 41.3798 174.899 41.3798ZM141.63 35C148.634 35 154.102 40.6427 154.102 46.1565C148.491 46.1565 142.089 41.205 141.63 35Z" fill="black"/>
</svg>
