<svg width="207" height="120" viewBox="0 0 207 120" fill="none" xmlns="http://www.w3.org/2000/svg">
<path d="M93.2872 87.3453V81.2267L90.8756 81.3293V81.6372L90.9911 81.65C92.0429 81.7398 92.0429 81.8681 92.0429 82.1887V87.3453C92.0429 87.6789 91.9018 87.7815 90.9911 87.7943H90.8628V88.1278H94.3647V87.8071H94.2364C93.4411 87.7686 93.2872 87.6917 93.2872 87.3453Z" fill="black"/>
<path d="M92.5817 80.0593C93.0307 80.0593 93.4026 79.6745 93.4026 79.2127C93.4026 78.7381 93.0307 78.3661 92.5817 78.3661C92.1327 78.3661 91.7607 78.7509 91.7607 79.2127C91.7607 79.6745 92.1327 80.0593 92.5817 80.0593Z" fill="black"/>
<path d="M101.137 87.3453V83.2918C101.137 81.9321 100.457 81.1625 99.2645 81.1625C98.1741 81.1625 97.3532 82.0347 96.9042 82.6505V81.2266L94.5055 81.3292V81.6371L94.6209 81.6499C95.6728 81.7397 95.6728 81.868 95.6728 82.1887V87.3453C95.6728 87.6788 95.5317 87.7814 94.6209 87.7942H94.4927V88.1277H97.9304V87.807H97.8021C96.994 87.7814 96.9042 87.6916 96.9042 87.3581V83.3816C97.3532 82.535 98.0972 81.9706 98.7385 81.9706C99.5082 81.9706 99.8802 82.4837 99.8802 83.5355V87.3581C99.8802 87.6916 99.7904 87.7814 98.9694 87.807H98.8412V88.1277H102.189V87.807H102.061C101.266 87.7686 101.137 87.666 101.137 87.3453Z" fill="black"/>
<path d="M109.27 81.6244V81.3165H106.884V81.6116L107 81.6244C107.705 81.7142 107.769 81.8809 107.769 82.0477C107.769 82.1888 107.692 82.394 107.602 82.6249L105.922 86.6784L104.255 82.3684C104.19 82.2016 104.152 82.0477 104.152 81.9835C104.152 81.8424 104.229 81.6885 105.075 81.6372H105.191V81.3294H101.728V81.65H101.843C102.664 81.7013 102.754 81.8553 103.036 82.5736L105.396 88.3587H105.64L107.974 82.843C108.423 81.7911 108.462 81.7527 109.167 81.65L109.27 81.6244Z" fill="black"/>
<path d="M114.747 86.2678C114.054 87.2426 113.336 87.6916 112.515 87.6916C111.194 87.6916 110.373 86.5628 110.373 84.7413C110.373 84.613 110.373 84.4848 110.373 84.3693H115.055V84.2539C115.106 83.3688 114.837 82.5607 114.285 81.9834C113.785 81.4447 113.079 81.1625 112.284 81.1625C110.54 81.1625 109.064 82.8557 109.064 84.8439C109.064 86.8707 110.373 88.2817 112.246 88.2817C113.323 88.2817 114.298 87.666 115.055 86.4858L115.119 86.3832L114.811 86.1651L114.747 86.2678ZM110.411 83.946C110.578 82.4196 111.245 81.5345 112.258 81.5345C112.682 81.5345 113.015 81.6627 113.259 81.9193C113.631 82.3041 113.823 83.0096 113.798 83.9332H110.411V83.946Z" fill="black"/>
<path d="M118.762 84.0359C117.415 83.6254 117.018 83.3304 117.018 82.689C117.018 81.9964 117.544 81.5474 118.364 81.5474C119.147 81.5474 119.519 81.804 120.289 83.4459L120.327 83.5228H120.584V81.1754H120.327L119.942 81.5602C119.429 81.3037 118.903 81.1754 118.39 81.1754C117.287 81.1754 116.068 82.0733 116.068 83.2919C116.068 84.3694 116.838 84.7927 118.262 85.216C119.788 85.6778 119.955 86.0113 119.955 86.6784C119.955 87.448 119.429 87.9226 118.583 87.9226C117.467 87.9226 117.133 87.4865 116.312 85.7804L116.274 85.7035H116.017V88.2818H116.274L116.748 87.8072C117.351 88.1278 117.954 88.2818 118.544 88.2818C119.686 88.2818 120.917 87.4095 120.917 86.1011C120.891 85.1006 120.25 84.4849 118.762 84.0359Z" fill="black"/>
<path d="M125.791 86.6525C125.342 87.3708 124.996 87.653 124.573 87.653C124.021 87.653 123.701 87.2041 123.701 86.4344V81.7396H125.868V81.3291H123.701V78.7893L122.456 79.3922V81.2906L121.109 81.3548V81.7396H122.456V86.3831C122.456 87.5761 123.085 88.2944 124.137 88.2944C124.932 88.2944 125.535 87.8454 126.086 86.8449L126.151 86.7423L125.868 86.5627L125.791 86.6525Z" fill="black"/>
<path d="M129.614 81.1625C127.998 81.1625 126.279 82.5991 126.279 84.7413C126.279 86.9604 127.973 88.2817 129.602 88.2817C131.218 88.2817 132.937 86.845 132.937 84.7028C132.937 82.7146 131.474 81.1625 129.614 81.1625ZM129.537 81.5345C130.859 81.5345 131.59 82.6761 131.59 84.7285C131.59 86.845 130.948 87.9097 129.666 87.9097C128.344 87.9097 127.613 86.768 127.613 84.7157C127.613 82.5991 128.268 81.5345 129.537 81.5345Z" fill="black"/>
<path d="M137.67 81.1754C136.964 81.1754 136.233 81.8424 135.784 82.5993V81.2267L133.385 81.3293V81.6372H133.501C134.553 81.727 134.553 81.8553 134.553 82.1759V87.3454C134.553 87.6789 134.412 87.7815 133.501 87.7943H133.373V88.115H137.118V87.7943H136.99C135.9 87.7815 135.784 87.6917 135.784 87.3454V83.3689C136.182 82.5864 136.669 82.022 137.157 81.8168C137.105 81.9322 137.092 82.0605 137.092 82.2016C137.092 82.6634 137.426 82.9841 137.913 82.9841C138.337 82.9841 138.696 82.5864 138.696 82.1246C138.709 81.5346 138.298 81.1754 137.67 81.1754Z" fill="black"/>
<path d="M141.967 84.0359C140.62 83.6254 140.222 83.3304 140.222 82.689C140.222 81.9964 140.748 81.5474 141.569 81.5474C142.352 81.5474 142.724 81.804 143.493 83.4459L143.532 83.5228H143.788V81.1754H143.532L143.147 81.5602C142.634 81.3037 142.108 81.1754 141.595 81.1754C140.492 81.1754 139.273 82.0733 139.273 83.2919C139.273 84.3694 140.043 84.7927 141.466 85.216C142.993 85.6778 143.16 86.0113 143.16 86.6784C143.16 87.448 142.634 87.9226 141.787 87.9226C140.671 87.9226 140.338 87.4865 139.517 85.7804L139.478 85.7035H139.222V88.2818H139.478L139.953 87.8072C140.556 88.1278 141.159 88.2818 141.749 88.2818C142.89 88.2818 144.122 87.4095 144.122 86.1011C144.096 85.1006 143.468 84.4849 141.967 84.0359Z" fill="black"/>
<path d="M78.4202 46.9776L78.959 45.233H65.7468L65.2978 47.0673H68.7227L67.7992 50.5307C67.7992 50.5564 67.7863 50.582 67.7863 50.6077L63.3609 68.0401C63.0915 69.1946 62.9376 70.1566 62.9761 71.0289C63.1043 74.1331 65.2593 75.6339 69.7489 75.4543C70.6853 75.4158 71.6089 75.3132 72.5068 75.1465C72.5196 75.1465 72.5453 75.1336 72.5581 75.1336C74.8414 74.4923 75.8932 73.1326 76.278 72.4912C73.5586 72.5553 72.4042 71.9781 72.34 70.349C72.3144 69.6563 72.4683 68.8226 72.7505 67.7964L78.4202 46.9776Z" fill="black"/>
<path d="M80.9602 34.5864C80.9602 37.2673 78.7924 39.4352 76.1114 39.4352C73.4305 39.4352 71.2627 37.2673 71.2627 34.5864C71.2627 31.9055 73.4305 29.7377 76.1114 29.7377C78.7924 29.7377 80.9602 31.9183 80.9602 34.5864Z" fill="black"/>
<path d="M141.877 68.4506L145.738 55.8413C146.238 54.2635 146.495 52.6088 146.495 51.5313C146.495 47.542 144.083 45.1946 139.837 45.1946C136.477 45.1946 132.808 46.7723 128.806 50.9028C128.678 47.4779 126.458 45.1946 122.149 45.1946C118.403 45.1946 114.349 47.2854 110.681 51.4672L110.488 51.3389L111.951 47.0674L112.143 46.5158L112.207 46.3234L112.579 45.2331H98.3537L97.9433 46.9263H102.535L101.368 51.2876L97.815 64.6409L94.7749 74.9156H104.537L110.245 52.6729C112.592 50.3897 115.132 48.9915 117.03 48.9915C118.672 48.9915 119.314 49.8766 119.314 51.403C119.314 52.3522 119.057 53.7504 118.672 55.0845L112.964 74.9284H122.405L128.421 54.0711C128.613 53.3784 128.742 52.6088 128.806 51.9161C131.025 50.0177 133.052 49.0043 134.706 49.0043C136.348 49.0043 137.054 50.0177 137.054 51.6083C137.054 52.5575 136.733 53.7633 136.361 55.0973L132.564 67.5014L132.385 68.0401C132.346 68.194 132.308 68.348 132.269 68.5019C132.244 68.6173 132.218 68.7328 132.192 68.8354C132 69.6435 131.859 70.3362 131.897 71.0546C132.026 74.1588 134.437 75.6339 138.94 75.4543C139.876 75.4159 140.799 75.3132 141.697 75.1465C141.71 75.1465 141.736 75.1465 141.749 75.1337C144.032 74.4923 145.084 73.1198 145.469 72.4912C142.749 72.5554 141.595 71.9781 141.531 70.349C141.518 70.0668 141.543 69.7718 141.582 69.4511C141.672 69.1304 141.762 68.8098 141.877 68.4506Z" fill="black"/>
<path d="M87.1042 42.5779L86.3987 45.1562L86.3859 45.1947H81.8707L81.5115 47.029H85.9369C85.6676 48.145 78.8562 76.5063 77.1245 82.3171C75.3544 88.2434 72.0706 90.8473 69.5307 90.6934C68.4532 90.6293 67.4142 89.9238 67.0166 89.3209C68.4148 88.3973 69.6077 86.6271 69.7103 84.9211C69.8899 82.1375 68.0556 80.0467 65.2079 79.8799C62.1037 79.6747 60.2052 81.7142 60.0128 84.6902C60.0128 84.8185 60 84.9596 60 85.0878V85.152C60.0128 89.2311 63.8482 91.6041 69.5179 91.9633C76.8808 92.4251 83.9359 88.5256 86.7579 79.9441C88.9129 72.9275 97.3789 37.7164 97.3789 37.7164C98.9439 31.7388 101.253 29.0579 103.78 29.1349C104.857 29.1733 105.909 29.8275 106.332 30.4176C104.973 31.3925 103.844 33.2011 103.793 34.9072C103.716 37.6907 105.614 39.7174 108.475 39.7944C111.579 39.8842 113.413 37.7805 113.503 34.8046C113.631 30.4304 109.642 28.0317 103.754 27.865H103.292C95.4805 27.8393 89.5286 33.7014 87.1042 42.5779Z" fill="black"/>
</svg>
