<svg width="207" height="120" viewBox="0 0 207 120" fill="none" xmlns="http://www.w3.org/2000/svg">
<path d="M131.791 65.3462H130.404V54.1493H131.791V65.3462ZM175 54.1493H168.261V55.4289H170.926V65.3248H172.334V55.4289H175V54.1493V54.1493ZM86.4061 54.1493V61.0807C86.4061 61.4219 86.3421 61.7632 86.1928 62.0617C86.1075 62.2324 85.9796 62.403 85.8303 62.5523C85.681 62.6802 85.5104 62.8082 85.3397 62.8935C85.1905 62.9575 85.0412 63.0215 84.8705 63.0428C84.6786 63.0855 84.4653 63.0855 84.2734 63.0855C84.0601 63.0855 83.8468 63.0641 83.6336 63.0001C83.5696 62.9788 83.4843 62.9575 83.4203 62.9148C83.3563 62.8722 83.271 62.8295 83.207 62.7869C82.9298 62.6376 82.6952 62.3603 82.5459 62.0831C82.3966 61.7845 82.3326 61.4433 82.3326 61.102V54.1493H79.6667V61.166C79.6667 61.7845 79.7733 62.3817 79.9866 62.8935C80.1999 63.4267 80.5198 63.9172 80.9463 64.3011C81.3302 64.6637 81.8634 64.9836 82.4392 65.2182C82.9724 65.4101 83.6549 65.5168 84.3587 65.5168C85.0625 65.5168 85.745 65.4101 86.2782 65.2182C86.8753 65.0049 87.3872 64.685 87.7711 64.3011C88.1976 63.9386 88.5175 63.448 88.7308 62.8935C88.9441 62.3817 89.0507 61.7845 89.0507 61.166V54.1493H86.4061ZM42.0025 54.1493H39.2726L37.5451 59.3105L35.8816 54.1493H33.2157L32 65.3462H34.6019L35.1778 58.7347L36.8413 65.3462H37.993L39.9551 58.6707L40.403 65.3462H42.9623L42.0025 54.1493ZM50.0856 54.1493H43.8367V65.3462H50.043V62.9788H46.4813V60.3982H50.0216V58.0949H46.4813V56.4953H50.0643V54.1493H50.0856ZM57.4222 62.9788H53.9245V54.1493H51.3013V65.3462H57.4222V62.9788ZM109.141 54.1493H106.411V60.1423L102.487 54.1493H99.885L99.8637 65.3462H102.487V59.3958L106.475 65.3462H109.141V54.1493ZM116.67 54.1493H110.421V65.3462H116.627V62.9788H113.087V60.3982H116.627V58.0949H113.087V56.4953H116.67V54.1493ZM67.3394 61.9978C67.638 62.7016 68.0432 63.2987 68.5551 63.8106C69.067 64.3224 69.6855 64.7277 70.4106 65.0262C71.1357 65.3248 71.9248 65.4741 72.7993 65.4741C73.6523 65.4741 74.4415 65.3248 75.1666 65.0262C75.8917 64.7277 76.5102 64.3224 77.0434 63.8106C77.5766 63.2987 77.9818 62.6802 78.2591 61.9978C78.5576 61.294 78.7069 60.5475 78.7069 59.7371C78.7069 58.9266 78.5576 58.1802 78.2591 57.4764C77.9605 56.7726 77.5553 56.1754 77.0434 55.6635C76.5102 55.1517 75.8917 54.7465 75.1666 54.4479C74.4415 54.1493 73.6523 54 72.7993 54C71.9248 54 71.1357 54.1493 70.4106 54.4479C69.6855 54.7465 69.067 55.1517 68.5551 55.6635C68.0432 56.1754 67.638 56.7939 67.3394 57.4764C67.0409 58.1802 66.8916 58.9266 66.8916 59.7371C66.8916 60.5475 67.0622 61.3153 67.3394 61.9978ZM69.7708 58.4361C69.9414 58.0309 70.176 57.6896 70.4959 57.3911C70.7945 57.0925 71.157 56.8579 71.5409 56.7086C71.9462 56.538 72.3727 56.4526 72.7993 56.4526C73.2471 56.4526 73.6737 56.538 74.0576 56.7086C74.4628 56.8792 74.804 57.0925 75.1239 57.3911C75.4225 57.6896 75.6784 58.0309 75.8491 58.4361C76.0197 58.8413 76.105 59.2679 76.105 59.7584C76.105 60.2489 76.0197 60.6755 75.8491 61.0807C75.6784 61.4859 75.4225 61.8271 75.1239 62.1257C74.8254 62.4243 74.4628 62.6589 74.0576 62.8082C73.6523 62.9788 73.2258 63.0641 72.7993 63.0641C72.3514 63.0641 71.9248 62.9788 71.5409 62.8082C71.1357 62.6376 70.7945 62.4243 70.4959 62.1257C70.1973 61.8271 69.9627 61.4859 69.7708 61.0807C69.6002 60.6755 69.5148 60.2489 69.5148 59.7584C69.5148 59.2679 69.6002 58.8413 69.7708 58.4361V58.4361ZM66.2091 61.9338C66.2091 62.467 66.0811 63.0001 65.8679 63.4054C65.6119 63.8319 65.2707 64.2371 64.8868 64.4931C64.5029 64.7703 63.9911 65.0049 63.5005 65.1329C62.9673 65.2822 62.3915 65.3462 61.7943 65.3462H58.4673V54.1493H61.8157C62.2422 54.1493 62.7114 54.2559 63.2233 54.4692C63.7351 54.6825 64.2257 55.0664 64.6095 55.5356C64.9934 56.0261 65.2494 56.6446 65.2494 57.3911C65.2494 57.8816 65.1641 58.2441 65.0361 58.5214C64.9081 58.7773 64.6949 59.0119 64.4176 59.2252C64.9295 59.5025 65.3347 59.8224 65.6546 60.2276C65.9745 60.6115 66.2091 61.1873 66.2091 61.9338ZM61.0905 58.628H61.2611C61.2611 58.628 61.5811 58.628 61.8583 58.5001C62.0289 58.4148 62.1996 58.3081 62.3275 58.1588C62.5621 57.9029 62.6688 57.519 62.5834 57.1778C62.5408 57.0072 62.4555 56.8579 62.3488 56.7512C62.1142 56.4953 61.7943 56.346 61.4531 56.346H61.0692V58.628H61.0905ZM63.4152 61.6352C63.3726 61.4646 63.2872 61.3153 63.1806 61.166C62.946 60.9101 62.5834 60.7394 62.2209 60.7181H61.1119V63.1494H62.0289C62.0289 63.1494 62.3702 63.1494 62.6688 63.0215C62.8607 62.9362 63.0313 62.8082 63.1806 62.6589C63.3939 62.3817 63.5005 61.9978 63.4152 61.6352V61.6352ZM99.2025 65.3462H95.9394L93.0176 61.6992V65.3462H90.2877V54.1493H93.8707C94.3826 54.1706 94.6598 54.2133 95.1077 54.3626C95.6835 54.5545 95.9821 54.7251 96.4086 55.045C96.8352 55.365 97.2191 55.7915 97.411 56.1541C97.667 56.6019 97.8376 57.0925 97.8376 57.6257V57.9456C97.8163 58.0735 97.7949 59.0546 97.0698 59.7797C96.2807 60.5688 95.6409 60.8034 95.6409 60.8034L99.2025 65.3462V65.3462ZM95.129 57.3271C95.0864 57.1565 95.0224 56.9858 94.9157 56.8579C94.7025 56.5806 94.3612 56.41 94.0413 56.41H93.0176V58.9266H93.8494C93.8494 58.9266 94.1693 58.9266 94.4252 58.7987C94.5958 58.7133 94.7664 58.5854 94.8944 58.4148C95.0864 58.0949 95.2143 57.6896 95.129 57.3271V57.3271ZM126.779 62.6376L128.016 65.3462H129.466L124.497 54.064L119.549 65.3462H120.999L122.236 62.6376H126.779V62.6376ZM126.246 61.4006H122.748L124.497 57.0285L126.246 61.4006ZM154.099 54.064C150.964 54.064 148.362 56.6446 148.362 59.7797C148.362 63.0428 150.943 65.4954 154.099 65.4954C157.277 65.4954 159.836 63.0428 159.836 59.7797C159.836 56.6233 157.234 54.064 154.099 54.064V54.064ZM154.099 64.1945C151.732 64.1945 149.727 62.2537 149.727 59.7584C149.727 57.3484 151.54 55.3223 154.099 55.3223C156.68 55.3223 158.471 57.3484 158.471 59.7584C158.471 62.275 156.467 64.1945 154.099 64.1945ZM140.471 65.3462H138.893L135.608 60.6115H135.011V65.3462H133.625V54.1493H136.632C138.36 54.1493 139.81 55.5782 139.81 57.3057C139.81 58.9693 138.594 60.2489 137.016 60.4409C137.016 60.4409 137.037 60.4622 137.037 60.4835L140.471 65.3462ZM135.011 55.301V59.3318H136.632C137.698 59.3318 138.53 58.4574 138.53 57.3271C138.53 56.2394 137.805 55.3223 136.632 55.3223H135.011V55.301ZM144.545 60.4835H142.881V65.3462H141.495V54.1493H144.502C146.229 54.1493 147.68 55.5782 147.68 57.3057C147.68 59.0972 146.272 60.4622 144.545 60.4835ZM146.379 57.3271C146.379 56.2394 145.654 55.3223 144.481 55.3223H142.86V59.3532H144.481C145.568 59.3318 146.379 58.4574 146.379 57.3271ZM168.047 65.3462H166.469L163.185 60.6115H162.609V65.3462H161.223V54.1493H164.23C165.957 54.1493 167.407 55.5782 167.407 57.3057C167.407 58.9693 166.192 60.2489 164.614 60.4409C164.614 60.4409 164.635 60.4622 164.635 60.4835L168.047 65.3462V65.3462ZM162.609 55.301V59.3318H164.23C165.296 59.3318 166.128 58.4574 166.128 57.3271C166.128 56.2394 165.403 55.3223 164.23 55.3223H162.609V55.301Z" fill="black"/>
</svg>
