<svg width="207" height="120" viewBox="0 0 207 120" fill="none" xmlns="http://www.w3.org/2000/svg">
<path d="M32 36V83.3018H37.3582V41.3221H174.871V36H32Z" fill="black"/>
<path d="M32 36L55.8119 41.7921H174.871V36H32Z" fill="black"/>
<mask id="mask0_2619_1832" style="mask-type:alpha" maskUnits="userSpaceOnUse" x="47" y="60" width="128" height="25">
<path d="M47.5967 84.2672H175V60.171H47.5967V84.2672Z" fill="white"/>
</mask>
<g mask="url(#mask0_2619_1832)">
<path d="M142.935 83.9119H147.43V60.171L142.935 60.7603V83.9119ZM136.001 80.0888C135.525 80.5629 134.483 81.0968 133.412 81.0968C131.982 81.0968 131.595 80.2964 131.595 79.4085C131.595 77.8383 133.144 77.423 135.287 77.3642H136.001V80.0888ZM134.156 68.1497C129.928 68.1497 128.082 69.8687 127.605 72.7718L127.648 72.7793L131.466 73.2831C131.776 71.9392 132.359 71.3796 133.769 71.3796C135.733 71.3796 135.972 72.4455 135.972 74.1931V74.7557C131.982 74.7271 127.07 75.438 127.07 80.1486C127.07 81.6886 127.814 84.2669 131.684 84.2669C133.671 84.2669 135.094 83.656 136.075 82.5544L136.273 83.9114H140.38L140.378 73.6014C140.378 69.7495 138.294 68.1497 134.156 68.1497ZM154.581 78.6372V71.7345H158.689V68.476H154.532V63.4969L150.086 64.0892V79.2602C150.086 82.7857 151.783 84.2664 155.028 84.2664C156.437 84.2664 157.767 83.9617 158.693 83.6042V80.1426C158.078 80.4447 157.171 80.7112 156.398 80.7112C154.968 80.7112 154.581 80.0008 154.581 78.6372ZM170.177 68.1497C167.973 68.1497 166.485 69.0381 165.384 69.8974V60.171L160.918 60.7603V83.9114H165.413V73.0086C166.009 72.4756 167.229 71.7938 168.45 71.7938C169.85 71.7938 170.504 72.5043 170.504 74.1645V83.9114H175V73.3635C175 69.8385 173.512 68.1497 170.177 68.1497ZM116.298 74.4601C116.328 72.2081 117.579 71.3791 118.858 71.3791C120.317 71.3791 121.121 72.2383 121.121 74.4601H116.298ZM119.097 68.1502C114.929 68.1502 111.505 70.6681 111.505 76.2374C111.505 80.4156 113.35 84.2664 119.097 84.2664C122.789 84.2664 125.111 82.4011 125.677 79.5261L121.785 79.0138C121.45 80.0918 120.799 80.8012 119.365 80.8012C117.4 80.8012 116.328 79.8529 116.239 77.3048H125.677C125.736 76.7704 125.766 75.7935 125.766 75.2892C125.766 70.9934 123.8 68.1502 119.097 68.1502ZM104.959 79.3743L102.299 68.476H97.9232L95.347 79.3743C95.2914 79.3743 93.2144 68.476 93.2144 68.476H89.4245V68.475H84.3145V63.4969L79.8684 64.0892V79.2597C79.8684 82.7857 81.5665 84.2669 84.8112 84.2669C86.2198 84.2669 87.5501 83.9622 88.4767 83.6032V80.1405C87.8603 80.4442 86.9559 80.7117 86.1804 80.7117C84.7521 80.7117 84.3651 80.0003 84.3651 78.6377V71.735H89.6125L92.3822 83.9114H97.8676C97.8676 83.9114 100.04 74.4244 100.056 74.4244C100.079 74.4244 102.327 83.9114 102.327 83.9114H107.78L111.107 68.476H106.925C106.925 68.476 104.986 79.3743 104.959 79.3743ZM56.7658 68.1492C54.6529 68.1492 52.9558 68.9788 51.824 70.016L51.5856 68.476H47.5967V83.9114H52.0923V72.9794C52.6865 72.445 53.9087 71.7647 55.1293 71.7647C56.5283 71.7647 57.1831 72.4751 57.1831 74.1338V83.9114H61.6787V73.3645C61.6787 69.838 60.1903 68.1492 56.7658 68.1492ZM68.4399 74.4596C68.4702 72.2081 69.7197 71.3785 71.0009 71.3785C72.4591 71.3785 73.2634 72.2383 73.2634 74.4596H68.4399ZM71.2394 68.1502C67.0712 68.1502 63.6467 70.6681 63.6467 76.2374C63.6467 80.4156 65.4923 84.2674 71.2394 84.2674C74.9302 84.2674 77.2523 82.4005 77.8192 79.5261H77.8176L73.9278 79.0138C73.5923 80.0913 72.9416 80.8007 71.5072 80.8007C69.5413 80.8007 68.4702 79.8524 68.3808 77.3043H77.8192C77.8783 76.7714 77.9071 75.7935 77.9071 75.2902C77.9071 70.9934 75.9422 68.1502 71.2394 68.1502Z" fill="black"/>
</g>
</svg>
