<svg width="207" height="120" viewBox="0 0 207 120" fill="none" xmlns="http://www.w3.org/2000/svg">
<path fill-rule="evenodd" clip-rule="evenodd" d="M139.62 76.5372C137.702 78.9751 134.546 80.3713 131.43 80.3713C125.439 80.3713 120.645 76.3784 120.645 70.1863C120.645 63.9961 125.439 60.0014 131.43 60.0014C137.022 60.0014 140.538 63.9961 140.538 70.1863V72.0625H126.637C127.117 74.3407 128.834 75.8194 131.151 75.8194C133.108 75.8194 134.426 74.8217 135.425 73.4614L139.62 76.5372ZM110.597 60.001C116.349 60.001 120.144 64.1554 120.144 70.0272C120.144 75.4198 116.789 80.3718 111.276 80.3718C108.798 80.3718 106.483 79.6935 105.124 77.8155H105.044V89H99.0532V60.4811H104.565V63.0374H104.645C105.564 61.6395 107.881 60.001 110.597 60.001ZM83.8675 60.4799V69.9883C83.8675 72.2243 83.907 75.1001 86.9837 75.1001C90.0982 75.1001 90.5782 72.6631 90.5782 70.1453V60.4799H96.5693V79.8933H90.8178V77.2571H90.7379C89.9384 78.7744 87.9806 80.3724 85.0644 80.3724C78.9935 80.3724 77.8755 76.3787 77.8755 71.1862V60.4799H83.8675ZM68.4902 50.3298C71.6854 50.3298 74.5245 51.0898 76.9211 53.2074L72.8622 57.3572C71.1742 56.4439 69.8882 56.0823 68.3709 56.0823C66.6141 56.0823 64.1761 56.8808 64.1761 58.9975C64.1761 64.1505 77.1983 60.836 77.1983 70.7419C77.1983 77.0524 72.1251 80.0475 66.2937 80.0475C62.6589 80.0475 59.4628 78.969 56.7871 76.4943L61.2205 71.6203C62.4982 73.2983 64.5754 74.2951 66.6526 74.2951C68.6903 74.2951 70.9676 73.3368 70.9676 71.3395C70.9676 66.1479 57.705 68.9438 57.705 59.517C57.705 53.4855 62.9379 50.3298 68.4902 50.3298ZM153.667 60.0013C154.345 60.0013 155.105 60.0408 155.665 60.2014V65.6748C154.824 65.4334 153.987 65.2737 153.108 65.2737C148.646 65.2737 148.02 67.8042 147.996 71.5495L147.996 79.8939H142.003V60.4804H147.996V63.5967H148.074C149.352 61.2395 151.031 60.0013 153.667 60.0013ZM109.358 65.2743C106.362 65.2743 104.565 67.2726 104.565 70.1869C104.565 73.103 106.362 75.1003 109.358 75.1003C112.354 75.1003 114.152 73.103 114.152 70.1869C114.152 67.2726 112.354 65.2743 109.358 65.2743ZM130.871 64.3155C133.028 64.3155 134.586 65.9925 134.546 67.9898H126.637C126.797 66.1127 128.235 64.3155 130.871 64.3155Z" fill="black"/>
<path fill-rule="evenodd" clip-rule="evenodd" d="M82.0517 44.86C79.3357 44.86 77.2585 42.5836 77.2585 40.0668C77.2585 37.5499 79.3357 35.2726 82.0517 35.2726C84.7677 35.2726 86.8449 37.5499 86.8449 40.0668C86.8449 42.5836 84.7677 44.86 82.0517 44.86ZM80.6785 30.0002C84.0729 30.0002 86.3897 31.6378 87.3094 33.0366H87.3883V30.4794H92.9012V48.2553C92.9012 55.5654 89.1865 59.4793 81.6781 59.4793C79.6404 59.4793 77.599 59.3342 75.6485 58.7174C75.3024 58.6091 74.9702 58.4696 74.648 58.3135L78.65 54.1408C79.5303 54.5227 80.5179 54.7898 81.557 54.7512C85.1927 54.7512 86.9101 52.2096 86.9101 49.4541V47.576H86.8302C85.4718 49.4541 83.1559 50.1324 81.3578 50.1324C75.6053 50.1324 71.8099 45.978 71.8099 40.1072C71.8099 34.9541 75.1666 30.0002 80.6785 30.0002ZM102.573 30.0008C105.128 30.0008 107.964 30.6387 109.763 32.5571L106.087 36.192C105.208 35.1135 104.05 34.5535 102.612 34.5535C101.613 34.5535 100.415 34.9932 100.415 36.1516C100.415 39.0273 110.521 36.5903 110.521 43.9812C110.521 48.9342 105.727 50.3725 101.574 50.3725C98.857 50.3725 95.861 49.6933 93.9435 47.7354L97.5793 43.7013C98.6973 45.0597 100.016 45.8179 101.813 45.8179C103.171 45.8179 104.53 45.4581 104.53 44.4209C104.53 41.3046 94.4227 43.9408 94.4227 36.5518C94.4227 31.9972 98.4972 30.0008 102.573 30.0008ZM63.5039 29.9999C69.5749 29.9999 70.6938 33.9945 70.6938 39.1861V48.164C69.9283 48.075 69.1848 48.0245 68.4909 48.0245C67.2131 48.0245 65.9336 48.1824 64.7009 48.4853L64.7008 40.2169C64.697 38.0069 64.5854 35.2732 61.5865 35.2732C58.4702 35.2732 57.9911 37.7102 57.9911 40.2261V49.8924H52V30.4799H57.7515V33.1152H57.8314C58.6299 31.5979 60.5878 29.9999 63.5039 29.9999Z" fill="black"/>
</svg>
