<svg width="207" height="120" viewBox="0 0 207 120" fill="none" xmlns="http://www.w3.org/2000/svg">
<path d="M50.7042 77.2269C39.4944 77.2219 32 69.2805 32 59.6427C32 50.01 39.5096 41.9696 50.6889 42.0001H156.316C167.49 41.9696 175 50.01 175 59.6427C175 69.2805 167.508 77.2218 156.298 77.2269H50.7042Z" fill="black"/>
<path d="M50.7374 46.3301C41.859 46.3453 36.4141 52.2829 36.4141 59.6198C36.4141 66.9593 41.831 72.9375 50.7374 72.907H156.261C165.175 72.9375 170.586 66.9593 170.586 59.6198C170.586 52.2829 165.139 46.3453 156.261 46.3301H50.7374Z" fill="white"/>
<path d="M46.1837 51.2899H51.3543L58.5033 62.8553L58.5007 51.2899H63.6256V67.8761H58.5058L51.3212 56.3107V67.8761H46.1836L46.1837 51.2899Z" fill="black"/>
<path d="M91.4978 52.9966H96.4907V55.2289H99.1903V56.8695H96.4907L96.4958 67.8761H91.4978L91.5003 56.8695H88.7905V55.234L91.5003 55.2289L91.4978 52.9966Z" fill="black"/>
<path d="M66.4805 56.8466H71.4683V67.8786H66.4805V56.8466Z" fill="black"/>
<path d="M66.4673 51.2848H71.4678V54.6777H66.4673V51.2848Z" fill="black"/>
<path d="M153.876 56.0974C149.85 56.0974 146.587 58.8656 146.587 62.2864C146.587 65.7047 149.85 68.478 153.876 68.478C157.903 68.478 161.162 65.7047 161.162 62.2864C161.162 58.8656 157.903 56.0974 153.876 56.0974ZM155.879 62.2712C155.879 62.2712 155.874 63.9372 155.874 64.6076C155.874 66.365 154.838 67.0888 153.835 67.0888C152.834 67.0888 151.791 66.365 151.791 64.6076C151.791 63.9372 151.793 62.228 151.793 62.228C151.793 62.228 151.796 60.6001 151.796 59.9322C151.796 58.1799 152.845 57.4612 153.835 57.4612C154.831 57.4612 155.874 58.1799 155.874 59.9322C155.874 60.6001 155.872 61.8369 155.88 62.2763L155.879 62.2712Z" fill="black"/>
<path d="M140.075 62.3067V60.3334C140.075 58.6268 138.897 58.1951 138.122 58.1951C137.327 58.1951 136.167 58.6268 136.167 60.3334V62.2966V64.2597C136.167 65.9688 137.327 66.4082 138.122 66.4082C138.897 66.4082 140.075 65.9688 140.075 64.2597V62.3067ZM140.042 51.2899H144.961V67.8735H140.032C140.032 67.8735 140.03 67.3377 140.03 67.2386C138.122 68.4322 135.969 68.4322 134.288 67.6551C133.838 67.4418 130.879 66.0222 130.879 62.1823C130.879 59.2719 133.622 56.0923 137.218 56.4098C138.402 56.5139 139.242 56.9456 140.042 57.3977L140.042 51.2899Z" fill="black"/>
<path d="M83.1427 56.3387C85.0093 56.2854 88.7882 57.5044 88.7628 61.87C88.7577 62.6496 88.7603 67.8736 88.7603 67.8736H83.8081V60.6306C83.8081 59.6681 82.8888 58.6015 81.5275 58.6015C80.1689 58.6015 79.1606 59.6681 79.1606 60.6306C79.1606 61.1005 79.1657 67.8736 79.1657 67.8736H74.216L74.2109 56.8466L79.1657 56.8416C79.1657 56.8416 79.1606 57.7279 79.1657 58.0021C80.1206 57.093 81.497 56.3844 83.1427 56.3387Z" fill="black"/>
<path d="M123.669 56.3387C125.533 56.2854 129.317 57.5044 129.292 61.87C129.287 62.6496 129.292 67.8736 129.292 67.8736H124.335V60.6306C124.335 59.6681 123.415 58.6015 122.054 58.6015C120.695 58.6015 119.69 59.6681 119.69 60.6306C119.69 61.1005 119.695 67.8736 119.695 67.8736H114.745V56.8466L119.695 56.8416C119.695 56.8416 119.69 57.7279 119.695 58.0021C120.647 57.093 122.021 56.3844 123.669 56.3387Z" fill="black"/>
<path d="M107.98 64.0158C107.98 64.0158 107.982 64.0666 107.982 64.6863C107.982 66.7027 106.656 67.1522 105.92 67.1522C105.186 67.1522 103.832 66.7027 103.832 64.6863C103.832 64.0819 103.837 62.4108 103.837 62.4108C103.837 62.4108 113.231 62.4159 113.231 62.4057C113.231 58.9874 109.93 56.1558 105.874 56.1558C101.818 56.1558 98.5322 58.9239 98.5322 62.3473C98.5322 65.7707 101.818 68.5363 105.874 68.5363C109.239 68.5363 112.084 66.6164 112.95 64.0108L107.98 64.0158ZM103.838 60.6889C103.827 59.7239 103.848 59.0788 104.165 58.5277C104.554 57.8471 105.27 57.5246 105.92 57.5195C106.568 57.5246 107.284 57.8471 107.67 58.5277C107.987 59.0788 108.005 59.7239 107.997 60.6889H103.838Z" fill="black"/>
<path d="M162.191 53.1108C162.676 53.1108 163.11 53.0804 163.11 52.4962C163.11 52.029 162.686 51.9451 162.287 51.9451H161.51V53.1108H162.191ZM161.51 55.2339H160.938V51.4601H162.371C163.265 51.4601 163.707 51.7877 163.707 52.5343C163.707 53.2099 163.283 53.5019 162.729 53.573L163.801 55.2339H163.161L162.163 53.5959H161.51V55.2339Z" fill="black"/>
<path d="M162.198 56.077C163.681 56.077 164.849 54.9164 164.849 53.3393C164.849 51.7876 163.681 50.6219 162.198 50.6219C160.702 50.6219 159.531 51.7876 159.531 53.3393C159.531 54.9164 160.702 56.077 162.198 56.077ZM158.876 53.3393C158.876 51.46 160.397 50.0759 162.198 50.0759C163.983 50.0759 165.507 51.46 165.507 53.3393C165.507 55.2339 163.983 56.623 162.198 56.623C160.397 56.623 158.876 55.2339 158.876 53.3393Z" fill="black"/>
</svg>
