<svg width="207" height="120" viewBox="0 0 207 120" fill="none" xmlns="http://www.w3.org/2000/svg">
<path fill-rule="evenodd" clip-rule="evenodd" d="M79.547 89.9183H78.3937H78.3909V88.9382L80.9458 88.9506V92.0844H79.9762V91.5136C79.9153 91.5773 79.8496 91.641 79.7792 91.7045C79.625 91.8386 79.4376 91.9497 79.2216 92.0331C79.0018 92.1186 78.7306 92.1623 78.4165 92.1623C77.8827 92.1623 77.4117 92.0388 77.0168 91.7957C76.6209 91.5517 76.3126 91.2013 76.0985 90.7558C75.8863 90.3142 75.7788 89.7863 75.7788 89.1861C75.7788 88.5773 75.892 88.0418 76.1157 87.5945C76.3383 87.1453 76.6571 86.7929 77.0625 86.547C77.4678 86.303 77.9446 86.1794 78.4794 86.1794C78.8267 86.1794 79.1474 86.2356 79.4319 86.3456C79.7192 86.4567 79.9724 86.6107 80.1817 86.8004C80.3949 86.9925 80.5633 87.2118 80.6841 87.454C80.805 87.6941 80.8716 87.9505 80.884 88.2145L80.8887 88.3142H79.5052L79.4909 88.2365C79.4604 88.0731 79.3976 87.9203 79.3044 87.7826C79.213 87.6467 79.0941 87.5356 78.9523 87.4549C78.8114 87.3742 78.644 87.3332 78.4537 87.3332C78.2234 87.3332 78.0112 87.393 77.8256 87.5108C77.641 87.6277 77.4916 87.8204 77.3822 88.0825C77.2709 88.3504 77.2147 88.7104 77.2147 89.1547C77.2147 89.5166 77.2518 89.8186 77.3251 90.0542C77.3965 90.2858 77.4945 90.471 77.6153 90.6048C77.7352 90.7379 77.8713 90.8319 78.0217 90.8841C78.1739 90.9401 78.3347 90.9687 78.5003 90.9687C78.6535 90.9687 78.7915 90.943 78.9104 90.8935C79.0303 90.8422 79.135 90.7757 79.2206 90.6951C79.3072 90.6135 79.3757 90.5241 79.4233 90.4311C79.4728 90.3372 79.5032 90.2441 79.5147 90.1538L79.547 89.9183ZM84.3312 86.1804C84.8707 86.1804 85.3475 86.3027 85.7471 86.544C86.1487 86.7871 86.4646 87.1375 86.6835 87.5857C86.9004 88.0292 87.0108 88.5667 87.0108 89.1822C87.0108 89.789 86.9023 90.3209 86.6873 90.7634C86.4703 91.2098 86.1563 91.5583 85.7538 91.7994C85.3541 92.0407 84.8745 92.1621 84.3302 92.1621C83.7812 92.1621 83.2987 92.0397 82.8972 91.7994C82.4956 91.5601 82.1788 91.2134 81.958 90.767C81.741 90.3255 81.6307 89.7927 81.6307 89.1831C81.6307 88.5706 81.742 88.034 81.9627 87.5896C82.1845 87.1414 82.5023 86.7908 82.9067 86.5468C83.3111 86.3036 83.7898 86.1804 84.3312 86.1804ZM84.3312 91.0349C84.5872 91.0349 84.8108 90.9742 84.9954 90.8546C85.179 90.7347 85.3237 90.5402 85.4265 90.278C85.5302 90.0065 85.5835 89.6428 85.5835 89.1983C85.5835 88.7416 85.5292 88.3692 85.4236 88.091C85.3218 87.8204 85.1762 87.6199 84.9916 87.4945C84.8051 87.3701 84.5834 87.3066 84.3321 87.3066C84.08 87.3066 83.8573 87.3701 83.6708 87.4945C83.4853 87.619 83.3378 87.8204 83.2341 88.0929C83.1265 88.3731 83.0723 88.7443 83.0723 89.1974C83.0723 89.6428 83.1265 90.0065 83.2331 90.2771C83.3368 90.5402 83.4833 90.7347 83.6689 90.8534C83.8545 90.9742 84.0771 91.0349 84.3312 91.0349ZM89.7768 90.3635L88.3647 86.278H87.0819L89.065 92.0643H90.4848L92.4849 86.278H91.2003L89.7768 90.3635ZM96.7227 89.7157H94.3628V90.9087L97.1225 90.9123V92.0643H93.043V86.278H97.0833L97.0796 87.4214H94.3695V88.5876H96.7227V89.7157ZM101.875 89.3653C102.032 89.2249 102.16 89.0443 102.259 88.8289C102.355 88.6151 102.405 88.352 102.405 88.0454C102.405 87.7024 102.333 87.3958 102.192 87.1327C102.05 86.8648 101.825 86.6531 101.523 86.5012C101.225 86.3529 100.841 86.278 100.383 86.278H97.922V92.0624H99.2416V89.9075H100.213L101.128 92.0624H102.513L101.447 89.6664C101.602 89.5846 101.745 89.4831 101.875 89.3653ZM101.07 88.0729C101.07 88.3018 100.993 88.4831 100.835 88.6293C100.677 88.7737 100.457 88.8468 100.18 88.8468H99.2416V87.333H100.263C100.501 87.333 100.692 87.3985 100.846 87.5335C100.996 87.6655 101.07 87.8422 101.07 88.0729ZM104.543 86.278L106.956 89.7679V86.278H108.279V92.0643H107.114L104.598 88.4299V92.0643H103.278V86.278H104.543ZM112.323 90.05L111.111 86.278H109.302V92.0643H110.633V88.3369L111.807 92.0643H112.835L114.018 88.316V92.0643H115.353V86.278H113.547L112.323 90.05ZM120.051 89.7157H117.691V90.9087L120.452 90.9123V92.0643H116.372V86.278H120.413L120.408 87.4214H117.7V88.5876H120.051V89.7157ZM124.977 89.7679L122.565 86.278H121.299V92.0643H122.618V88.4299L125.134 92.0643H126.299V86.278H124.977V89.7679ZM128.548 87.4755H126.855V86.278H131.53V87.4755H129.877V92.0643H128.548V87.4755Z" fill="black"/>
<path fill-rule="evenodd" clip-rule="evenodd" d="M107.616 75.9466C107.277 75.3978 106.765 74.8991 106.095 74.4651C105.426 74.0311 104.514 73.6998 103.389 73.4805L100.254 72.8356C99.3074 72.6315 98.6545 72.3675 98.3138 72.0522C97.9817 71.7444 97.8133 71.3351 97.8133 70.8356C97.8133 70.5175 97.8857 70.2279 98.0294 69.9742C98.1722 69.7196 98.3795 69.4946 98.6451 69.3046C98.9123 69.1149 99.2446 68.9648 99.6319 68.8594C100.024 68.7519 100.464 68.6978 100.941 68.6978C101.569 68.6978 102.135 68.7806 102.625 68.9449C103.108 69.1083 103.508 69.3759 103.815 69.7425C104.121 70.1092 104.31 70.6076 104.374 71.224L104.383 71.3095H108.272L108.27 71.2116C108.253 70.1633 107.956 69.2013 107.388 68.3532C106.819 67.5042 105.981 66.8222 104.895 66.3248C103.812 65.8289 102.461 65.5773 100.878 65.5773C99.5491 65.5773 98.331 65.8089 97.2567 66.2668C96.1795 66.7255 95.3146 67.3873 94.6875 68.2345C94.0575 69.0863 93.7435 70.1053 93.753 71.2648C93.7787 72.6798 94.2088 73.8281 95.031 74.6798C95.8503 75.527 96.9732 76.0909 98.369 76.354L101.53 76.9979C102.11 77.113 102.636 77.2637 103.094 77.4471C103.543 77.6267 103.901 77.8602 104.159 78.1414C104.411 78.4157 104.539 78.7766 104.539 79.2115C104.539 79.6959 104.38 80.1052 104.067 80.4262C103.746 80.7549 103.311 81.0026 102.774 81.165C102.227 81.3302 101.615 81.4139 100.955 81.4139C100.312 81.4139 99.7194 81.3142 99.1942 81.1167C98.6717 80.9219 98.2331 80.6371 97.8905 80.2704C97.5489 79.9058 97.3147 79.4489 97.1939 78.9143L97.1767 78.8394H93.2135L93.224 78.9448C93.3172 79.8717 93.6056 80.693 94.0804 81.3873C94.5543 82.0768 95.1614 82.6579 95.8846 83.1176C96.6058 83.5743 97.4146 83.9229 98.2893 84.1518C99.1616 84.3796 100.064 84.4955 100.969 84.4955C102.45 84.4955 103.764 84.262 104.875 83.8003C105.99 83.3369 106.872 82.6987 107.498 81.9038C108.129 81.1034 108.449 80.1907 108.449 79.1888C108.449 78.7159 108.396 78.1897 108.289 77.6256C108.18 77.0568 107.953 76.4917 107.616 75.9466ZM79.9436 71.9426L88.4031 84.1591H91.8439V65.8903H87.9948V77.6416L79.9018 65.9313L79.8732 65.8903H76.106V84.1591H79.9436V71.9426ZM125.003 77.5745L128.3 65.8907H132.071L126.666 84.1596H123.603L120.268 72.5946L116.909 84.1596H113.896L108.504 65.8907H112.287L115.584 77.5726L118.881 65.8907H121.669L125.003 77.5745Z" fill="black"/>
<path d="M102.023 61.3579C97.4976 60.8024 93.1014 62.2525 85.3661 60.1519C84.5763 59.9371 84.2852 60.7692 84.7124 61.4663C86.7906 64.8584 97.2883 62.2002 102.044 61.7103C102.252 61.6885 102.231 61.3836 102.023 61.3579Z" fill="black"/>
<path d="M87.722 55.2992C86.1491 52.9944 84.8635 50.416 83.8682 47.5793C80.866 48.4559 77.7934 49.7208 74.6656 51.3762C74.2611 51.5897 74.0128 51.9905 74.0004 52.4463C73.989 52.9023 74.2155 53.3143 74.6085 53.549C80.6652 57.17 86.5868 59.2413 92.2372 59.7207C90.5548 58.6952 89.0123 57.19 87.722 55.2992Z" fill="black"/>
<path d="M79.2837 47.5954C80.6692 47.0417 82.0423 46.5669 83.403 46.1671C82.9158 44.5868 82.5162 42.9316 82.2003 41.2041C80.6359 41.0095 79.0173 40.8832 77.3425 40.8281C77.3282 40.8281 77.313 40.8271 77.2987 40.8271C76.8601 40.8271 76.4642 41.0475 76.2339 41.4235C75.996 41.811 75.9856 42.2811 76.2063 42.6799C77.1788 44.4349 78.2056 46.0731 79.2837 47.5954Z" fill="black"/>
<path d="M94.1665 59.0664C95.1057 59.4805 96.0668 59.7122 96.9983 59.7605C94.7175 58.129 92.9257 55.3627 91.8932 51.8365C90.5629 47.2972 90.1186 42.2887 90.5572 36.8851C88.7626 35.754 86.8176 34.6952 84.7232 33.7113C84.3187 33.5214 83.8563 33.5584 83.4852 33.8101C83.115 34.0608 82.9104 34.4758 82.938 34.9193C83.4252 42.7597 85.4473 49.3361 88.9472 54.4653C90.4145 56.6173 92.2196 58.2078 94.1665 59.0664Z" fill="black"/>
<path d="M102.807 49.8291C102.343 48.7465 101.831 47.7256 101.037 46.5784C98.7888 43.3334 95.7601 40.4066 91.9909 37.8282C91.9519 38.436 91.4019 45.0001 93.3317 51.4178C94.7999 56.2992 97.3083 58.2878 98.6832 59.0561C100.067 59.8281 101.332 60.0105 102.817 59.6421C101.312 57.5946 101.5 53.3931 102.807 49.8291Z" fill="black"/>
<path d="M98.6311 33.4027C97.5575 32.1016 96.3929 30.8149 95.1359 29.5432C94.8923 29.2963 94.5783 29.1653 94.2538 29.1653C94.1377 29.1653 94.0207 29.1824 93.9045 29.2166C93.464 29.3467 93.1452 29.699 93.0491 30.1596C92.8036 31.3429 92.3364 33.755 92.1299 36.1406C93.7371 37.1975 95.2215 38.3153 96.5813 39.491C97.1084 37.4843 97.7935 35.4511 98.6311 33.4027Z" fill="black"/>
<path d="M103.593 47.9885C105.115 44.9885 107.545 42.2991 109.37 40.6001C108.369 36.5261 106.826 32.6828 104.696 28.6619C104.477 28.2469 104.063 28 103.594 28C103.125 28 102.713 28.2479 102.493 28.6619C100.341 32.6961 98.7719 36.7103 97.8232 40.5992C99.7282 42.3608 102.241 45.2335 103.593 47.9885Z" fill="black"/>
<path d="M115.067 36.1396C114.86 33.755 114.393 31.3428 114.148 30.1586C114.052 29.698 113.733 29.3457 113.292 29.2156C113.176 29.1814 113.059 29.1643 112.943 29.1643C112.619 29.1643 112.305 29.2954 112.061 29.5423C110.804 30.8139 109.639 32.1007 108.566 33.4017C109.403 35.4501 110.088 37.4834 110.617 39.4891C111.976 38.3143 113.46 37.1966 115.067 36.1396Z" fill="black"/>
<path d="M109.184 58.6343C110.762 57.5268 112.34 55.5972 113.341 52.9124C115.279 47.715 115.48 41.9258 115.202 37.829C111.689 40.1699 106.113 45.0588 104.208 50.2857C103.312 52.7454 102.894 56.0958 103.585 57.9647C103.874 58.7464 104.364 59.339 105.039 59.6208C106.061 60.0482 107.631 59.7253 109.184 58.6343Z" fill="black"/>
<path d="M115.304 51.8374C114.271 55.3627 112.479 58.1299 110.199 59.7615C111.13 59.7131 112.092 59.4803 113.031 59.0662C114.977 58.2078 116.782 56.617 118.25 54.466C121.75 49.337 123.772 42.7606 124.259 34.9201C124.287 34.4767 124.082 34.0616 123.712 33.8109C123.341 33.5593 122.878 33.5222 122.474 33.7122C120.379 34.6951 118.434 35.7539 116.64 36.8859C117.079 42.2895 116.633 47.2971 115.304 51.8374Z" fill="black"/>
<path d="M127.913 47.5955C128.991 46.0732 130.018 44.4341 130.991 42.6791C131.211 42.2802 131.202 41.8111 130.963 41.4227C130.733 41.0476 130.337 40.8263 129.898 40.8263C129.884 40.8263 129.869 40.8263 129.855 40.8272C128.18 40.8823 126.56 41.0096 124.997 41.2033C124.682 42.9307 124.281 44.586 123.794 46.1662C125.155 46.567 126.529 47.0428 127.913 47.5955Z" fill="black"/>
<path d="M132.53 51.375C129.402 49.7198 126.329 48.4548 123.327 47.5782C122.332 50.4149 121.046 52.9933 119.473 55.2981C118.183 57.1897 116.64 58.6941 114.957 59.7198C120.607 59.2401 126.529 57.1689 132.586 53.5478C132.979 53.3132 133.206 52.9011 133.194 52.4454C133.183 51.9894 132.934 51.5897 132.53 51.375Z" fill="black"/>
<path d="M121.832 60.1519C114.097 62.2525 109.7 60.8024 105.175 61.3579C104.967 61.3836 104.945 61.6895 105.154 61.7103C109.911 62.2002 120.407 64.8584 122.485 61.4663C122.913 60.7692 122.622 59.9371 121.832 60.1519Z" fill="black"/>
</svg>
