<svg width="207" height="120" viewBox="0 0 207 120" fill="none" xmlns="http://www.w3.org/2000/svg">
<path d="M121.261 69.27C121.208 69.132 121.061 69.0524 120.917 69.0851L120.872 69.0979C120.445 69.1889 120.116 69.1633 119.886 69.0097C119.559 68.7922 119.4 68.3002 119.4 67.5068V60.3359C119.4 57.5347 117.708 56.1142 114.366 56.1142C111.375 56.1142 109.031 57.5105 109.031 59.2936C109.031 60.2108 109.598 60.8734 110.434 60.9729C110.98 61.0384 111.502 60.7938 111.88 60.3999C112.615 59.6349 112.521 58.7234 111.629 57.7466C112.157 57.202 113.091 56.8806 114.156 56.8806C115.891 56.8806 116.632 57.8959 116.632 60.2762V62.0892C116.226 62.2129 115.845 62.3295 115.148 62.4916C113.742 62.8172 111.813 63.2509 110.359 64.0429C109.158 64.6927 108.548 65.718 108.548 67.0901C108.548 68.5846 109.543 70.3293 112.345 70.3293C113.915 70.3293 115.321 69.5956 116.764 68.0201C116.889 69.6567 117.517 70.271 119.043 70.271C119.776 70.271 120.363 70.1018 121.061 69.7691C121.25 69.6781 121.339 69.4619 121.261 69.27ZM116.632 67.0788C116.292 67.5466 115.179 68.9386 113.793 68.9386C111.92 68.9386 111.527 67.6418 111.527 66.5541C111.527 64.7653 112.916 63.9377 116.632 63.0319V67.0788ZM152.543 70.3904C148.573 70.3904 145.579 67.3219 145.579 63.2523C145.579 59.268 148.703 56.026 152.543 56.026C156.431 56.026 159.478 59.1472 159.478 63.1343C159.478 67.6162 155.879 70.3904 152.543 70.3904ZM152.393 56.791C150.678 56.791 148.707 57.5191 148.707 63.1926C148.707 67.521 150.002 69.624 152.664 69.624C155.211 69.624 156.349 67.6418 156.349 63.1926C156.349 58.8855 155.054 56.791 152.393 56.791ZM91.1683 56.282C91.1683 59.5837 90.3438 61.4009 86.1259 61.4009H83.8902V51.4275H86.2167C90.5802 51.4275 91.1683 53.8817 91.1683 56.282ZM83.8902 67.5068V62.3181H85.9155C88.9369 62.3181 91.2346 61.6882 92.7467 60.444C94.3281 59.1429 94.6596 57.4949 94.6596 56.3417C94.6596 51.5981 90.0194 50.6027 86.1259 50.6027L86.1418 50.6013H78.2467C78.068 50.6013 77.9224 50.7464 77.9224 50.9213V50.9426V50.9369C77.9224 51.099 78.0218 51.244 78.1775 51.2995C78.881 51.5554 80.7909 51.1971 80.7909 53.2177V67.5039C80.7909 68.5433 80.3239 69.2771 78.189 69.4761C78.0189 69.4918 77.8921 69.6283 77.8921 69.7932V69.843C77.8921 70.0193 78.0362 70.1615 78.215 70.1615H86.6506C86.8294 70.1615 86.975 70.0193 86.975 69.843V69.7989C86.975 69.634 86.8424 69.4946 86.6723 69.4804C84.3529 69.297 83.8873 68.5889 83.8873 67.5039V62.3281L83.8902 67.5068ZM101.044 56.0189C97.3725 56.0189 94.3843 59.2979 94.3843 63.3291C94.3843 67.4101 97.1851 70.372 101.044 70.372C104.286 70.372 105.864 68.4609 106.768 67.0247C106.858 66.8825 106.819 66.6948 106.68 66.5967L106.637 66.5669C106.497 66.4687 106.303 66.4972 106.194 66.6308C105.002 68.1054 103.959 68.9586 102.157 68.9586C99.8778 68.9586 97.4431 67.4101 97.4431 63.0618V63.0305C97.4388 62.8385 97.4431 62.5755 97.4504 62.3295H106.775C106.801 62.3295 106.822 62.3096 106.823 62.284L106.829 62.21C106.961 60.4283 106.45 58.8258 105.389 57.7011C104.352 56.6005 102.85 56.0189 101.044 56.0189ZM97.5022 61.4137C97.8093 58.439 98.9855 56.8081 100.834 56.8081C101.758 56.8081 102.444 57.0612 102.928 57.5816C103.594 58.294 103.877 59.5837 103.766 61.4137H97.5022ZM139.695 61.573H139.692C137.142 60.8663 136.149 60.1525 136.149 59.0249C136.149 57.7409 137.182 56.8081 138.607 56.8081C140.282 56.8081 140.999 57.5987 142.768 60.5151L142.791 60.5535C142.8 60.5691 142.816 60.5776 142.816 60.5776H143.075C143.254 60.5776 143.4 60.434 143.4 60.2577V56.0658C143.4 56.0402 143.378 56.0189 143.378 56.0189H143.031C142.934 56.0189 142.842 56.0616 142.781 56.1355L142.216 56.8123C141.504 56.4256 140.344 56.0189 139.179 56.0189C136.25 56.0189 134.204 57.8034 134.204 60.3601C134.204 62.7603 135.817 63.659 138.602 64.4012C141.308 65.1321 142.268 65.8929 142.268 67.3048C142.268 68.8761 140.726 69.5814 139.63 69.5814C137.592 69.5814 136.731 68.8348 134.778 65.3738L134.755 65.3326C134.746 65.317 134.73 65.307 134.73 65.307H134.468C134.289 65.307 134.144 65.4521 134.144 65.6269V70.3236C134.144 70.3506 134.165 70.372 134.193 70.372H134.524C134.609 70.372 134.693 70.3378 134.753 70.2781L135.646 69.3979C136.691 70.0378 138.253 70.372 139.268 70.372C140.792 70.372 142.045 69.8956 142.891 68.9955C143.646 68.1921 144.061 67.0546 144.061 65.7919C144.061 63.605 142.878 62.4617 139.695 61.573ZM124.264 68.4765C124.264 69.2003 124.078 69.4377 122.909 69.5103C122.739 69.5216 122.606 69.661 122.606 69.8288C122.606 70.0051 122.752 70.1473 122.93 70.1473H128.701C128.876 70.1473 129.019 70.0065 129.019 69.8345C129.019 69.6638 128.885 69.5231 128.712 69.516C127.377 69.452 127.031 69.2387 127.031 68.4765V60.1297C127.981 58.5713 128.663 57.7551 129.816 57.5091C129.76 57.7067 129.724 57.9414 129.724 58.1333C129.724 59.1472 130.442 59.8553 131.47 59.8553C132.479 59.8553 133.185 59.1472 133.185 58.1333C133.185 57.1749 132.578 56.0545 130.866 56.0545C129.463 56.0545 128.123 56.8479 126.971 58.7462V56.5991C126.971 56.3801 126.788 56.2038 126.566 56.2094L122.93 56.3061C122.753 56.3118 122.616 56.4512 122.616 56.6247V56.6702C122.616 56.828 122.731 56.9631 122.886 56.9844C124.098 57.1536 124.265 57.7224 124.264 58.3125V68.4765ZM164.174 56.2009C164.258 56.2009 164.339 56.2336 164.398 56.2919C164.463 56.3516 164.497 56.4313 164.499 56.5194L164.51 58.8998C164.51 58.8998 165.695 56.1071 169.538 56.1071H169.573C171.969 56.1071 173.342 57.6143 173.342 60.2421V68.4637C173.342 69.1875 173.53 69.425 174.697 69.4975C174.867 69.5074 175 69.6468 175 69.816C175 69.9909 174.855 70.1345 174.677 70.1345H169.492C169.313 70.1345 169.168 69.9909 169.168 69.8146C169.168 69.6439 169.299 69.5046 169.463 69.4904C170.406 69.4107 170.556 69.1761 170.556 68.4637V61.044C170.556 58.5926 169.85 57.6399 168.038 57.6399C166.812 57.6399 165.811 58.6936 165.185 59.578C165.185 59.578 164.865 59.9733 164.519 60.7184L164.556 68.4623C164.556 69.1747 164.703 69.4093 165.619 69.4889C165.783 69.5032 165.913 69.6439 165.913 69.8075C165.913 69.9909 165.767 70.1345 165.59 70.1345H160.437C160.259 70.1345 160.114 69.9909 160.114 69.8146C160.114 69.6468 160.248 69.5074 160.416 69.496C161.584 69.4235 161.77 69.1875 161.77 68.4637V58.3139C161.77 57.7224 161.603 57.1508 160.385 56.9801C160.231 56.9588 160.114 56.8223 160.114 56.6645V56.6175C160.114 56.4426 160.252 56.3033 160.429 56.2976L164.174 56.2009Z" fill="black"/>
<path d="M62.886 41.7469C72.0236 46.883 74.1513 58.3978 67.7928 70.0492C62.2056 80.29 50.0047 84.6639 40.9132 79.451C31.8202 74.2354 30.0457 59.6875 33.9536 51.3166C39.6274 39.159 52.7897 36.0705 62.886 41.7469Z" fill="black"/>
<path d="M62.6739 50.5815C64.4628 52.4655 65.0192 55.3236 64.7093 57.6684C64.3533 60.3417 62.7099 62.8158 59.9783 64.4553C57.8117 65.7578 54.9648 66.2754 52.1639 66.301C52.1409 66.739 52.0529 68.2476 52.0083 68.4865C51.9434 68.8377 51.818 69.0283 51.6652 69.2245C51.3639 69.6127 50.8421 69.8615 50.3231 70.008C49.9123 70.1218 49.5044 70.1729 49.2146 70.1729C49.1671 70.1729 49.1195 70.1687 49.0719 70.1644C48.7678 70.1303 48.429 69.9881 48.22 69.7592C48.011 69.5274 47.8928 69.2373 47.8654 68.9074L47.8423 68.6088C47.7832 68.3529 47.4589 55.362 47.5209 55.5938C47.5684 54.0368 50.1156 53.7666 51.498 54.041C52.8832 54.3155 52.533 55.9763 52.4955 58.0168C52.4955 58.0168 52.4292 60.7 52.3009 63.5353C54.0653 63.4685 55.4664 62.9722 56.7767 62.3309C59.4248 61.0341 60.8259 59.0477 60.8259 56.1228C60.8259 53.1978 57.94 49.9217 52.6137 49.9217C47.2873 49.9217 45.0011 51.2469 42.4223 53.3514C41.8414 53.8263 41.3931 54.3041 40.9707 54.6183C40.5469 54.9326 39.4211 54.9809 39.1213 54.2444C38.7566 53.3571 39.4355 52.3674 39.8348 51.8882C40.4619 51.136 42.0057 49.6217 43.7182 48.7415C45.6801 47.7319 48.0787 46.6441 51.4187 46.5602C54.4401 46.4863 59.2114 46.7266 62.648 50.5559M51.1217 72.0897C50.8435 71.8764 50.5322 71.73 50.2165 71.6688C50.1098 71.6475 49.9988 71.6361 49.8907 71.6361C49.2968 71.6361 48.713 71.9589 48.3324 72.5007C48.0153 72.95 47.8841 73.4889 47.9677 74.0093C48.0225 74.3435 48.1479 74.6321 48.3353 74.8469C48.5443 75.0886 48.8643 75.2749 49.2622 75.3872C49.4914 75.4498 49.7264 75.4839 49.9613 75.4839H49.9628C50.4759 75.4839 50.9372 75.3303 51.2962 75.0459C51.7128 74.7089 51.9391 74.2326 51.9347 73.6993C51.929 73.0808 51.6263 72.4765 51.1217 72.0897Z" fill="white"/>
</svg>
