<svg width="207" height="120" viewBox="0 0 207 120" fill="none" xmlns="http://www.w3.org/2000/svg">
<path d="M67.4841 49.6483C66.5488 49.4078 65.471 49.3009 65.471 49.3009C66.2549 47.5908 68.3125 44.1081 69.3635 44.7493C70.281 45.3105 68.1076 48.7041 67.4841 49.6483ZM64.6071 51.3317C64.6071 51.3317 65.0969 51.3406 65.6759 51.59C65.2573 52.0711 64.1261 53.1399 63.7966 53.3893C64.1172 52.1066 64.6071 51.3317 64.6071 51.3317ZM61.6766 51.3139C61.6766 51.3139 60.4741 53.0687 59.0312 58.1279C57.1161 59.936 53.0456 63.8285 49.0107 67.2043C48.8147 65.8682 49.5273 61.4859 51.7273 58.3684C55.798 52.5966 61.6766 51.3139 61.6766 51.3139ZM49.3313 68.9679C49.3313 68.9234 49.4828 68.763 49.5986 68.6561C49.8034 68.4513 56.8935 61.9758 58.4701 60.417C58.4701 60.417 56.564 67.4625 55.5218 74.2855C55.4327 74.2677 55.1655 74.4012 54.6044 74.3567C54.0432 74.3122 50.8545 74.2142 49.465 69.6449C49.3937 69.3687 49.3224 69.0124 49.3313 68.9679ZM51.8432 84.0031C51.8432 84.0031 50.6407 85.7757 49.6965 86.702C48.7524 87.6283 46.775 89.0891 46.0713 87.6016C45.2162 85.7757 48.6811 82.863 51.8432 84.0031ZM74.7968 58.7425C74.8948 57.638 74.8414 56.4177 74.494 55.4469C74.494 55.4469 73.3984 51.7949 68.9627 50.0491C68.9627 50.0491 71.6527 46.8069 72.0713 44.1615C72.3742 42.2287 70.5659 41.6052 68.2502 42.9055C68.2502 42.9055 65.7739 43.8764 63.1018 48.5884C62.9414 48.8733 62.8257 49.105 62.6565 49.4078C62.5851 49.4256 55.3793 50.4232 49.9103 55.9545C44.4413 61.4947 43.5417 67.9613 44.0583 70.2327C44.1296 70.5444 44.183 70.874 44.2276 71.0432L43.9158 71.3105C43.6041 71.5777 42.455 72.4506 42.3303 72.6733C42.3303 72.6733 42.6599 73.083 43.0607 73.0562C43.4704 73.0384 43.8178 72.7712 43.9871 72.6554C44.1296 72.5664 44.6195 72.2992 44.6818 72.2992C44.7709 72.3882 45.2964 73.4393 46.5167 74.5171C48.3159 76.1025 50.5516 76.726 53.1258 76.5657C53.8562 76.5211 54.453 76.4232 55.2278 76.254C55.2278 76.254 54.542 79.3981 53.6691 81.046C53.6246 81.0638 53.4109 81.037 53.0901 81.037C51.7273 81.0192 47.6212 81.3844 44.3433 84.3595C41.0655 87.3344 41.0655 92.6698 45.3677 91.9305C45.3677 91.9305 49.3759 91.5029 53.3485 85.7935C53.3485 85.7935 53.5356 85.5173 53.6869 85.3214C53.7582 85.2412 54.8537 86.319 55.3882 87.1563L59.0134 83.629C58.6126 82.7027 56.6174 81.6605 56.0652 81.5448C56.0652 81.5448 58.0247 77.6256 58.8976 75.0782C59.0134 75.0069 59.5033 74.615 59.7973 74.4457C60.3494 74.1162 61.7568 73.0652 61.1511 72.5129C61.1511 72.5129 61.0531 72.406 60.6612 72.5841C60.2693 72.7801 59.6814 73.1631 59.5657 73.1988C59.5657 73.1988 61.7034 66.8035 62.9237 57.8428C62.986 57.3797 63.0839 56.774 63.1908 56.4266L63.2978 56.2753C63.2978 56.2753 64.812 54.7432 65.2929 54.3156C65.7829 53.8881 67.11 52.3472 67.11 52.3472C67.11 52.3472 70.949 54.8144 70.183 60.8802C69.417 66.9549 65.0169 69.5914 62.5496 69.7517C62.5496 69.7517 61.6677 69.7339 61.641 70.2505C61.6142 70.8384 62.4159 70.7938 62.8613 70.7938C65.5869 70.7671 68.7935 68.6383 70.7085 66.9014C73.0867 64.7459 74.4851 61.9668 74.7968 58.7425ZM151.452 38.648C150.391 37.5079 150.463 35.477 151.63 35.4592C152.957 35.4236 151.977 37.882 151.452 38.648ZM127.705 36.6973C129.407 36.7864 125.657 46.5842 123.207 49.3454C122.958 49.6305 125.799 36.5904 127.705 36.6973ZM115.244 56.6671C114.309 56.5424 113.641 55.6071 114.042 55.2954C114.443 54.9748 115.155 55.6071 115.244 56.6671ZM115.217 58.1101C115.226 58.4753 115.155 58.9741 115.146 59.1255C114.915 60.7287 113.962 64.3896 111.441 63.9977C108.92 63.6147 109.561 59.5531 110.408 58.2526C110.568 58.0032 110.808 57.7003 111.093 57.5846C111.957 57.3797 112.403 56.9878 112.536 56.2039C112.973 57.3174 113.721 58.0655 115.217 58.1101ZM104.573 54.1019C104.734 51.8127 105.286 43.0481 106.907 43.351C108.528 43.6538 105.883 52.5431 104.573 54.1019ZM99.8081 65.886C99.6032 66.9637 99.3983 68.0505 99.1935 69.1371C98.7125 71.7202 98.1246 74.2409 97.4298 76.726C97.0914 77.8929 96.8242 79.0775 96.459 80.2265C96.2007 81.0727 95.595 84.1991 94.2857 83.8428C93.965 83.7537 93.8136 83.4598 93.7869 83.1392C93.7334 82.6314 93.9294 82.1059 94.063 81.6695C94.2857 80.8945 94.5173 80.1196 94.731 79.3269C95.3189 77.3139 95.9513 75.2831 96.5392 73.2789C96.9044 72.1567 97.2251 71.0254 97.5813 69.9031C98.0356 68.4601 98.3652 67.2488 98.7838 65.8682C99.2736 65.9395 99.5676 65.9216 99.8081 65.886ZM97.7684 64.256C96.7351 63.8908 96.085 62.6438 95.8711 62.047C95.7464 61.7264 95.4792 60.4616 96.4857 60.2122C97.5457 59.9539 99.0777 61.5749 97.7684 64.256ZM66.0055 78.7034C65.9788 78.739 64.5804 75.6304 66.8517 73.2789C67.3594 72.7534 68.3748 72.2368 68.8736 73.2611C69.3635 74.2587 68.3837 75.5859 68.2947 75.7284C68.1076 76.0491 66.2905 78.3382 66.0055 78.7034ZM153.492 46.6555C153.474 47.3057 152.405 50.0224 150.944 49.2119C149.617 48.4814 151.684 46.415 153.492 46.6555ZM157.348 44.4822C156.752 42.9145 155.273 41.7833 153.999 40.6966C153.286 40.0998 152.833 39.7257 152.512 39.4942C152.859 38.8885 152.868 38.8439 153.011 38.5856C153.509 37.5702 154.062 36.2252 153.5 35.0139C152.859 33.6244 151.077 33.4195 149.866 34.2657C149.323 34.6487 148.931 35.2276 148.717 35.8333C148.112 37.5257 148.922 38.7638 149.822 40.0018C149.902 40.1177 150.401 40.7055 150.401 40.7055C150.401 40.7055 149.341 42.772 149.02 43.3331C148.236 44.8206 147.319 46.228 146.446 47.6887C145.573 49.105 143.258 52.7925 141.235 52.0443C138.376 50.9933 139.356 47.2879 141.752 41.9614C142.945 39.316 146.829 29.6072 146.197 28.5027C145.929 28.0396 144.922 27.6566 143.801 28.4938C142.963 29.1084 142.456 30.0526 142.045 30.9255C138.046 39.5209 137.058 44.4465 136.568 46.4595C136.318 47.4661 136.158 48.5616 136.105 49.6216C135.98 52.267 134.555 55.5804 132.471 55.4201C130.377 55.2598 130.939 51.5188 131.553 50.2807C131.918 49.5236 132.462 48.8733 133.192 48.4547C133.486 48.2855 133.842 48.1608 134.19 48.1251C134.92 48.0361 135.383 48.2143 135.428 47.5373C135.472 46.8693 134.51 46.8515 133.86 46.8248C130.11 46.8248 127.643 51.3496 127.144 54.4938C127.064 54.9391 126.823 56.2752 127.135 57.3707C126.788 57.9765 125.853 58.7425 124.739 58.7514C122.423 58.7781 122.655 55.055 122.86 52.8103C122.895 52.4452 122.949 52.0621 123.091 51.7415C123.216 51.4476 123.501 51.1447 123.706 50.8953C127.91 46.0409 132.791 34.0519 128.926 33.8114C125.069 33.5709 121.666 42.772 120.784 45.5332C120.277 47.1365 119.849 48.8288 119.493 50.4945C119.324 51.3941 118.958 53.4516 118.843 54.4938L118.736 54.7521C118.424 55.3756 117.373 56.1506 116.749 56.3643C116.732 56.3999 116.634 55.5538 116.233 54.8411C115.378 53.3269 113.445 53.2914 112.688 54.7164C112.144 53.71 110.791 53.9415 110.176 54.2533C108.466 55.1083 106.444 57.9497 105.874 61.0761C105.82 61.3612 105.785 61.6729 105.66 61.9312C104.965 63.294 104.146 63.8285 103.736 64.069C103.807 63.2851 104.164 58.9296 104.297 57.3262C104.582 56.8096 104.867 56.2841 105.152 55.7853C110.319 46.9316 110.105 40.9905 107.629 40.5363C105.081 40.0642 103.46 42.9412 102.266 48.4637C101.901 50.1738 101.607 51.9464 101.411 53.7545C101.313 54.8233 101.215 55.8744 101.117 56.9343C100.93 58.591 100.369 63.3742 100.031 64.8439C99.7369 64.8527 99.2291 64.7192 99.0955 64.6479C99.1579 64.4431 99.2113 64.2114 99.2736 63.9977C99.4696 63.1515 99.5498 62.5636 99.5409 61.8333C99.5142 59.8737 97.6882 57.255 94.7488 58.1814C92.237 58.9741 92.041 62.3231 93.9026 64.2292C95.0873 65.4407 96.7797 65.6099 96.7797 65.6099C96.557 65.9483 96.2007 66.4561 96.0048 66.7322C92.1925 72.0943 90.9187 70.5623 90.8119 70.1615C90.6783 69.6537 90.8564 69.0124 90.9366 68.5225C91.1593 67.1598 91.6135 65.1734 90.6338 64.158C88.8345 62.2876 86.0822 65.1734 85.0401 66.3046C84.6482 66.7322 84.4166 67.0884 84.2829 67.0617C84.1494 67.0351 84.1137 66.7143 84.0959 66.6164C83.8287 65.3605 82.7866 64.3451 81.3347 64.7103C78.9832 65.2981 77.8253 68.6918 76.9168 70.5623C75.9281 72.5753 74.9126 74.615 73.6122 76.4855C73.6122 76.4855 71.6081 79.612 69.5595 80.2443C67.8582 80.7609 67.0031 80.2087 66.825 79.9949C66.6379 79.7812 66.7537 79.7544 66.825 79.6653C66.825 79.6653 70.9222 75.9066 71.8129 72.602C72.4542 70.2416 70.4591 67.9703 66.2727 72.0141C62.0864 76.0669 62.3803 80.8233 62.3803 80.8233L62.4159 81.1617L62.3357 81.2241C61.9973 81.5804 59.8506 82.293 61.0621 82.9966C61.7212 83.3796 62.6743 82.6314 62.8791 82.6671C63.0839 82.9253 63.7074 84.0654 65.2929 84.4307C69.8891 85.4996 73.1847 80.1196 74.975 76.9398C75.4649 76.0668 75.8746 75.2296 76.4447 74.1785C76.997 73.0741 79.1347 68.38 80.5063 68.38C81.1922 68.38 81.5128 69.1994 81.3971 69.8051C81.2189 70.8295 80.4796 71.6311 79.963 72.5129C79.1792 73.7956 77.6917 76.9575 78.2172 78.5965C78.3597 79.0418 78.6359 79.4426 79.1079 79.5852C81.8513 80.3779 83.4635 74.2765 83.8643 72.4773C84.0069 71.8449 84.0602 71.5777 84.1226 71.0165C84.1672 70.589 84.1849 70.108 84.3096 69.7072C84.568 68.8877 85.9932 66.9727 86.8927 66.75C87.5608 66.5897 87.6944 67.1686 87.6944 67.7031C87.6944 70.0011 84.3898 74.4102 87.73 75.8887C91.088 77.3762 96.4056 67.2845 97.0202 67.2131C97.1804 67.1686 95.5327 71.9874 95.3189 72.6465C94.7043 74.3567 92.914 79.4426 92.6023 80.3155C91.1148 84.4485 92.1747 87.4502 94.9626 87.3166C95.8979 87.272 101.296 87.3879 103.228 70.01C103.362 68.8165 103.62 66.4917 103.709 65.3248C103.718 65.2981 105.037 64.5767 105.794 63.1337C105.794 65.9395 107.254 68.184 110.381 67.9079C111.851 67.7743 116.678 66.1087 116.937 57.7716C117.079 57.6648 117.979 57.2194 118.691 56.3286C118.745 59.4462 119.6 61.6818 121.034 62.3944C123.216 63.4811 125.657 61.5037 127.821 58.885C128.926 60.0073 129.932 60.2567 130.752 60.1944C133.228 59.9895 135.855 56.0169 136.594 53.9772C136.612 53.9772 139.952 61.0405 146.927 49.6928C148.727 46.7535 151.221 42.0416 151.443 41.6319C152.708 42.8343 153.304 43.627 153.518 44.7405C153.581 45.07 153.589 45.364 153.589 45.364L153.402 45.3818C151.523 45.5955 150.16 46.1033 149.207 47.5284C147.871 49.5147 148.976 52.169 151.523 52.3115C156.083 52.5609 159.014 48.8378 157.348 44.4822ZM161.864 50.8063H161.455V49.3721H161.792C162.265 49.3721 162.496 49.6127 162.496 50.0848C162.496 50.3342 162.425 50.5479 162.301 50.6637C162.221 50.7528 162.042 50.8063 161.864 50.8063ZM163.022 52.5431H163.735V52.3917H163.699C163.512 52.3917 163.406 52.3205 163.262 52.0889C162.541 50.9933 162.541 50.9933 162.113 50.9131C162.622 50.8953 163.005 50.539 163.005 50.0758C163.005 49.8354 162.907 49.6127 162.71 49.4613C162.532 49.3098 162.229 49.2386 161.838 49.2386H160.493V49.39C160.894 49.4078 160.964 49.4701 160.964 49.7908V52.0087C160.964 52.3293 160.894 52.3828 160.493 52.4095V52.5609H161.909V52.4095C161.508 52.3917 161.437 52.3293 161.437 52.0087V50.9933H161.704C161.864 50.9933 161.971 51.0378 162.069 51.1447C162.167 51.2605 162.345 51.5366 162.524 51.8572C162.764 52.2313 162.889 52.4184 163.022 52.5431ZM164.741 51.0022C164.741 52.5253 163.512 53.7545 161.989 53.7545C160.475 53.7545 159.236 52.5164 159.236 51.0022C159.236 49.488 160.465 48.2498 161.989 48.2498C163.512 48.2498 164.741 49.488 164.741 51.0022ZM165.088 51.0022C165.088 49.3009 163.699 47.9114 161.989 47.9114C160.279 47.9114 158.889 49.3009 158.889 51.0022C158.889 52.7124 160.279 54.1019 161.989 54.1019C163.699 54.0929 165.088 52.7034 165.088 51.0022Z" fill="black"/>
</svg>
