<svg width="207" height="120" viewBox="0 0 207 120" fill="none" xmlns="http://www.w3.org/2000/svg">
<path d="M70.5006 55.4037H69.0972V53.0171H75.9492C78.7486 53.0171 80.7149 54.7432 80.7149 57.6327C80.7149 60.3945 78.8161 61.5352 78.1707 61.6628V61.7079C78.1707 61.7079 78.6435 61.9255 78.9287 62.4809L80.4147 65.4303C80.6548 65.8806 81.0151 65.9257 81.4879 65.9257H81.7656V68.3198H80.2796C79.1388 68.3198 78.6435 68.1471 78.1482 67.179L76.1894 63.3214C75.8667 62.721 75.544 62.6085 74.7484 62.6085H73.3225V68.3198H70.5006V55.4037ZM75.5665 60.1919C76.9924 60.1919 77.833 59.3063 77.833 57.7753C77.833 56.2667 76.9924 55.4037 75.6115 55.4037H73.3225V60.1919H75.5665Z" fill="black"/>
<path d="M88.3249 57.0698C91.4695 57.0698 93.1957 59.3738 93.1957 62.2858C93.1957 62.6085 93.1281 63.2989 93.1281 63.2989H85.5481C85.7657 65.2352 87.1842 66.2484 88.8428 66.2484C90.6139 66.2484 91.9273 65.0176 91.9273 65.0176L93.0681 66.9163C93.0681 66.9163 91.387 68.5749 88.6476 68.5749C85.0077 68.5749 82.7412 65.9407 82.7412 62.8186C82.7412 59.4339 85.0302 57.0698 88.3249 57.0698ZM90.3963 61.4002C90.3513 60.0868 89.4507 59.1787 88.3249 59.1787C86.9215 59.1787 85.9308 60.0193 85.6306 61.4002H90.3963Z" fill="black"/>
<path d="M96.0703 60.1243C96.0703 59.8016 95.8977 59.6515 95.5975 59.6515H94.7344V57.325H97.2561C98.2242 57.325 98.697 57.7753 98.697 58.5558V58.8785C98.697 59.1187 98.652 59.3513 98.652 59.3513H98.697C99.1698 58.4282 100.356 57.0698 102.577 57.0698C105.016 57.0698 106.412 58.3381 106.412 61.2501V65.5429C106.412 65.8431 106.585 66.0157 106.885 66.0157H107.748V68.3198H105.136C104.101 68.3198 103.673 67.892 103.673 66.8563V61.8129C103.673 60.4771 103.328 59.569 101.947 59.569C100.483 59.569 99.38 60.4921 98.9972 61.8129C98.8471 62.2632 98.7796 62.7586 98.7796 63.2764V68.3198H96.0628V60.1243H96.0703Z" fill="black"/>
<path d="M109.864 59.5014H108.446V57.325H109.932V54.3305H112.604V57.325H115.103V59.5014H112.604V63.9444C112.604 65.7531 114.03 66.0157 114.78 66.0157C115.08 66.0157 115.275 65.9707 115.275 65.9707V68.3648C115.275 68.3648 114.93 68.4323 114.435 68.4323C112.904 68.4323 109.864 67.982 109.864 64.2971V59.5014Z" fill="black"/>
<path d="M125.595 52.9045C127.749 52.9045 131.261 53.8351 131.261 56.1166V57.37H129.835V56.5294C129.835 55.111 127.373 54.3305 125.632 54.3305C122.27 54.3305 119.681 56.9572 119.681 60.6271C119.681 64.2445 122.248 67.1565 125.692 67.1565C128.822 67.1565 130.653 65.0251 130.653 65.0251L131.516 66.1208C131.516 66.1208 129.422 68.5749 125.677 68.5749C121.234 68.5749 118.112 65.0401 118.112 60.6196C118.12 56.2442 121.332 52.9045 125.595 52.9045Z" fill="black"/>
<path d="M138.728 57.2199C141.895 57.2199 144.462 59.6365 144.462 62.8411C144.462 66.1208 141.895 68.575 138.751 68.575C135.584 68.575 133.017 66.1208 133.017 62.8411C133.017 59.629 135.584 57.2199 138.728 57.2199ZM138.751 67.2616C141.055 67.2616 142.954 65.3628 142.954 62.8411C142.954 60.387 141.055 58.5558 138.751 58.5558C136.424 58.5558 134.526 60.387 134.526 62.8411C134.526 65.3628 136.417 67.2616 138.751 67.2616Z" fill="black"/>
<path d="M146.249 59.2462C146.098 58.856 145.881 58.7509 145.491 58.7509H145.295V57.475H145.881C146.916 57.475 147.239 57.6927 147.607 58.6608L150.211 65.4303C150.406 65.9707 150.579 66.7062 150.579 66.7062H150.624C150.624 66.7062 150.797 65.9707 150.992 65.4303L153.603 58.6608C153.971 57.6927 154.294 57.475 155.307 57.475H155.87V58.7509H155.675C155.285 58.7509 155.052 58.856 154.917 59.2462L151.382 68.3197H149.783L146.249 59.2462Z" fill="black"/>
<path d="M162.054 57.2199C165.049 57.2199 166.602 59.5239 166.602 62.2182C166.602 62.4734 166.557 62.9537 166.557 62.9537H158.234C158.279 65.693 160.193 67.2616 162.437 67.2616C164.418 67.2616 165.694 65.9257 165.694 65.9257L166.407 67.0214C166.407 67.0214 164.831 68.575 162.377 68.575C159.165 68.575 156.71 66.2484 156.71 62.9087C156.703 59.3513 159.142 57.2199 162.054 57.2199ZM165.094 61.7904C165.004 59.5465 163.63 58.4507 162.032 58.4507C160.245 58.4507 158.669 59.614 158.302 61.7904H165.094Z" fill="black"/>
<path d="M169.537 59.2238C169.537 58.9236 169.364 58.7509 169.064 58.7509H168.163V57.4826H169.672C170.58 57.4826 170.985 57.8503 170.985 58.7134V59.4489C170.985 59.8992 170.94 60.267 170.94 60.267H170.985C171.503 58.6309 172.711 57.3775 174.415 57.3775C174.715 57.3775 175 57.4451 175 57.4451V58.886C175 58.886 174.737 58.841 174.46 58.841C172.929 58.841 171.788 60.0493 171.308 61.6404C171.09 62.3308 171.007 63.0663 171.007 63.7568V68.3273H169.544V59.2238H169.537Z" fill="black"/>
<path d="M36.9532 59.659C36.3754 59.659 36.0827 59.9817 35.9551 60.4245H37.6512C37.6587 60.0568 37.3735 59.659 36.9532 59.659Z" fill="black"/>
<path d="M58.6652 51.0658L46.7773 46.1576C46.267 45.9474 45.6891 45.9474 45.1788 46.1576L33.2909 51.0658C32.5103 51.3885 32 52.1541 32 53.0021V67.862C32 68.7101 32.5103 69.4681 33.2909 69.7983L45.1788 74.7065C45.6891 74.9167 46.267 74.9167 46.7773 74.7065L58.6652 69.7983C59.4457 69.4756 59.9562 68.7101 59.9562 67.862V53.0021C59.9636 52.1541 59.4532 51.3885 58.6652 51.0658ZM37.291 62.7286C38.1466 62.7286 38.8746 62.1057 38.8746 62.1057L39.6701 63.4491C39.6701 63.4491 38.7095 64.3947 37.1259 64.3947C34.9945 64.3947 33.8537 62.8562 33.8537 61.2726C33.8537 59.524 35.032 58.1656 36.9533 58.1656C38.7095 58.1656 39.7076 59.3889 39.7076 61.0475C39.7076 61.2426 39.6626 61.6479 39.6626 61.6479H35.9026C36.0527 62.3909 36.6531 62.7286 37.291 62.7286ZM44.2406 64.3872C43.1374 64.3872 42.612 63.7718 42.612 63.7718H42.5895C42.5895 63.7718 42.6045 63.9219 42.6045 64.1095V64.2521H40.7283V57.9104C40.7283 57.7528 40.6382 57.6552 40.4731 57.6552H40.0303V55.9816H41.8841C42.477 55.9816 42.7246 56.2368 42.7246 56.8222V58.2181C42.7246 58.5183 42.7021 58.7284 42.7021 58.7284H42.7246C42.7246 58.7284 43.28 58.1505 44.3307 58.1505C45.9518 58.1505 47.01 59.4189 47.01 61.2726C47.0175 63.1639 45.8242 64.3872 44.2406 64.3872ZM58.305 64.2521H56.4512C55.8583 64.2521 55.6032 63.9969 55.6032 63.404V60.7248C55.6032 60.2895 55.5206 59.9743 55.1379 59.9743C54.5375 59.9743 54.1922 60.4621 54.0647 61.1225C54.0196 61.3327 53.9971 61.5503 53.9971 61.7905V64.2521H51.9933V60.7248C51.9933 60.2895 51.9107 59.9743 51.528 59.9743C50.9351 59.9743 50.6049 60.4396 50.4623 61.07C50.4172 61.2876 50.3797 61.5353 50.3797 61.7905V64.2521H48.3834V60.2294C48.3834 60.0643 48.2933 59.9743 48.1282 59.9743H47.6929V58.3006H49.4866C50.027 58.3006 50.3197 58.5633 50.3197 58.9686V59.0511C50.3197 59.1112 50.3047 59.1862 50.3047 59.1862H50.3272C50.6049 58.7735 51.1377 58.158 52.0758 58.158C52.8263 58.158 53.4267 58.4958 53.7419 59.1637H53.7645C54.0797 58.6684 54.7851 58.158 55.6707 58.158C56.7589 58.158 57.5995 58.7509 57.5995 60.387V62.3158C57.5995 62.4809 57.6896 62.571 57.8547 62.571H58.2975V64.2521H58.305Z" fill="black"/>
<path d="M43.8353 59.8466C43.2349 59.8466 42.6646 60.2894 42.6646 61.3176C42.6646 62.038 43.0473 62.7435 43.8353 62.7435C44.4582 62.7435 44.9986 62.2332 44.9986 61.3176C45.0061 60.4245 44.5333 59.8466 43.8353 59.8466Z" fill="black"/>
<path d="M157.829 52.867C157.694 52.867 157.566 52.837 157.438 52.7694L150.579 49.1895L143.719 52.7694C143.307 52.9871 142.796 52.822 142.579 52.4092C142.361 51.9964 142.526 51.4861 142.939 51.2684L150.189 47.4859C150.436 47.3583 150.729 47.3583 150.969 47.4859L158.219 51.2684C158.632 51.4861 158.797 51.9964 158.579 52.4092C158.429 52.7019 158.136 52.867 157.829 52.867Z" fill="black"/>
</svg>
