<svg width="207" height="120" viewBox="0 0 207 120" fill="none" xmlns="http://www.w3.org/2000/svg">
<path d="M158 38.9999H48V80.9903H158V38.9999Z" fill="black"/>
<path d="M151.759 70.625C151.231 70.625 150.702 71.0481 150.702 71.6827C150.702 72.2115 151.125 72.7404 151.759 72.7404C152.288 72.7404 152.817 72.3173 152.817 71.6827C152.711 71.0481 152.288 70.625 151.759 70.625ZM151.759 72.4231C151.336 72.4231 150.913 72.1058 150.913 71.5769C150.913 71.1538 151.231 70.7308 151.759 70.7308C152.182 70.7308 152.606 71.0481 152.606 71.5769C152.5 72.1058 152.182 72.4231 151.759 72.4231Z" fill="white"/>
<path d="M90.8365 47.3558L85.4423 55.9231L80.3654 47.3558H74.125L82.2692 61.6346V72.5289H88.1923V61.7404L97.0769 47.3558H90.8365Z" fill="white"/>
<path d="M143.933 47.3558V72.5289H149.644V47.3558H143.933Z" fill="white"/>
<path d="M107.231 47.0384C99.9325 47.0384 94.1152 52.9615 94.1152 60.1538C94.1152 67.4519 100.038 73.2692 107.231 73.2692C114.529 73.2692 120.346 67.3461 120.346 60.1538C120.346 52.8557 114.529 47.0384 107.231 47.0384ZM107.231 67.5576C103.106 67.5576 99.8268 64.2788 99.8268 60.1538C99.8268 56.0288 103.106 52.7499 107.231 52.7499C111.356 52.7499 114.634 56.0288 114.634 60.1538C114.634 64.2788 111.356 67.5576 107.231 67.5576Z" fill="white"/>
<path d="M151.865 71.6826C152.077 71.6826 152.183 71.5768 152.183 71.3653C152.183 71.1537 152.077 71.048 151.865 71.048H151.336V72.1057H151.548V71.6826C151.654 71.6826 151.654 71.6826 151.76 71.7884C151.76 71.7884 151.865 71.8941 151.865 71.9999L151.971 72.2114H152.288L152.183 71.9999C151.971 71.7884 151.971 71.6826 151.865 71.6826ZM151.76 71.5768H151.548V71.2595H151.654C151.76 71.2595 151.865 71.2595 151.865 71.3653C151.865 71.4711 151.865 71.5768 151.76 71.5768Z" fill="white"/>
<path d="M138.856 59.4135C140.336 58.0385 141.288 55.7115 140.759 53.0673C140.231 50.7404 138.432 47.4615 133.567 47.3558H121.298V52.6442H133.25C134.519 52.6442 135.577 53.7019 135.577 54.9712C135.577 56.2404 134.519 57.2981 133.25 57.2981H122.884V72.5289C122.884 72.5289 129.759 72.5289 133.25 72.5289C134.307 72.5289 135.365 72.6346 136.211 72.3173C138.856 71.4712 141.711 68.7212 141.711 65.2308C141.711 65.2308 141.711 64.7019 141.711 64.5962C141.394 62.0577 140.548 60.3654 138.856 59.4135ZM133.461 67.2404H128.596V62.2692H133.461C134.836 62.2692 136 63.4327 136 64.8077C135.894 66.1827 134.836 67.2404 133.461 67.2404Z" fill="white"/>
<path d="M67.6729 47.3558C71.6921 47.3558 74.9709 50.6346 74.9709 54.6539C74.9709 58.3558 72.2209 61.4231 68.6248 61.8462L75.7113 72.6346H68.9421L62.0671 62.2692V72.6346H56.3555V57.5096H67.2498C68.519 57.5096 69.5767 56.4519 69.5767 55.1827C69.5767 53.9135 68.519 52.8558 67.2498 52.8558H53.9229V47.3558H67.4613C67.4613 47.3558 67.5671 47.3558 67.6729 47.3558Z" fill="white"/>
</svg>
