<svg width="207" height="120" viewBox="0 0 207 120" fill="none" xmlns="http://www.w3.org/2000/svg">
<path d="M55.3219 52.1351C56.5245 50.713 57.0564 50.0575 56.943 49.6994C56.7894 49.3727 56.4998 49.1302 56.1513 49.0363C55.6975 48.8648 55.0773 48.7841 54.7647 48.9682C54.5143 49.1816 54.2863 49.4198 54.084 49.6792L53.7159 50.1054C53.4638 49.8532 53.2117 49.6011 52.9596 49.3918C51.1154 47.7865 48.8538 46.7373 46.4374 46.3661C45.4591 45.3272 44.1834 44.8532 42.9254 45.0398C41.8398 45.2257 40.886 45.8684 40.3059 46.8048C37.8163 47.5693 35.5783 48.9898 33.8266 50.9173C33.4308 50.7988 32.566 50.9526 32.0214 51.2501C31.764 51.3567 31.5691 51.5748 31.492 51.8426C31.4617 52.0116 31.5298 52.2738 32.2055 53.0454C30.4719 55.7925 29.7258 59.0484 30.0902 62.2764C30.4561 65.5052 32.0121 68.4817 34.4543 70.6248C35.3098 71.3664 36.2592 71.9921 37.278 72.4857C42.0048 74.7764 47.5571 74.5877 52.1175 71.9814C52.4885 71.7667 52.6269 71.2994 52.4326 70.9173L52.3772 70.7938C51.6208 69.1196 49.3518 64.0212 50.6124 59.3717C51.1418 57.4251 52.6696 55.3525 53.9882 53.7262C55.393 55.9052 56.0969 58.4623 56.0051 61.0535C55.9228 63.4237 55.1159 65.7117 53.6932 67.6092C53.649 67.6638 53.6273 67.7333 53.6327 67.8034C53.6346 67.8329 53.6415 67.8618 53.6529 67.8891L53.7966 68.2244C53.8362 68.311 53.9179 68.3709 54.0124 68.3828C54.1069 68.3946 54.2007 68.3566 54.2605 68.2824C58.0019 63.532 58.4607 57.0166 55.3219 52.1351ZM38.826 63.1311C38.3309 65.6856 38.217 68.2993 38.4882 70.8871C37.5213 70.3975 36.6186 69.7903 35.8006 69.0792C33.5824 67.1554 32.0865 64.5324 31.5601 61.6435C31.0655 58.938 31.5177 56.1448 32.8408 53.7337C33.345 54.2557 33.9451 54.8583 34.5804 55.4861C36.1309 57.0217 37.8881 58.764 38.7428 60.002C39.237 60.7206 39.0933 61.6284 38.826 63.1311ZM52.3041 51.5981C49.4476 54.47 46.7575 56.0282 44.3045 56.2123C42.4186 56.3535 40.4219 55.7937 38.3697 54.5406C37.0065 53.6742 35.7389 52.6659 34.588 51.5325L34.5073 51.4569C35.912 49.9552 37.6891 48.8522 39.658 48.2597C39.4472 49.0541 39.4069 49.8842 39.5395 50.6954C39.7393 52.1269 40.4947 53.4222 41.6421 54.301C42.4477 54.9312 43.4785 55.1988 44.4888 55.0402C45.4991 54.8815 46.3982 54.3107 46.9718 53.4639C47.7944 52.2753 48.1159 50.8106 47.8668 49.3868C47.8238 49.114 47.7623 48.8444 47.6828 48.5799C49.1179 49.129 50.4443 49.928 51.6007 50.94C51.8376 51.1467 52.0746 51.3686 52.3041 51.6006V51.5981Z" fill="black"/>
<path d="M100.312 59.2456H97.9672V61.8957C97.9672 62.526 98.3328 62.9295 98.958 62.9295C99.4338 62.9209 99.8997 62.7916 100.312 62.5538V64.0187C99.724 64.2813 99.0875 64.417 98.4437 64.4171C97.1025 64.4171 95.9453 63.8019 95.9453 62.0016V59.228H95.025V58.8573L97.7176 55.8316H97.9697V57.8488H100.314L100.312 59.2456ZM127.992 61.3914C126.623 62.0495 125.786 62.4378 124.545 62.4378C122.564 62.4378 121.152 61.225 121.152 59.5205C121.152 57.816 122.579 56.6309 124.601 56.6309C125.773 56.6309 126.834 57.0243 127.878 57.6067V55.4937C126.825 54.909 125.633 54.619 124.429 54.6541C120.786 54.6541 118.704 57.0293 118.704 59.5684C118.704 62.0268 120.549 64.4272 124.25 64.4272C125.559 64.4482 126.849 64.1201 127.989 63.4766L127.992 61.3914ZM77.7501 62.0621V57.8614H75.7332V58.1715C75.2197 57.877 74.6359 57.7272 74.0441 57.7378C71.8809 57.7378 70.933 59.5406 70.933 61.0863C70.933 62.4857 71.8103 64.4247 73.9886 64.4247C74.7112 64.4457 75.408 64.1556 75.9021 63.6279C76.1989 64.05 76.6534 64.3345 77.1627 64.4171L78.6023 63.4539C77.8636 63.3052 77.7501 62.6521 77.7501 62.0621ZM75.7332 62.5386C75.4249 62.8234 75.0183 62.9779 74.5987 62.9698C73.4718 62.9698 73.0255 62.0772 73.0255 61.225C73.0255 60.3021 73.4163 59.0868 74.5609 59.0868C74.9794 59.0939 75.3871 59.2208 75.7357 59.4524L75.7332 62.5386ZM87.5977 61.4065H92.219C92.3173 59.0616 90.7668 57.7353 88.8961 57.7353C86.912 57.7353 85.5027 59.1322 85.5027 61.0964C85.5027 63.1135 86.9675 64.4222 89.2289 64.4222C90.2555 64.4629 91.2668 64.1633 92.1055 63.5699V62.3092C91.1576 62.9925 90.5298 63.2295 89.7205 63.2295C88.4474 63.2245 87.6683 62.5512 87.5977 61.4065ZM89.1104 58.938C89.8895 58.938 90.4214 59.4625 90.5071 60.345H87.7213C87.807 59.4524 88.3213 58.938 89.118 58.938H89.1104ZM111.049 61.4116H115.671C115.769 59.0666 114.219 57.7403 112.348 57.7403C110.366 57.7403 108.957 59.1372 108.957 61.1039C108.957 63.1211 110.422 64.4297 112.683 64.4297C113.71 64.4702 114.722 64.1707 115.562 63.5775V62.3168C114.612 63.0001 113.984 63.2371 113.172 63.2371C111.902 63.2295 111.12 62.5563 111.049 61.4116ZM112.487 58.9431C113.271 58.9431 113.8 59.4675 113.886 60.35H111.092C111.176 59.4574 111.702 58.9431 112.487 58.9431ZM103.438 54.7802H101.421V64.3011H103.438V60.4887C103.437 60.1375 103.583 59.8019 103.84 59.5626C104.097 59.3233 104.442 59.202 104.792 59.228C105.42 59.228 105.838 59.6768 105.838 60.64V64.3011H107.855V60.1987C107.855 58.4514 106.668 57.7403 105.493 57.7403C104.671 57.7428 103.902 58.1431 103.428 58.8145L103.438 54.7802ZM131.559 54.7802H129.542V64.3011H131.559V60.4887C131.558 60.1375 131.704 59.8019 131.961 59.5626C132.218 59.3233 132.563 59.202 132.913 59.228C133.541 59.228 133.959 59.6768 133.959 60.64V64.3011H135.976V60.1987C135.976 58.4514 134.789 57.7403 133.614 57.7403C132.792 57.7428 132.023 58.1431 131.549 58.8145L131.559 54.7802ZM69.5514 55.3929C68.5403 54.9177 67.4388 54.6658 66.3218 54.6541C64.1183 54.6541 62.6938 55.7459 62.6938 57.3899C62.6938 60.8089 67.537 60.2416 67.537 61.8049C67.537 62.3596 67.0504 62.6824 66.1428 62.6824C65.094 62.6824 64.257 62.3596 62.8905 61.4544V63.5094C63.8384 63.996 64.6553 64.4297 66.3218 64.4297C68.4471 64.4297 69.98 63.3682 69.98 61.5402C69.98 58.2144 65.1368 58.6203 65.1368 57.1806C65.1368 56.7091 65.6789 56.4015 66.531 56.4015C67.3428 56.4015 68.1622 56.6385 69.5564 57.2512L69.5514 55.3929ZM80.5258 57.8612L81.895 61.4089L83.2766 57.8612H85.4273L82.5225 64.3009H81.2849L78.5492 57.8612H80.5258ZM138.321 54.6541C138.935 54.6569 139.432 55.1542 139.435 55.7686C139.436 56.2208 139.164 56.629 138.747 56.8026C138.329 56.9761 137.848 56.8807 137.528 56.5609C137.209 56.2411 137.113 55.7601 137.287 55.3425C137.46 54.9249 137.869 54.6531 138.321 54.6541ZM142.917 54.7802H140.9V61.7646C140.9 63.0253 141.248 64.3591 143.358 64.4297L144.001 62.9648C143.136 62.7984 142.924 62.4075 142.924 61.4292L142.917 54.7802ZM154.89 57.8614H152.873V64.3011H154.89V61.4695C154.89 60.2719 155.515 59.6415 156.554 59.6415C156.871 59.6415 157.219 59.7777 157.751 60.1105L158.311 58.3253C157.726 57.8941 157.376 57.7403 156.972 57.7403C156.322 57.7403 155.384 58.1009 154.89 59.3515V57.8614ZM160.625 61.4116H165.247C165.342 59.0666 163.794 57.7403 161.921 57.7403C159.94 57.7403 158.53 59.1372 158.53 61.1039C158.53 63.1211 159.995 64.4297 162.256 64.4297C163.283 64.4702 164.294 64.1707 165.133 63.5775V62.3168C164.183 63.0001 163.555 63.2371 162.746 63.2371C161.477 63.2295 160.698 62.5563 160.625 61.4116ZM162.062 58.9431C162.844 58.9431 163.373 59.4675 163.457 60.35H160.668C160.751 59.4574 161.268 58.9431 162.065 58.9431H162.062ZM170.599 57.7479C169.777 57.7503 169.008 58.1506 168.534 58.822V57.8614H166.517V64.3087H168.534V60.4711C168.541 60.1237 168.689 59.7943 168.945 59.5591C169.201 59.3239 169.541 59.2034 169.888 59.2255C170.516 59.2255 170.934 59.6743 170.934 60.6375V64.3087H172.951V60.2063C172.951 58.459 171.764 57.7479 170.589 57.7479H170.599ZM149.346 54.7802V58.1438C148.824 57.883 148.25 57.7458 147.667 57.7429C145.826 57.7429 144.543 59.1095 144.543 61.0812C144.543 63.0076 145.826 64.4322 147.568 64.4322C148.223 64.4472 148.86 64.218 149.356 63.7893V64.2936H151.373V54.7802H149.346ZM139.339 57.8662V64.3009H137.317V57.8662H139.339ZM148.216 59.1044C148.62 59.1253 149.01 59.2552 149.346 59.4801V62.5437C149.032 62.8732 148.6 63.0639 148.146 63.0732C147.195 63.0732 146.598 62.2941 146.598 61.1216C146.598 59.8382 147.193 59.1044 148.216 59.1044ZM177 62.9194C177 63.7429 176.334 64.4113 175.511 64.4145C174.688 64.4177 174.017 63.7545 174.01 62.931C174.004 62.1076 174.664 61.4339 175.487 61.4242C175.887 61.4188 176.272 61.574 176.557 61.8551C176.841 62.1361 177.001 62.5195 177 62.9194ZM174.308 62.9194C174.308 63.4066 174.602 63.8455 175.053 64.03C175.504 64.2145 176.022 64.1081 176.363 63.7607C176.705 63.4132 176.803 62.8937 176.61 62.4459C176.418 61.9982 175.975 61.711 175.487 61.7192C174.828 61.7233 174.295 62.2595 174.295 62.9194H174.308ZM175.82 63.7187L175.692 63.4665C175.634 63.353 175.561 63.2479 175.475 63.1539C175.407 63.09 175.315 63.0603 175.223 63.0732H175.162V63.7237H174.842V62.1302H175.626C175.966 62.1302 176.13 62.3218 176.13 62.5739C176.133 62.8143 175.942 63.0122 175.702 63.0177C175.838 63.0656 175.881 63.1085 176.042 63.3884L176.226 63.7086L175.82 63.7187ZM175.487 62.816C175.707 62.816 175.78 62.7076 175.78 62.5966C175.78 62.4857 175.669 62.3798 175.452 62.3798H175.157V62.816H175.487Z" fill="black"/>
</svg>
