<svg width="207" height="120" viewBox="0 0 207 120" fill="none" xmlns="http://www.w3.org/2000/svg">
<path d="M147.195 69.9033C146.944 69.9033 146.859 69.8456 146.779 69.7646C146.687 69.6709 146.608 69.4997 146.608 69.0041C146.608 68.514 146.687 68.3428 146.779 68.2491C146.859 68.1644 146.942 68.1103 147.195 68.1103H147.633C147.889 68.1103 147.969 68.1644 148.052 68.2491C148.141 68.3428 148.22 68.514 148.22 69.0041C148.22 69.4979 148.141 69.6691 148.052 69.7646C147.969 69.8456 147.889 69.9033 147.633 69.9033H147.195ZM147.611 69.7501C147.806 69.7501 147.872 69.7231 147.934 69.66C148.004 69.5844 148.052 69.4438 148.052 69.0041C148.052 68.568 148.004 68.4239 147.934 68.3518C147.872 68.2887 147.806 68.2581 147.611 68.2581H147.218C147.029 68.2581 146.958 68.2887 146.9 68.3518C146.824 68.4239 146.776 68.568 146.776 69.0041C146.776 69.4456 146.824 69.5844 146.9 69.66C146.956 69.7231 147.027 69.7501 147.218 69.7501H147.611ZM147.553 69.1357C147.535 69.123 147.514 69.1176 147.456 69.1176H147.266V69.478H147.033V68.5068H147.603C147.682 68.5068 147.73 68.5212 147.762 68.5518C147.806 68.5969 147.824 68.6545 147.824 68.7861C147.824 68.9609 147.78 69.0149 147.664 69.0293V69.0329C147.765 69.0564 147.81 69.078 147.818 69.2258C147.822 69.3375 147.822 69.424 147.831 69.478H147.592C147.58 69.424 147.574 69.3483 147.574 69.2438C147.576 69.1663 147.567 69.1483 147.553 69.1357ZM147.567 68.7068C147.555 68.6942 147.541 68.6942 147.502 68.6942H147.272V68.941H147.502C147.541 68.941 147.555 68.9356 147.567 68.9266C147.576 68.9122 147.59 68.8852 147.59 68.8149C147.588 68.7428 147.576 68.7176 147.567 68.7068ZM140.621 56.5667V63.827C140.621 64.901 141.076 65.3461 141.981 65.3461C143.885 65.3461 145.939 65.3515 145.939 65.3515V69.8384C145.939 69.8384 142.496 69.8474 140.657 69.8474C136.384 69.8474 135.32 68.7789 135.32 65.3515C135.32 63.0521 135.32 47.3639 135.32 47.3639L140.621 47.3621C140.621 47.3621 140.623 51.0472 140.623 51.3355C140.623 51.6257 140.745 51.7572 141.055 51.7572C141.289 51.7572 145.939 51.7662 145.939 51.7662V56.1289C145.939 56.1289 141.315 56.1271 141.057 56.1271C140.798 56.1289 140.621 56.3217 140.621 56.5667ZM132.452 60.7528C132.452 68.2743 130.079 70.0403 125.439 70.0403H122.235C117.596 70.0403 115.222 68.2743 115.222 60.7528C115.222 53.1033 117.463 51.9843 122.235 51.8293H125.439C130.211 51.9843 132.452 53.1051 132.452 60.7528ZM127.126 60.7906C127.126 56.9145 126.721 56.2658 123.837 56.1577C120.954 56.2658 120.549 56.9145 120.549 60.7906C120.549 64.8938 121.002 65.5425 123.837 65.6452C126.673 65.5425 127.126 64.8938 127.126 60.7906ZM107.519 69.8474H112.381V47.3658H107.519V69.8474V69.8474ZM104.696 60.7528C104.696 70.1394 100.713 70.1286 94.0256 70.1286C94.0256 73.5253 94.0256 77.8177 94.0256 77.8177L89.0162 77.8375L89.0091 51.7933C89.0091 51.7933 90.7952 51.8041 94.0468 51.8041C101.336 51.8023 104.696 51.368 104.696 60.7528ZM99.3694 60.7906C99.3694 56.1343 98.8313 56.1343 94.0415 56.1343C94.0415 58.2084 94.0415 64.3928 94.0415 65.6686C98.7676 65.6668 99.3694 65.7389 99.3694 60.7906ZM80.4579 51.7951C80.1375 51.7554 79.8153 51.7302 79.4914 51.7302H78.1444C77.8204 51.7302 77.4983 51.7554 77.1779 51.7951C76.0557 51.9356 74.9317 52.3429 73.9811 53.0601C73.0306 52.3429 71.9066 51.9338 70.7843 51.7951C70.464 51.7554 70.1418 51.7302 69.8179 51.7302H68.4708C68.1469 51.7302 67.8248 51.7554 67.5044 51.7951C64.6899 52.1464 61.8383 54.1503 61.8383 58.6498V69.8474H66.8034V58.4913C66.8034 57.3578 67.3946 56.7343 68.4691 56.7343H69.8161C70.8905 56.7343 71.4818 57.3578 71.4818 58.4913V69.8474H71.5101H76.4468H76.4752V58.4913C76.4752 57.3578 77.0664 56.7343 78.1408 56.7343H79.4879C80.5623 56.7343 81.1535 57.3578 81.1535 58.4913V69.8474H86.1186V58.6498C86.1221 54.1503 83.2723 52.1464 80.4579 51.7951ZM53.9862 69.8474H58.9566V52.1897H53.9862V69.8474ZM51.4426 61.9061C51.1205 59.1598 49.299 55.9396 45.242 55.8333H38.3564C37.5014 55.8333 36.9014 55.1666 36.9014 54.3485V53.7142C36.9014 52.8943 37.5085 52.2293 38.3564 52.2293H50.4213V47.2919H38.7971C34.3772 47.2919 32.4089 50.0417 32.0637 52.9501C32.0248 53.2799 32 53.6151 32 53.9484C32 54.2728 32.023 54.5954 32.0655 54.9702C32.4018 57.8444 34.3648 61.2069 38.7971 61.2069H45.1358C45.989 61.2069 46.5908 61.8772 46.5908 62.6953V63.3296C46.5908 64.1477 45.9731 64.8091 45.1358 64.8091H32.4992V69.8474H44.711C49.1309 69.8474 51.0992 66.8327 51.4462 63.9279C51.4851 63.5945 51.5099 63.2612 51.5099 62.9278C51.5081 62.6016 51.4869 62.2773 51.4426 61.9061Z" fill="black"/>
<path d="M88.9437 47.0162C78.4294 47.0162 75.6079 38.7667 75.3193 37.79C76.4929 37.6296 77.6151 37.5467 78.6577 37.5467C83.2334 37.5467 84.9663 39.1181 84.984 39.1325L85.1469 39.2857V39.0604C85.1469 38.9937 85.1946 32.3228 88.9809 28.89C92.5635 32.2795 92.606 38.9919 92.606 39.0604V39.2803L92.7688 39.1343C92.7865 39.1181 94.6186 37.5179 99.3341 37.5179C100.347 37.5179 101.432 37.5918 102.563 37.7378C101.793 39.9452 98.5676 47.0162 88.9437 47.0162Z" fill="black"/>
<path d="M90.8307 84.597V87.3613H94.3231V88.6281H90.8307V92.551H89.3828V83.3356H95.2135V84.5988H90.8307V84.597Z" fill="black"/>
<path d="M101.267 83.3336C102.122 83.3336 102.446 83.4255 102.744 83.7012C103.248 84.1643 103.558 84.8346 103.558 87.9413C103.558 91.0461 103.248 91.72 102.744 92.1796C102.446 92.4571 102.122 92.549 101.267 92.549H98.6813C97.8281 92.549 97.506 92.4571 97.2068 92.1796C96.7023 91.72 96.3926 91.0461 96.3926 87.9413C96.3926 84.8328 96.7023 84.1625 97.2068 83.7012C97.5042 83.4255 97.8281 83.3336 98.6813 83.3336H101.267ZM98.1892 91.1398C98.2936 91.2317 98.3963 91.2858 98.8371 91.2858H101.113C101.552 91.2984 101.655 91.2317 101.759 91.1398C101.903 91.0083 102.082 90.601 102.082 87.9413C102.082 85.2797 101.903 84.8743 101.759 84.7409C101.655 84.649 101.552 84.5968 101.113 84.5968H98.8371C98.3963 84.5968 98.2919 84.6472 98.1892 84.7409C98.0476 84.8743 97.8688 85.2797 97.8688 87.9413C97.8688 90.5992 98.0476 91.0083 98.1892 91.1398Z" fill="black"/>
<path d="M110.165 83.3336C111.019 83.3336 111.344 83.4255 111.638 83.7012C112.143 84.1643 112.452 84.8346 112.452 87.9413C112.452 91.0461 112.143 91.72 111.638 92.1796C111.342 92.4571 111.017 92.549 110.165 92.549H107.579C106.724 92.549 106.4 92.4571 106.103 92.1796C105.6 91.72 105.291 91.0461 105.291 87.9413C105.291 84.8328 105.6 84.1625 106.103 83.7012C106.4 83.4255 106.724 83.3336 107.579 83.3336H110.165ZM107.087 91.1398C107.19 91.2317 107.294 91.2858 107.733 91.2858H110.011C110.45 91.2984 110.555 91.2317 110.657 91.1398C110.799 91.0083 110.98 90.601 110.98 87.9413C110.98 85.2797 110.797 84.8743 110.657 84.7409C110.555 84.649 110.45 84.5968 110.011 84.5968H107.733C107.294 84.5968 107.19 84.6472 107.087 84.7409C106.946 84.8743 106.765 85.2797 106.765 87.9413C106.765 90.5992 106.947 91.0083 107.087 91.1398Z" fill="black"/>
<path d="M118.313 83.3336C119.414 83.3336 120.009 83.5192 120.513 83.9787C121.108 84.5319 121.391 85.6761 121.391 87.9413C121.391 90.2064 121.108 91.3506 120.513 91.9056C120.009 92.3652 119.414 92.5508 118.313 92.5508H114.382V83.3354H118.313V83.3336ZM119.414 84.8851C119.129 84.6238 118.871 84.5968 118.313 84.5968H115.83V91.2858H118.313C118.871 91.2858 119.154 91.2443 119.414 90.9956C119.763 90.6677 119.919 90.0352 119.919 87.9539C119.919 85.8347 119.761 85.2166 119.414 84.8851Z" fill="black"/>
<path d="M129.295 92.1273C129.024 92.403 128.624 92.5489 127.9 92.5489H124.859C124.147 92.5489 123.733 92.457 123.448 92.1669C123.075 91.7867 122.958 91.338 122.931 89.6513H124.367C124.391 90.7974 124.432 91.0353 124.535 91.138C124.611 91.2173 124.717 91.2839 125.105 91.2839H127.65C128.027 91.2839 128.142 91.2425 128.245 91.138C128.362 91.019 128.387 90.6658 128.387 89.8892C128.387 89.217 128.374 89.0062 128.233 88.8621C128.13 88.7575 128.001 88.7161 127.638 88.6909L124.792 88.426C124.133 88.3611 123.744 88.2314 123.475 87.9538C123.112 87.5862 123.048 87.1502 123.048 85.9374C123.048 84.7535 123.161 84.1751 123.575 83.7534C123.848 83.4759 124.262 83.3317 124.947 83.3317H127.74C128.452 83.3317 128.866 83.4236 129.151 83.7119C129.526 84.094 129.619 84.5156 129.668 86.1627H128.233C128.204 85.0833 128.167 84.8454 128.064 84.7391C127.988 84.6598 127.882 84.5949 127.496 84.5949H125.206C124.845 84.5949 124.73 84.6328 124.625 84.7391C124.507 84.858 124.482 85.2274 124.482 85.9266C124.482 86.5717 124.494 86.7952 124.638 86.9393C124.742 87.0438 124.869 87.0583 125.232 87.0979L128.075 87.3592C128.696 87.4132 129.096 87.5448 129.369 87.8223C129.718 88.1773 129.82 88.626 129.82 89.8748C129.824 91.1542 129.707 91.7074 129.295 92.1273Z" fill="black"/>
<path d="M137.83 92.549H131.649V83.3336H137.83V84.5968H133.097V87.1376H137.018V88.4008H133.097V91.2858H137.83V92.549Z" fill="black"/>
<path d="M144.425 88.9269C144.259 88.7828 143.999 88.7413 143.482 88.7413H140.974V92.549H139.526V83.3336H144.401C144.995 83.3336 145.422 83.4381 145.695 83.7138C146.043 84.0706 146.277 84.5715 146.277 85.9537C146.277 87.5718 145.836 88.0314 144.801 88.1773V88.2025C145.757 88.3882 146.134 88.626 146.187 89.9667C146.236 91.2587 146.277 92.048 146.328 92.549H144.88C144.79 91.9291 144.739 91.0623 144.712 90.0081C144.698 89.2711 144.608 89.0873 144.425 88.9269ZM143.974 87.5322C144.349 87.5322 144.466 87.4655 144.532 87.4007C144.649 87.2817 144.815 86.9916 144.815 86.0438C144.815 85.0941 144.661 84.8184 144.542 84.7013C144.479 84.6346 144.351 84.5968 143.974 84.5968H140.974V87.5322H143.974V87.5322Z" fill="black"/>
<path d="M152.444 92.2336C152.353 92.5363 152.277 92.5886 151.929 92.5886H150.672C150.35 92.5886 150.245 92.5381 150.155 92.2336L147.399 83.3336H148.965L151.254 91.1272H151.449L153.738 83.3336H155.198L152.444 92.2336Z" fill="black"/>
<path d="M156.584 92.549V83.3336H158.032V92.549H156.584Z" fill="black"/>
<path d="M166.309 92.1796C166.013 92.4571 165.688 92.549 164.834 92.549H162.324C161.471 92.549 161.149 92.4571 160.852 92.1796C160.347 91.72 160.036 91.0461 160.036 87.9413C160.036 84.8328 160.345 84.1625 160.852 83.7012C161.149 83.4255 161.473 83.3336 162.324 83.3336H164.834C165.688 83.3336 166.013 83.4255 166.309 83.7012C166.813 84.1643 167.049 84.7679 167.074 86.3627H165.626C165.585 85.204 165.47 84.8761 165.328 84.7409C165.224 84.649 165.121 84.5968 164.682 84.5968H162.482C162.043 84.5968 161.94 84.6472 161.836 84.7409C161.692 84.8743 161.514 85.2797 161.514 87.9413C161.514 90.5992 161.692 91.0083 161.836 91.1398C161.94 91.2317 162.043 91.2858 162.482 91.2858H164.682C165.121 91.2984 165.224 91.2317 165.328 91.1398C165.47 91.0083 165.585 90.747 165.626 89.3774H167.086C167.02 91.2065 166.813 91.72 166.309 92.1796Z" fill="black"/>
<path d="M175 92.549H168.819V83.3336H175V84.5968H170.267V87.1376H174.186V88.4008H170.267V91.2858H175V92.549Z" fill="black"/>
</svg>
