<svg width="207" height="120" viewBox="0 0 207 120" fill="none" xmlns="http://www.w3.org/2000/svg">
<path d="M152.854 69.3785H54.1631V70.239H152.854V69.3785Z" fill="black"/>
<path d="M55.7983 88.6017V80.6631H54V79.6919H55.792V77.8122C55.792 76.2896 56.4186 75.5941 57.9411 75.5941C58.2832 75.6237 58.6213 75.6888 58.9499 75.7884V76.6092C58.7429 76.5719 58.5335 76.5489 58.3233 76.5402C56.8634 76.5402 56.8258 77.2671 56.8822 78.5453V79.6856H58.8872V80.6568H56.8634V88.5954L55.7983 88.6017Z" fill="black"/>
<path d="M67.5964 84.128C67.5964 86.4714 66.2806 88.8523 63.4422 88.8523C60.6039 88.8523 59.2881 86.4714 59.2881 84.128C59.2881 81.7846 60.5976 79.4037 63.4422 79.4037C66.2869 79.4037 67.5964 81.7846 67.5964 84.128ZM63.4422 80.3686C61.2931 80.3686 60.441 82.4613 60.441 84.128C60.441 85.7947 61.2931 87.8874 63.4422 87.8874C65.5914 87.8874 66.4435 85.7884 66.4435 84.128C66.4435 82.4676 65.5914 80.3686 63.4422 80.3686Z" fill="black"/>
<path d="M70.2158 88.6017H69.1444V81.7094C69.1444 81.0139 69.0942 80.3059 69.0566 79.7044H70.1594L70.2158 80.9951C70.5054 80.1132 71.2956 79.4909 72.2208 79.4162C72.5777 79.3974 72.9353 79.3974 73.2922 79.4162V80.4438C73.0792 80.4438 72.8474 80.3748 72.6343 80.3748C71.0491 80.3748 70.2158 81.5089 70.1845 83.2132L70.2158 88.6017Z" fill="black"/>
<path d="M78.4864 84.3974C78.524 86.2771 79.3949 87.8936 81.5754 87.8936C82.8289 87.88 83.9023 86.9921 84.1506 85.7633H85.2721C84.7207 87.8936 83.3924 88.8962 81.237 88.8962C78.5741 88.8962 77.3335 86.6029 77.3335 84.1718C77.3335 81.7407 78.6618 79.4475 81.3122 79.4475C84.2947 79.4475 85.3786 81.6342 85.3786 84.4225L78.4864 84.3974ZM84.2195 83.42C84.1004 81.6969 83.1731 80.3999 81.3247 80.3999C79.5891 80.3999 78.6618 81.8535 78.524 83.42H84.2195Z" fill="black"/>
<path d="M86.8133 79.6919L89.8835 87.1293L92.8471 79.6919H94.0251L90.4912 88.6017H89.282L85.6416 79.6919H86.8133Z" fill="black"/>
<path d="M95.3975 84.3974C95.4351 86.2771 96.306 87.8936 98.4865 87.8936C99.7409 87.8824 100.816 86.9934 101.062 85.7633H102.183C101.632 87.8936 100.304 88.8962 98.1481 88.8962C95.4852 88.8962 94.2446 86.6029 94.2446 84.1718C94.2446 81.7407 95.573 79.4475 98.2233 79.4475C101.206 79.4475 102.29 81.6342 102.29 84.4225L95.3975 84.3974ZM101.137 83.42C101.012 81.6969 100.084 80.3999 98.2421 80.3999C96.5003 80.3999 95.573 81.8535 95.4351 83.42H101.137Z" fill="black"/>
<path d="M105.009 88.6016H103.944V81.7094C103.944 81.0139 103.894 80.3059 103.856 79.7044H104.959L105.009 81.0139H105.046C105.336 80.132 106.126 79.5097 107.051 79.4349C107.406 79.4161 107.762 79.4161 108.117 79.4349V80.4625C107.904 80.4625 107.678 80.3936 107.459 80.3936C105.88 80.3936 105.046 81.5277 105.009 83.2319V88.6016Z" fill="black"/>
<path d="M110.41 79.6919L113.411 87.1481L116.394 79.6919H117.546L112.628 92.0102H111.456L112.803 88.6017L109.113 79.6919H110.41Z" fill="black"/>
<path d="M127.703 82.4237C127.615 81.0578 126.744 80.3999 125.272 80.3999C123.637 80.3999 122.622 82.1042 122.622 84.1593C122.622 86.2144 123.637 87.9187 125.272 87.9187C125.871 87.9688 126.465 87.7771 126.922 87.3863C127.379 86.9954 127.66 86.4381 127.703 85.8385H128.856C128.574 87.8811 127.402 88.8962 125.379 88.8962C122.716 88.8962 121.469 86.6029 121.469 84.1718C121.469 81.7407 122.803 79.4475 125.447 79.4475C127.277 79.4475 128.768 80.5503 128.856 82.4488L127.703 82.4237Z" fill="black"/>
<path d="M131.413 81.039C131.961 80.0154 133.04 79.3895 134.201 79.4225C137.114 79.4225 137.334 81.9977 137.334 83.0252V88.6017H136.269V82.8749C136.269 81.3272 135.379 80.425 133.925 80.425C132.165 80.425 131.369 81.8974 131.369 83.4952V88.6268H130.297V75.7821H131.369L131.413 81.039Z" fill="black"/>
<path d="M140.322 77.1167H139.069V75.7821H140.322V77.1167ZM140.235 88.6017H139.17V79.6919H140.235V88.6017Z" fill="black"/>
<path d="M143.392 75.7821H142.327V88.6017H143.392V75.7821Z" fill="black"/>
<path d="M151.782 87.2608L151.745 87.1919C151.075 88.2265 149.926 88.8497 148.693 88.8461C146.043 88.8461 145.034 86.3398 145.034 84.0841C145.034 81.8285 146.043 79.3974 148.693 79.3974C149.926 79.3803 151.08 80.0011 151.745 81.039L151.782 81.0014V75.7821H152.847V86.5967C152.847 87.2859 152.898 88.0002 152.935 88.6017H151.832L151.782 87.2608ZM148.869 80.3686C146.845 80.3686 146.187 82.2483 146.187 83.9525C146.187 85.6568 146.663 87.8623 148.693 87.8623C151.018 87.8623 151.732 85.9262 151.732 83.9024C151.732 82.0916 150.93 80.3686 148.856 80.3686" fill="black"/>
<path d="M54.3633 63.589L56.8696 57.3234H57.4961L60.0024 63.589H59.3758L58.7054 61.891H55.5726L54.9084 63.589H54.3633ZM58.5362 61.3647L57.1766 57.8121L55.7919 61.3522L58.5362 61.3647Z" fill="black"/>
<path d="M61.1618 57.2983V61.3648C61.1185 61.8449 61.283 62.3206 61.6136 62.6716C61.9441 63.0225 62.4092 63.2151 62.8911 63.2006C63.9312 63.2006 64.5828 62.5114 64.6267 61.3648V57.2983H65.1906V61.3773C65.2473 62.0067 65.0249 62.6293 64.5823 63.0803C64.1397 63.5314 63.5214 63.7655 62.8911 63.7207C62.2613 63.7633 61.6444 63.5285 61.2023 63.0779C60.7602 62.6274 60.5371 62.0062 60.5916 61.3773V57.2983H61.1618Z" fill="black"/>
<path d="M68.411 63.7207C67.9273 63.7359 67.4575 63.5582 67.1049 63.2268C66.7523 62.8954 66.546 62.4375 66.5312 61.9538H67.1578C67.1578 62.9187 67.8909 63.2069 68.7368 63.2069C69.4448 63.2069 70.2531 62.7934 70.2531 61.9914C70.2531 61.3648 69.8019 61.0704 69.2694 60.8949C68.248 60.5566 66.6942 60.2307 66.6942 58.8711C66.6942 57.7746 67.7092 57.1731 68.6992 57.1731C69.5262 57.1731 70.5789 57.4613 70.7481 58.6706H70.1215C70.1215 57.8999 69.3947 57.6994 68.7556 57.6994C68.1165 57.6994 67.2894 58.0252 67.2894 58.7959C67.2894 60.5816 70.842 59.7734 70.842 61.9287C70.842 63.2947 69.6704 63.7145 68.4047 63.7145" fill="black"/>
<path d="M73.3421 57.8247H71.312V57.2983H75.911V57.8247H73.9123L73.906 63.5891H73.3484L73.3421 57.8247Z" fill="black"/>
<path d="M77.4964 63.589H76.9263V57.3233H78.9877C79.5027 57.284 80.0177 57.3996 80.4664 57.6554C80.9644 57.9887 81.2094 58.5914 81.0853 59.1776C80.9612 59.7638 80.4928 60.2155 79.9025 60.3183C80.7045 60.4499 80.8736 60.9887 80.9551 61.7218C81.0679 62.7431 81.0366 63.2131 81.2872 63.6015H80.6606C80.5285 63.1791 80.4547 62.7407 80.4413 62.2983C80.3097 60.8572 80.222 60.6065 79.0817 60.6065H77.4964V63.589ZM78.7057 60.0677C79.5077 60.0677 80.504 60.0176 80.504 58.9461C80.504 57.7369 79.3699 57.8183 78.7684 57.8183H77.5152V60.0677H78.7057Z" fill="black"/>
<path d="M81.9199 63.589L84.4262 57.3234H85.0778L87.5841 63.589H86.9575L86.2808 61.891H83.148L82.4838 63.589H81.9199ZM86.0929 61.3647L84.7395 57.8121L83.3485 61.3522L86.0929 61.3647Z" fill="black"/>
<path d="M88.5239 63.5891V57.2983H89.0941V63.069H92.2583V63.5891H88.5239Z" fill="black"/>
<path d="M94.2902 57.2733H93.4297V63.5891H94.2902V57.2733Z" fill="black"/>
<path d="M95.0024 63.589L97.5087 57.3234H98.1729L100.679 63.589H100.053L99.3822 61.891H96.2493L95.5852 63.589H95.0024ZM99.1754 61.3647L97.8157 57.8121L96.431 61.3522L99.1754 61.3647Z" fill="black"/>
<path d="M139.959 28.0126C134.834 28.0126 130.679 32.1671 130.679 37.292C130.679 42.417 134.834 46.5715 139.959 46.5715C145.084 46.5715 149.238 42.417 149.238 37.292C149.235 32.1686 145.082 28.016 139.959 28.0126ZM147.196 32.1229C146.718 32.4481 146.217 32.7391 145.698 32.9938C145.393 32.3777 145.023 31.7959 144.595 31.2582C144.972 31.025 145.333 30.7653 145.673 30.4813C146.247 30.963 146.758 31.5144 147.196 32.1229ZM143.292 29.0464C144.036 29.3502 144.736 29.7528 145.372 30.2432C145.048 30.508 144.704 30.7489 144.345 30.9637C143.89 30.438 143.379 29.9632 142.822 29.5477C142.993 29.3945 143.15 29.2268 143.292 29.0464ZM144.006 31.1517C143.509 31.4128 142.986 31.6228 142.446 31.7782C142.219 31.2601 141.962 30.7558 141.675 30.2682C141.976 30.1363 142.259 29.9702 142.521 29.7732C143.063 30.1706 143.561 30.6243 144.006 31.1266V31.1517ZM142.91 28.8835C142.784 29.0325 142.648 29.1728 142.503 29.3033C142.013 28.9668 141.493 28.6773 140.949 28.4386C141.618 28.5095 142.276 28.6588 142.91 28.8835ZM142.189 29.5477C141.965 29.7034 141.726 29.8357 141.475 29.9424C141.2 29.5084 140.901 29.09 140.579 28.6893C141.143 28.9194 141.682 29.2048 142.189 29.5414V29.5477ZM140.147 28.7519C140.494 29.1694 140.814 29.609 141.105 30.0677C140.793 30.1614 140.472 30.2182 140.147 30.2369V28.7519ZM140.147 30.6316C140.543 30.6147 140.935 30.543 141.312 30.4186C141.599 30.8921 141.854 31.384 142.076 31.891C141.445 32.0525 140.798 32.1429 140.147 32.1605V30.6316ZM139.758 28.7833V30.2432C139.439 30.2245 139.124 30.1677 138.818 30.074C139.107 29.6243 139.421 29.1913 139.758 28.777V28.7833ZM138.449 29.9424C138.199 29.837 137.962 29.7046 137.741 29.5477C138.244 29.2143 138.779 28.931 139.338 28.7018C139.02 29.1038 138.723 29.5221 138.449 29.9549V29.9424ZM138.987 28.4512C138.44 28.6887 137.916 28.976 137.421 29.3096C137.272 29.1807 137.134 29.0403 137.008 28.8898C137.648 28.6654 138.312 28.5182 138.987 28.4512ZM145.341 44.3723C144.088 43.6956 144.088 42.7557 144.15 42.4111C144.213 42.0665 144.457 42.2169 144.608 42.2169C145.675 42.2055 146.683 41.7213 147.358 40.8948C148.773 39.2404 148.658 36.7712 147.095 35.2557C145.128 33.376 143.041 33.6955 141.694 35.3935C141.289 35.793 140.734 36.0043 140.165 35.9763C139.301 35.9449 139.846 36.6028 139.846 36.7657C139.846 36.9286 139.714 37.0101 139.633 36.985C139.345 36.9036 139.457 37.3359 139.457 37.4675C139.458 37.5713 139.379 37.6583 139.276 37.668C138.912 37.668 139.013 37.9938 139.025 38.0815C139.036 38.2023 138.981 38.3194 138.881 38.3885C138.722 38.5353 138.631 38.742 138.63 38.9587C138.63 39.3535 138.987 39.6229 139.595 40.074C140.009 40.3281 140.268 40.7729 140.284 41.2582C140.28 41.6413 140.339 42.0225 140.46 42.386C140.595 42.6283 140.59 42.9247 140.446 43.162C140.302 43.3993 140.042 43.5409 139.764 43.5327C138.736 43.7049 137.736 44.0125 136.788 44.4475C136.17 44.6638 135.505 44.7071 134.865 44.5728C134.545 44.3475 134.242 44.1004 133.956 43.8334C133.883 43.4285 133.991 43.012 134.251 42.6931C134.571 42.9426 134.975 43.0593 135.378 43.0189C136.01 42.9721 136.638 42.8821 137.258 42.7495C137.386 42.6921 137.532 42.6921 137.659 42.7495C137.962 42.9148 138.327 42.9219 138.637 42.7684C138.946 42.615 139.161 42.3203 139.213 41.9788C139.514 40.9637 138.812 41.2457 138.724 41.2896C138.637 41.3334 138.511 41.3209 138.555 41.2394C138.687 40.9763 138.493 41.0013 138.38 40.9951C138.098 40.9951 137.753 41.2708 137.603 41.3773C137.532 41.4555 137.421 41.4849 137.321 41.4525C136.945 41.2645 135.817 41.5402 135.472 40.9261C135.399 39.895 135.248 38.8708 135.021 37.8622C134.963 37.7283 134.98 37.5734 135.065 37.455C135.347 37.0289 136.137 37.4925 136.563 37.455C136.867 37.4794 137.157 37.3222 137.302 37.054C137.434 36.8848 137.534 36.9788 137.603 36.9349C137.672 36.891 137.603 36.7532 137.647 36.6843C137.69 36.6154 137.716 36.6843 137.803 36.5778C137.891 36.4712 137.803 36.3397 137.835 36.2707C137.96 36.0828 138.305 36.2331 138.098 35.7382C138.023 35.4639 138.1 35.1707 138.298 34.9675C138.543 34.6479 139.501 33.3008 137.816 31.9036C136.13 30.5063 134.57 30.6504 133.518 31.8158C132.465 32.9813 132.998 34.6166 133.104 35.0552C133.171 35.483 132.935 35.9006 132.534 36.064C132.019 36.3453 131.536 36.6814 131.093 37.0665C131.163 33.5053 133.36 30.3328 136.669 29.0151C136.814 29.1926 136.971 29.3601 137.139 29.5163C136.769 29.7858 135.961 30.5063 135.961 30.5063L136.174 30.5502L136.394 30.6128C136.394 30.6128 137.108 29.9863 137.44 29.767C137.701 29.9652 137.985 30.1314 138.286 30.262C138.129 30.5376 137.722 31.2958 137.722 31.2958L137.897 31.4086C137.947 31.4395 137.993 31.4752 138.035 31.5151C138.035 31.5151 138.48 30.6818 138.662 30.4061C139.035 30.5264 139.423 30.598 139.815 30.6191V32.1479C139.602 32.1479 139.038 32.1166 138.812 32.0915L138.586 32.1229L138.668 32.2419C138.724 32.3241 138.774 32.41 138.818 32.4988V32.5301H138.856L139.721 32.5677V35.3497H140.109V34.7231C140.673 34.7231 141.143 34.6605 141.713 34.6103L142.214 34.1655H141.945C141.318 34.2407 140.811 34.2783 140.335 34.3096H140.084V32.5427C140.786 32.5281 141.484 32.4314 142.164 32.2544C142.352 32.7118 142.703 33.8271 142.703 33.8271L143.066 33.7081C143.066 33.7081 142.716 32.6053 142.534 32.1479C143.111 31.9655 143.669 31.7284 144.201 31.4399C144.627 31.9664 144.995 32.5379 145.297 33.1442C145.021 33.2695 144.526 33.4449 144.526 33.4449C144.764 33.4704 144.999 33.5165 145.228 33.5828L145.46 33.4825C145.491 33.564 145.566 33.7269 145.566 33.7269L146.061 33.9462L146.005 33.8083C146.005 33.8083 145.842 33.4136 145.798 33.3196C146.334 33.0598 146.852 32.7625 147.346 32.4299C149.897 36.3365 148.994 41.5507 145.278 44.3723" fill="black"/>
<path d="M129.815 30.4812L129.671 30.6065C129.126 31.089 127.879 32.3609 128.073 33.7393V33.8333L128.136 34.109L128.311 33.9524C129.163 33.0665 129.71 31.9315 129.871 30.713L129.94 30.3308L129.815 30.4812Z" fill="black"/>
<path d="M127.308 32.8872L127.246 33.0564C127.086 33.5005 126.974 33.9606 126.913 34.4286C126.71 35.5485 126.968 36.703 127.628 37.6304L127.716 37.7431L127.809 37.8622L127.929 37.2669C128.045 35.8492 127.901 34.4221 127.502 33.0564L127.371 32.7494L127.308 32.8872Z" fill="black"/>
<path d="M126.394 36.6592V36.8284C126.325 37.7682 126.394 40.0803 128.273 41.3083L128.493 41.4524V41.1893C128.195 39.6003 127.572 38.09 126.663 36.7532L126.45 36.4838L126.394 36.6592Z" fill="black"/>
<path d="M126.713 40.8008V40.9575C126.989 42.2858 128.248 44.4412 130.197 45.0615L130.46 45.1492L130.366 44.8861C129.534 43.2891 128.357 41.8978 126.92 40.8134L126.65 40.6379L126.713 40.8008Z" fill="black"/>
<path d="M130.629 32.48L130.472 32.574C129.019 33.4574 128.342 34.5289 128.392 35.8572V36.1579L128.599 35.9825C129.522 35.0723 130.23 33.9678 130.673 32.7494L130.779 32.4048L130.629 32.48Z" fill="black"/>
<path d="M129.771 35.3809L129.664 35.4812C129.288 35.8383 128.092 37.1103 128.192 38.6955C128.216 38.9605 128.273 39.2214 128.361 39.4724L128.443 39.723L128.599 39.5037C129.33 38.3122 129.774 36.9674 129.896 35.5752V35.2744L129.771 35.3809Z" fill="black"/>
<path d="M129.815 38.119L129.733 38.2444C129.179 39.0187 128.874 39.9429 128.856 40.8947C128.885 41.5405 129.103 42.1636 129.483 42.6867L129.608 42.8747L129.714 42.6742C130.059 41.594 130.207 40.4608 130.153 39.3283C130.153 38.9692 130.109 38.6115 130.021 38.2632L129.94 37.9812L129.815 38.119Z" fill="black"/>
<path d="M130.536 41.0515L130.498 41.183C130.323 41.7316 130.238 42.3052 130.247 42.881C130.25 44.047 130.864 45.1262 131.864 45.7257L132.039 45.8384L132.077 45.6003V45.4124C131.916 43.9118 131.456 42.4587 130.723 41.1392L130.567 40.9261L130.536 41.0515Z" fill="black"/>
<path d="M128.493 44.9425L128.568 45.0678C129.351 46.3773 130.673 48.069 133.154 47.6367L133.361 47.5991L133.242 47.4237C132.778 46.7344 129.771 45.0427 128.706 44.8673L128.417 44.8171L128.493 44.9425Z" fill="black"/>
<path d="M132.158 48.2694L131.77 48.3697L132.145 48.5263C133.718 49.1529 135.692 49.3597 136.838 48.9775C137.228 48.8308 137.576 48.5922 137.854 48.282C139.865 48.4887 141.757 50.1617 142.866 51.5339L142.929 51.6028H143.01C143.158 51.5373 143.292 51.4436 143.405 51.3271L143.48 51.2394L143.411 51.1516C142.577 50.1373 141.551 49.2983 140.391 48.683C138.775 47.8935 135.917 47.2795 132.171 48.2945" fill="black"/>
<path d="M132.246 44.0778V44.2094C132.484 45.6943 133.086 47.643 135.592 47.4237H135.755L135.711 47.267C135.542 46.5966 133.249 44.6354 132.447 44.0841L132.202 43.9587L132.246 44.0778Z" fill="black"/>
<path d="M149.965 30.3496L150.034 30.7318C150.195 31.9519 150.744 33.0877 151.601 33.9712L151.77 34.1278L151.833 33.8521V33.7581C152.027 32.3609 150.78 31.089 150.241 30.6253L150.091 30.5L149.965 30.3496Z" fill="black"/>
<path d="M152.578 32.7494L152.446 33.0815C152.043 34.4461 151.896 35.8738 152.014 37.292L152.133 37.8872L152.227 37.7682L152.315 37.6554C152.974 36.7183 153.221 35.5523 152.998 34.4286C152.94 33.9612 152.833 33.5012 152.678 33.0564L152.609 32.8872L152.578 32.7494Z" fill="black"/>
<path d="M153.549 36.5089L153.33 36.7783C152.422 38.1154 151.802 39.6258 151.506 41.2144V41.4776L151.726 41.3335C153.605 40.0803 153.649 37.7934 153.605 36.8535V36.6843L153.549 36.5089Z" fill="black"/>
<path d="M153.267 40.6379L152.998 40.8134C151.56 41.8978 150.383 43.2891 149.551 44.8861L149.451 45.1492L149.721 45.0615C151.669 44.4349 152.929 42.2858 153.204 40.9575V40.8008L153.267 40.6379Z" fill="black"/>
<path d="M149.238 32.3422L149.339 32.6868C149.746 33.918 150.425 35.0421 151.325 35.9763L151.538 36.158V35.8572C151.619 34.5352 150.961 33.4512 149.527 32.5364L149.376 32.4424L149.238 32.3422Z" fill="black"/>
<path d="M150.065 35.2556V35.5564C150.183 36.9488 150.625 38.2943 151.356 39.4849L151.513 39.7042L151.601 39.4536C151.684 39.2016 151.739 38.941 151.763 38.6767C151.864 37.0915 150.667 35.8195 150.291 35.4624L150.184 35.3621L150.065 35.2556Z" fill="black"/>
<path d="M150.034 38L149.953 38.282C149.865 38.6303 149.821 38.988 149.821 39.3471C149.77 40.4795 149.918 41.6121 150.26 42.693L150.366 42.8935L150.498 42.7055C150.876 42.1752 151.092 41.5459 151.118 40.8947C151.102 39.9338 150.789 39.0013 150.222 38.2256L150.14 38.1003L150.034 38Z" fill="black"/>
<path d="M149.37 40.9324L149.213 41.1391C148.481 42.4586 148.021 43.9117 147.86 45.4123V45.6003L147.897 45.8384L148.073 45.7256C149.077 45.1268 149.691 44.0436 149.689 42.8747C149.701 42.3008 149.617 41.7288 149.439 41.183L149.395 41.0514L149.37 40.9324Z" fill="black"/>
<path d="M151.532 44.8171L151.243 44.8673C150.178 45.0427 147.171 46.747 146.707 47.4237L146.594 47.5991L146.795 47.6367C149.301 48.069 150.598 46.3836 151.381 45.0678L151.456 44.9425L151.532 44.8171Z" fill="black"/>
<path d="M139.577 48.658C138.413 49.2706 137.384 50.11 136.55 51.1267L136.481 51.2144L136.557 51.3021C136.671 51.4162 136.805 51.5095 136.951 51.5778H137.039L137.095 51.5089C138.192 50.1429 140.084 48.4637 142.108 48.257C142.387 48.5658 142.735 48.8041 143.123 48.9525C144.27 49.3347 146.256 49.1467 147.822 48.5013L148.192 48.351L147.804 48.2444C144.044 47.2294 141.206 47.8434 139.589 48.6329" fill="black"/>
<path d="M147.729 43.9462L147.49 44.0715C146.688 44.6229 144.358 46.5778 144.22 47.2544L144.182 47.4111H144.339C146.845 47.6304 147.472 45.6818 147.685 44.1968V44.0652L147.729 43.9462Z" fill="black"/>
<path d="M83.5991 28.6704H86.7696V31.5589H83.5991V28.6704ZM83.8497 34.8358H86.5189V48.9148H83.8497V34.8358Z" fill="black"/>
<path d="M63.743 34.8484H66.4059V48.9274H63.7994V46.8534H63.743C62.7135 48.5076 60.8637 49.4685 58.9184 49.3597C55.9736 49.3597 54.2881 47.1166 54.2881 44.2845V34.886H56.9573V43.2193C56.9573 45.6567 57.5149 47.4487 60.0901 47.4487C61.4474 47.4754 62.6858 46.6779 63.2229 45.4311C63.5766 44.364 63.7564 43.247 63.7555 42.1228L63.743 34.8484Z" fill="black"/>
<path d="M71.7257 36.9223H71.7821C72.642 35.3753 74.2728 34.416 76.0427 34.416C77.0264 34.416 81.3685 34.6729 81.3685 39.1842V48.9273H78.7056V40.0677C78.7056 37.7619 77.7282 36.5088 75.4851 36.5088C74.5226 36.5029 73.596 36.874 72.9036 37.5426C72.5089 37.9373 71.7821 38.5514 71.7821 41.302V48.9273H69.1191V34.8483H71.7257V36.9223Z" fill="black"/>
<path d="M97.6718 39.366C97.534 37.6116 96.7006 36.3835 94.8021 36.3835C92.2959 36.3835 91.2934 38.5828 91.2934 41.8723C91.2934 45.1617 92.2708 47.361 94.8021 47.361C96.5565 47.361 97.6405 46.2206 97.7783 44.2282H100.429C100.203 47.361 97.8661 49.2971 94.7896 49.2971C90.3096 49.2971 88.5239 46.1204 88.5239 41.9976C88.5239 37.8748 90.5853 34.4788 95.0214 34.4788C97.9726 34.4788 100.197 36.3585 100.335 39.3848L97.6718 39.366Z" fill="black"/>
<path d="M104.407 42.3734C104.213 44.8233 105.216 47.386 107.916 47.386C109.978 47.386 111.011 46.584 111.312 44.5414H114.1C113.681 47.7243 111.231 49.3095 107.891 49.3095C103.405 49.3095 101.625 46.1328 101.625 42.01C101.625 37.8872 103.693 34.4912 108.123 34.4912C112.296 34.5789 114.276 37.223 114.276 41.0952V42.4048L104.407 42.3734ZM111.488 40.5376C111.538 38.2005 110.479 36.3834 107.916 36.3834C105.711 36.3834 104.407 38.2632 104.407 40.5376H111.488Z" fill="black"/>
<path d="M117.283 48.8647V36.7218H114.877V34.8735H117.283V31.8722C117.371 28.8083 119.683 28 121.669 28C122.303 28.0372 122.932 28.1294 123.549 28.2757V30.4749C123.098 30.4749 122.659 30.3872 122.208 30.3872C120.711 30.3872 119.846 30.782 119.928 32.3171V34.8735H123.161V36.7218H119.915V48.8647H117.283Z" fill="black"/>
<path d="M152.854 69.3785H54.1631V70.239H152.854V69.3785Z" fill="black"/>
<path d="M55.7983 88.6017V80.6631H54V79.6919H55.792V77.8122C55.792 76.2896 56.4186 75.5941 57.9411 75.5941C58.2832 75.6237 58.6213 75.6888 58.9499 75.7884V76.6092C58.7429 76.5719 58.5335 76.5489 58.3233 76.5402C56.8634 76.5402 56.8258 77.2671 56.8822 78.5453V79.6856H58.8872V80.6568H56.8634V88.5954L55.7983 88.6017Z" fill="black"/>
<path d="M67.5964 84.128C67.5964 86.4714 66.2806 88.8523 63.4422 88.8523C60.6039 88.8523 59.2881 86.4714 59.2881 84.128C59.2881 81.7846 60.5976 79.4037 63.4422 79.4037C66.2869 79.4037 67.5964 81.7846 67.5964 84.128ZM63.4422 80.3686C61.2931 80.3686 60.441 82.4613 60.441 84.128C60.441 85.7947 61.2931 87.8874 63.4422 87.8874C65.5914 87.8874 66.4435 85.7884 66.4435 84.128C66.4435 82.4676 65.5914 80.3686 63.4422 80.3686Z" fill="black"/>
<path d="M70.2158 88.6017H69.1444V81.7094C69.1444 81.0139 69.0942 80.3059 69.0566 79.7044H70.1594L70.2158 80.9951C70.5054 80.1132 71.2956 79.4909 72.2208 79.4162C72.5777 79.3974 72.9353 79.3974 73.2922 79.4162V80.4438C73.0792 80.4438 72.8474 80.3748 72.6343 80.3748C71.0491 80.3748 70.2158 81.5089 70.1845 83.2132L70.2158 88.6017Z" fill="black"/>
<path d="M78.4864 84.3974C78.524 86.2771 79.3949 87.8936 81.5754 87.8936C82.8289 87.88 83.9023 86.9921 84.1506 85.7633H85.2721C84.7207 87.8936 83.3924 88.8962 81.237 88.8962C78.5741 88.8962 77.3335 86.6029 77.3335 84.1718C77.3335 81.7407 78.6618 79.4475 81.3122 79.4475C84.2947 79.4475 85.3786 81.6342 85.3786 84.4225L78.4864 84.3974ZM84.2195 83.42C84.1004 81.6969 83.1731 80.3999 81.3247 80.3999C79.5891 80.3999 78.6618 81.8535 78.524 83.42H84.2195Z" fill="black"/>
<path d="M86.8133 79.6919L89.8835 87.1293L92.8471 79.6919H94.0251L90.4912 88.6017H89.282L85.6416 79.6919H86.8133Z" fill="black"/>
<path d="M95.3975 84.3974C95.4351 86.2771 96.306 87.8936 98.4865 87.8936C99.7409 87.8824 100.816 86.9934 101.062 85.7633H102.183C101.632 87.8936 100.304 88.8962 98.1481 88.8962C95.4852 88.8962 94.2446 86.6029 94.2446 84.1718C94.2446 81.7407 95.573 79.4475 98.2233 79.4475C101.206 79.4475 102.29 81.6342 102.29 84.4225L95.3975 84.3974ZM101.137 83.42C101.012 81.6969 100.084 80.3999 98.2421 80.3999C96.5003 80.3999 95.573 81.8535 95.4351 83.42H101.137Z" fill="black"/>
<path d="M105.009 88.6016H103.944V81.7094C103.944 81.0139 103.894 80.3059 103.856 79.7044H104.959L105.009 81.0139H105.046C105.336 80.132 106.126 79.5097 107.051 79.4349C107.406 79.4161 107.762 79.4161 108.117 79.4349V80.4625C107.904 80.4625 107.678 80.3936 107.459 80.3936C105.88 80.3936 105.046 81.5277 105.009 83.2319V88.6016Z" fill="black"/>
<path d="M110.41 79.6919L113.411 87.1481L116.394 79.6919H117.546L112.628 92.0102H111.456L112.803 88.6017L109.113 79.6919H110.41Z" fill="black"/>
<path d="M127.703 82.4237C127.615 81.0578 126.744 80.3999 125.272 80.3999C123.637 80.3999 122.622 82.1042 122.622 84.1593C122.622 86.2144 123.637 87.9187 125.272 87.9187C125.871 87.9688 126.465 87.7771 126.922 87.3863C127.379 86.9954 127.66 86.4381 127.703 85.8385H128.856C128.574 87.8811 127.402 88.8962 125.379 88.8962C122.716 88.8962 121.469 86.6029 121.469 84.1718C121.469 81.7407 122.803 79.4475 125.447 79.4475C127.277 79.4475 128.768 80.5503 128.856 82.4488L127.703 82.4237Z" fill="black"/>
<path d="M131.413 81.039C131.961 80.0154 133.04 79.3895 134.201 79.4225C137.114 79.4225 137.334 81.9977 137.334 83.0252V88.6017H136.269V82.8749C136.269 81.3272 135.379 80.425 133.925 80.425C132.165 80.425 131.369 81.8974 131.369 83.4952V88.6268H130.297V75.7821H131.369L131.413 81.039Z" fill="black"/>
<path d="M140.322 77.1167H139.069V75.7821H140.322V77.1167ZM140.235 88.6017H139.17V79.6919H140.235V88.6017Z" fill="black"/>
<path d="M143.392 75.7821H142.327V88.6017H143.392V75.7821Z" fill="black"/>
<path d="M151.782 87.2608L151.745 87.1919C151.075 88.2265 149.926 88.8497 148.693 88.8461C146.043 88.8461 145.034 86.3398 145.034 84.0841C145.034 81.8285 146.043 79.3974 148.693 79.3974C149.926 79.3803 151.08 80.0011 151.745 81.039L151.782 81.0014V75.7821H152.847V86.5967C152.847 87.2859 152.898 88.0002 152.935 88.6017H151.832L151.782 87.2608ZM148.869 80.3686C146.845 80.3686 146.187 82.2483 146.187 83.9525C146.187 85.6568 146.663 87.8623 148.693 87.8623C151.018 87.8623 151.732 85.9262 151.732 83.9024C151.732 82.0916 150.93 80.3686 148.856 80.3686" fill="black"/>
<path d="M54.3633 63.589L56.8696 57.3234H57.4961L60.0024 63.589H59.3758L58.7054 61.891H55.5726L54.9084 63.589H54.3633ZM58.5362 61.3647L57.1766 57.8121L55.7919 61.3522L58.5362 61.3647Z" fill="black"/>
<path d="M61.1618 57.2983V61.3648C61.1185 61.8449 61.283 62.3206 61.6136 62.6716C61.9441 63.0225 62.4092 63.2151 62.8911 63.2006C63.9312 63.2006 64.5828 62.5114 64.6267 61.3648V57.2983H65.1906V61.3773C65.2473 62.0067 65.0249 62.6293 64.5823 63.0803C64.1397 63.5314 63.5214 63.7655 62.8911 63.7207C62.2613 63.7633 61.6444 63.5285 61.2023 63.0779C60.7602 62.6274 60.5371 62.0062 60.5916 61.3773V57.2983H61.1618Z" fill="black"/>
<path d="M68.411 63.7207C67.9273 63.7359 67.4575 63.5582 67.1049 63.2268C66.7523 62.8954 66.546 62.4375 66.5312 61.9538H67.1578C67.1578 62.9187 67.8909 63.2069 68.7368 63.2069C69.4448 63.2069 70.2531 62.7934 70.2531 61.9914C70.2531 61.3648 69.8019 61.0704 69.2694 60.8949C68.248 60.5566 66.6942 60.2307 66.6942 58.8711C66.6942 57.7746 67.7092 57.1731 68.6992 57.1731C69.5262 57.1731 70.5789 57.4613 70.7481 58.6706H70.1215C70.1215 57.8999 69.3947 57.6994 68.7556 57.6994C68.1165 57.6994 67.2894 58.0252 67.2894 58.7959C67.2894 60.5816 70.842 59.7734 70.842 61.9287C70.842 63.2947 69.6704 63.7145 68.4047 63.7145" fill="black"/>
<path d="M73.3421 57.8247H71.312V57.2983H75.911V57.8247H73.9123L73.906 63.5891H73.3484L73.3421 57.8247Z" fill="black"/>
<path d="M77.4964 63.589H76.9263V57.3233H78.9877C79.5027 57.284 80.0177 57.3996 80.4664 57.6554C80.9644 57.9887 81.2094 58.5914 81.0853 59.1776C80.9612 59.7638 80.4928 60.2155 79.9025 60.3183C80.7045 60.4499 80.8736 60.9887 80.9551 61.7218C81.0679 62.7431 81.0366 63.2131 81.2872 63.6015H80.6606C80.5285 63.1791 80.4547 62.7407 80.4413 62.2983C80.3097 60.8572 80.222 60.6065 79.0817 60.6065H77.4964V63.589ZM78.7057 60.0677C79.5077 60.0677 80.504 60.0176 80.504 58.9461C80.504 57.7369 79.3699 57.8183 78.7684 57.8183H77.5152V60.0677H78.7057Z" fill="black"/>
<path d="M81.9199 63.589L84.4262 57.3234H85.0778L87.5841 63.589H86.9575L86.2808 61.891H83.148L82.4838 63.589H81.9199ZM86.0929 61.3647L84.7395 57.8121L83.3485 61.3522L86.0929 61.3647Z" fill="black"/>
<path d="M88.5239 63.5891V57.2983H89.0941V63.069H92.2583V63.5891H88.5239Z" fill="black"/>
<path d="M94.2902 57.2733H93.4297V63.5891H94.2902V57.2733Z" fill="black"/>
<path d="M95.0024 63.589L97.5087 57.3234H98.1729L100.679 63.589H100.053L99.3822 61.891H96.2493L95.5852 63.589H95.0024ZM99.1754 61.3647L97.8157 57.8121L96.431 61.3522L99.1754 61.3647Z" fill="black"/>
<path d="M139.959 28.0126C134.834 28.0126 130.679 32.1671 130.679 37.292C130.679 42.417 134.834 46.5715 139.959 46.5715C145.084 46.5715 149.238 42.417 149.238 37.292C149.235 32.1686 145.082 28.016 139.959 28.0126ZM147.196 32.1229C146.718 32.4481 146.217 32.7391 145.698 32.9938C145.393 32.3777 145.023 31.7959 144.595 31.2582C144.972 31.025 145.333 30.7653 145.673 30.4813C146.247 30.963 146.758 31.5144 147.196 32.1229ZM143.292 29.0464C144.036 29.3502 144.736 29.7528 145.372 30.2432C145.048 30.508 144.704 30.7489 144.345 30.9637C143.89 30.438 143.379 29.9632 142.822 29.5477C142.993 29.3945 143.15 29.2268 143.292 29.0464ZM144.006 31.1517C143.509 31.4128 142.986 31.6228 142.446 31.7782C142.219 31.2601 141.962 30.7558 141.675 30.2682C141.976 30.1363 142.259 29.9702 142.521 29.7732C143.063 30.1706 143.561 30.6243 144.006 31.1266V31.1517ZM142.91 28.8835C142.784 29.0325 142.648 29.1728 142.503 29.3033C142.013 28.9668 141.493 28.6773 140.949 28.4386C141.618 28.5095 142.276 28.6588 142.91 28.8835ZM142.189 29.5477C141.965 29.7034 141.726 29.8357 141.475 29.9424C141.2 29.5084 140.901 29.09 140.579 28.6893C141.143 28.9194 141.682 29.2048 142.189 29.5414V29.5477ZM140.147 28.7519C140.494 29.1694 140.814 29.609 141.105 30.0677C140.793 30.1614 140.472 30.2182 140.147 30.2369V28.7519ZM140.147 30.6316C140.543 30.6147 140.935 30.543 141.312 30.4186C141.599 30.8921 141.854 31.384 142.076 31.891C141.445 32.0525 140.798 32.1429 140.147 32.1605V30.6316ZM139.758 28.7833V30.2432C139.439 30.2245 139.124 30.1677 138.818 30.074C139.107 29.6243 139.421 29.1913 139.758 28.777V28.7833ZM138.449 29.9424C138.199 29.837 137.962 29.7046 137.741 29.5477C138.244 29.2143 138.779 28.931 139.338 28.7018C139.02 29.1038 138.723 29.5221 138.449 29.9549V29.9424ZM138.987 28.4512C138.44 28.6887 137.916 28.976 137.421 29.3096C137.272 29.1807 137.134 29.0403 137.008 28.8898C137.648 28.6654 138.312 28.5182 138.987 28.4512ZM145.341 44.3723C144.088 43.6956 144.088 42.7557 144.15 42.4111C144.213 42.0665 144.457 42.2169 144.608 42.2169C145.675 42.2055 146.683 41.7213 147.358 40.8948C148.773 39.2404 148.658 36.7712 147.095 35.2557C145.128 33.376 143.041 33.6955 141.694 35.3935C141.289 35.793 140.734 36.0043 140.165 35.9763C139.301 35.9449 139.846 36.6028 139.846 36.7657C139.846 36.9286 139.714 37.0101 139.633 36.985C139.345 36.9036 139.457 37.3359 139.457 37.4675C139.458 37.5713 139.379 37.6583 139.276 37.668C138.912 37.668 139.013 37.9938 139.025 38.0815C139.036 38.2023 138.981 38.3194 138.881 38.3885C138.722 38.5353 138.631 38.742 138.63 38.9587C138.63 39.3535 138.987 39.6229 139.595 40.074C140.009 40.3281 140.268 40.7729 140.284 41.2582C140.28 41.6413 140.339 42.0225 140.46 42.386C140.595 42.6283 140.59 42.9247 140.446 43.162C140.302 43.3993 140.042 43.5409 139.764 43.5327C138.736 43.7049 137.736 44.0125 136.788 44.4475C136.17 44.6638 135.505 44.7071 134.865 44.5728C134.545 44.3475 134.242 44.1004 133.956 43.8334C133.883 43.4285 133.991 43.012 134.251 42.6931C134.571 42.9426 134.975 43.0593 135.378 43.0189C136.01 42.9721 136.638 42.8821 137.258 42.7495C137.386 42.6921 137.532 42.6921 137.659 42.7495C137.962 42.9148 138.327 42.9219 138.637 42.7684C138.946 42.615 139.161 42.3203 139.213 41.9788C139.514 40.9637 138.812 41.2457 138.724 41.2896C138.637 41.3334 138.511 41.3209 138.555 41.2394C138.687 40.9763 138.493 41.0013 138.38 40.9951C138.098 40.9951 137.753 41.2708 137.603 41.3773C137.532 41.4555 137.421 41.4849 137.321 41.4525C136.945 41.2645 135.817 41.5402 135.472 40.9261C135.399 39.895 135.248 38.8708 135.021 37.8622C134.963 37.7283 134.98 37.5734 135.065 37.455C135.347 37.0289 136.137 37.4925 136.563 37.455C136.867 37.4794 137.157 37.3222 137.302 37.054C137.434 36.8848 137.534 36.9788 137.603 36.9349C137.672 36.891 137.603 36.7532 137.647 36.6843C137.69 36.6154 137.716 36.6843 137.803 36.5778C137.891 36.4712 137.803 36.3397 137.835 36.2707C137.96 36.0828 138.305 36.2331 138.098 35.7382C138.023 35.4639 138.1 35.1707 138.298 34.9675C138.543 34.6479 139.501 33.3008 137.816 31.9036C136.13 30.5063 134.57 30.6504 133.518 31.8158C132.465 32.9813 132.998 34.6166 133.104 35.0552C133.171 35.483 132.935 35.9006 132.534 36.064C132.019 36.3453 131.536 36.6814 131.093 37.0665C131.163 33.5053 133.36 30.3328 136.669 29.0151C136.814 29.1926 136.971 29.3601 137.139 29.5163C136.769 29.7858 135.961 30.5063 135.961 30.5063L136.174 30.5502L136.394 30.6128C136.394 30.6128 137.108 29.9863 137.44 29.767C137.701 29.9652 137.985 30.1314 138.286 30.262C138.129 30.5376 137.722 31.2958 137.722 31.2958L137.897 31.4086C137.947 31.4395 137.993 31.4752 138.035 31.5151C138.035 31.5151 138.48 30.6818 138.662 30.4061C139.035 30.5264 139.423 30.598 139.815 30.6191V32.1479C139.602 32.1479 139.038 32.1166 138.812 32.0915L138.586 32.1229L138.668 32.2419C138.724 32.3241 138.774 32.41 138.818 32.4988V32.5301H138.856L139.721 32.5677V35.3497H140.109V34.7231C140.673 34.7231 141.143 34.6605 141.713 34.6103L142.214 34.1655H141.945C141.318 34.2407 140.811 34.2783 140.335 34.3096H140.084V32.5427C140.786 32.5281 141.484 32.4314 142.164 32.2544C142.352 32.7118 142.703 33.8271 142.703 33.8271L143.066 33.7081C143.066 33.7081 142.716 32.6053 142.534 32.1479C143.111 31.9655 143.669 31.7284 144.201 31.4399C144.627 31.9664 144.995 32.5379 145.297 33.1442C145.021 33.2695 144.526 33.4449 144.526 33.4449C144.764 33.4704 144.999 33.5165 145.228 33.5828L145.46 33.4825C145.491 33.564 145.566 33.7269 145.566 33.7269L146.061 33.9462L146.005 33.8083C146.005 33.8083 145.842 33.4136 145.798 33.3196C146.334 33.0598 146.852 32.7625 147.346 32.4299C149.897 36.3365 148.994 41.5507 145.278 44.3723" fill="black"/>
<path d="M129.815 30.4812L129.671 30.6065C129.126 31.089 127.879 32.3609 128.073 33.7393V33.8333L128.136 34.109L128.311 33.9524C129.163 33.0665 129.71 31.9315 129.871 30.713L129.94 30.3308L129.815 30.4812Z" fill="black"/>
<path d="M127.308 32.8872L127.246 33.0564C127.086 33.5005 126.974 33.9606 126.913 34.4286C126.71 35.5485 126.968 36.703 127.628 37.6304L127.716 37.7431L127.809 37.8622L127.929 37.2669C128.045 35.8492 127.901 34.4221 127.502 33.0564L127.371 32.7494L127.308 32.8872Z" fill="black"/>
<path d="M126.394 36.6592V36.8284C126.325 37.7682 126.394 40.0803 128.273 41.3083L128.493 41.4524V41.1893C128.195 39.6003 127.572 38.09 126.663 36.7532L126.45 36.4838L126.394 36.6592Z" fill="black"/>
<path d="M126.713 40.8008V40.9575C126.989 42.2858 128.248 44.4412 130.197 45.0615L130.46 45.1492L130.366 44.8861C129.534 43.2891 128.357 41.8978 126.92 40.8134L126.65 40.6379L126.713 40.8008Z" fill="black"/>
<path d="M130.629 32.48L130.472 32.574C129.019 33.4574 128.342 34.5289 128.392 35.8572V36.1579L128.599 35.9825C129.522 35.0723 130.23 33.9678 130.673 32.7494L130.779 32.4048L130.629 32.48Z" fill="black"/>
<path d="M129.771 35.3809L129.664 35.4812C129.288 35.8383 128.092 37.1103 128.192 38.6955C128.216 38.9605 128.273 39.2214 128.361 39.4724L128.443 39.723L128.599 39.5037C129.33 38.3122 129.774 36.9674 129.896 35.5752V35.2744L129.771 35.3809Z" fill="black"/>
<path d="M129.815 38.119L129.733 38.2444C129.179 39.0187 128.874 39.9429 128.856 40.8947C128.885 41.5405 129.103 42.1636 129.483 42.6867L129.608 42.8747L129.714 42.6742C130.059 41.594 130.207 40.4608 130.153 39.3283C130.153 38.9692 130.109 38.6115 130.021 38.2632L129.94 37.9812L129.815 38.119Z" fill="black"/>
<path d="M130.536 41.0515L130.498 41.183C130.323 41.7316 130.238 42.3052 130.247 42.881C130.25 44.047 130.864 45.1262 131.864 45.7257L132.039 45.8384L132.077 45.6003V45.4124C131.916 43.9118 131.456 42.4587 130.723 41.1392L130.567 40.9261L130.536 41.0515Z" fill="black"/>
<path d="M128.493 44.9425L128.568 45.0678C129.351 46.3773 130.673 48.069 133.154 47.6367L133.361 47.5991L133.242 47.4237C132.778 46.7344 129.771 45.0427 128.706 44.8673L128.417 44.8171L128.493 44.9425Z" fill="black"/>
<path d="M132.158 48.2694L131.77 48.3697L132.145 48.5263C133.718 49.1529 135.692 49.3597 136.838 48.9775C137.228 48.8308 137.576 48.5922 137.854 48.282C139.865 48.4887 141.757 50.1617 142.866 51.5339L142.929 51.6028H143.01C143.158 51.5373 143.292 51.4436 143.405 51.3271L143.48 51.2394L143.411 51.1516C142.577 50.1373 141.551 49.2983 140.391 48.683C138.775 47.8935 135.917 47.2795 132.171 48.2945" fill="black"/>
<path d="M132.246 44.0778V44.2094C132.484 45.6943 133.086 47.643 135.592 47.4237H135.755L135.711 47.267C135.542 46.5966 133.249 44.6354 132.447 44.0841L132.202 43.9587L132.246 44.0778Z" fill="black"/>
<path d="M149.965 30.3496L150.034 30.7318C150.195 31.9519 150.744 33.0877 151.601 33.9712L151.77 34.1278L151.833 33.8521V33.7581C152.027 32.3609 150.78 31.089 150.241 30.6253L150.091 30.5L149.965 30.3496Z" fill="black"/>
<path d="M152.578 32.7494L152.446 33.0815C152.043 34.4461 151.896 35.8738 152.014 37.292L152.133 37.8872L152.227 37.7682L152.315 37.6554C152.974 36.7183 153.221 35.5523 152.998 34.4286C152.94 33.9612 152.833 33.5012 152.678 33.0564L152.609 32.8872L152.578 32.7494Z" fill="black"/>
<path d="M153.549 36.5089L153.33 36.7783C152.422 38.1154 151.802 39.6258 151.506 41.2144V41.4776L151.726 41.3335C153.605 40.0803 153.649 37.7934 153.605 36.8535V36.6843L153.549 36.5089Z" fill="black"/>
<path d="M153.267 40.6379L152.998 40.8134C151.56 41.8978 150.383 43.2891 149.551 44.8861L149.451 45.1492L149.721 45.0615C151.669 44.4349 152.929 42.2858 153.204 40.9575V40.8008L153.267 40.6379Z" fill="black"/>
<path d="M149.238 32.3422L149.339 32.6868C149.746 33.918 150.425 35.0421 151.325 35.9763L151.538 36.158V35.8572C151.619 34.5352 150.961 33.4512 149.527 32.5364L149.376 32.4424L149.238 32.3422Z" fill="black"/>
<path d="M150.065 35.2556V35.5564C150.183 36.9488 150.625 38.2943 151.356 39.4849L151.513 39.7042L151.601 39.4536C151.684 39.2016 151.739 38.941 151.763 38.6767C151.864 37.0915 150.667 35.8195 150.291 35.4624L150.184 35.3621L150.065 35.2556Z" fill="black"/>
<path d="M150.034 38L149.953 38.282C149.865 38.6303 149.821 38.988 149.821 39.3471C149.77 40.4795 149.918 41.6121 150.26 42.693L150.366 42.8935L150.498 42.7055C150.876 42.1752 151.092 41.5459 151.118 40.8947C151.102 39.9338 150.789 39.0013 150.222 38.2256L150.14 38.1003L150.034 38Z" fill="black"/>
<path d="M149.37 40.9324L149.213 41.1391C148.481 42.4586 148.021 43.9117 147.86 45.4123V45.6003L147.897 45.8384L148.073 45.7256C149.077 45.1268 149.691 44.0436 149.689 42.8747C149.701 42.3008 149.617 41.7288 149.439 41.183L149.395 41.0514L149.37 40.9324Z" fill="black"/>
<path d="M151.532 44.8171L151.243 44.8673C150.178 45.0427 147.171 46.747 146.707 47.4237L146.594 47.5991L146.795 47.6367C149.301 48.069 150.598 46.3836 151.381 45.0678L151.456 44.9425L151.532 44.8171Z" fill="black"/>
<path d="M139.577 48.658C138.413 49.2706 137.384 50.11 136.55 51.1267L136.481 51.2144L136.557 51.3021C136.671 51.4162 136.805 51.5095 136.951 51.5778H137.039L137.095 51.5089C138.192 50.1429 140.084 48.4637 142.108 48.257C142.387 48.5658 142.735 48.8041 143.123 48.9525C144.27 49.3347 146.256 49.1467 147.822 48.5013L148.192 48.351L147.804 48.2444C144.044 47.2294 141.206 47.8434 139.589 48.6329" fill="black"/>
<path d="M147.729 43.9462L147.49 44.0715C146.688 44.6229 144.358 46.5778 144.22 47.2544L144.182 47.4111H144.339C146.845 47.6304 147.472 45.6818 147.685 44.1968V44.0652L147.729 43.9462Z" fill="black"/>
<path d="M83.5991 28.6704H86.7696V31.5589H83.5991V28.6704ZM83.8497 34.8358H86.5189V48.9148H83.8497V34.8358Z" fill="black"/>
<path d="M63.743 34.8484H66.4059V48.9274H63.7994V46.8534H63.743C62.7135 48.5076 60.8637 49.4685 58.9184 49.3597C55.9736 49.3597 54.2881 47.1166 54.2881 44.2845V34.886H56.9573V43.2193C56.9573 45.6567 57.5149 47.4487 60.0901 47.4487C61.4474 47.4754 62.6858 46.6779 63.2229 45.4311C63.5766 44.364 63.7564 43.247 63.7555 42.1228L63.743 34.8484Z" fill="black"/>
<path d="M71.7257 36.9223H71.7821C72.642 35.3753 74.2728 34.416 76.0427 34.416C77.0264 34.416 81.3685 34.6729 81.3685 39.1842V48.9273H78.7056V40.0677C78.7056 37.7619 77.7282 36.5088 75.4851 36.5088C74.5226 36.5029 73.596 36.874 72.9036 37.5426C72.5089 37.9373 71.7821 38.5514 71.7821 41.302V48.9273H69.1191V34.8483H71.7257V36.9223Z" fill="black"/>
<path d="M97.6718 39.366C97.534 37.6116 96.7006 36.3835 94.8021 36.3835C92.2959 36.3835 91.2934 38.5828 91.2934 41.8723C91.2934 45.1617 92.2708 47.361 94.8021 47.361C96.5565 47.361 97.6405 46.2206 97.7783 44.2282H100.429C100.203 47.361 97.8661 49.2971 94.7896 49.2971C90.3096 49.2971 88.5239 46.1204 88.5239 41.9976C88.5239 37.8748 90.5853 34.4788 95.0214 34.4788C97.9726 34.4788 100.197 36.3585 100.335 39.3848L97.6718 39.366Z" fill="black"/>
<path d="M104.407 42.3734C104.213 44.8233 105.216 47.386 107.916 47.386C109.978 47.386 111.011 46.584 111.312 44.5414H114.1C113.681 47.7243 111.231 49.3095 107.891 49.3095C103.405 49.3095 101.625 46.1328 101.625 42.01C101.625 37.8872 103.693 34.4912 108.123 34.4912C112.296 34.5789 114.276 37.223 114.276 41.0952V42.4048L104.407 42.3734ZM111.488 40.5376C111.538 38.2005 110.479 36.3834 107.916 36.3834C105.711 36.3834 104.407 38.2632 104.407 40.5376H111.488Z" fill="black"/>
<path d="M117.283 48.8647V36.7218H114.877V34.8735H117.283V31.8722C117.371 28.8083 119.683 28 121.669 28C122.303 28.0372 122.932 28.1294 123.549 28.2757V30.4749C123.098 30.4749 122.659 30.3872 122.208 30.3872C120.711 30.3872 119.846 30.782 119.928 32.3171V34.8735H123.161V36.7218H119.915V48.8647H117.283Z" fill="black"/>
</svg>
