<svg width="207" height="120" viewBox="0 0 207 120" fill="none" xmlns="http://www.w3.org/2000/svg">
<path d="M163.373 71.6091C162.53 71.6091 161.733 71.5049 160.982 71.3135C159.744 73.0169 158.146 74.4876 156.294 75.4983C157.93 76.3892 159.766 76.9174 161.723 76.9174C169.226 76.9174 174.334 69.1115 174.939 62.4779C174.701 63.3558 173.155 71.6091 163.373 71.6091V71.6091Z" fill="black"/>
<path d="M165.24 50.87C161.63 50.87 159.893 52.9649 159.893 52.9649C163.619 53.342 168.196 55.9704 168.196 61.4148C168.196 66.7023 164.731 69.1044 161.899 69.9072C161.619 70.3923 161.313 70.8618 160.982 71.3136C161.733 71.5051 162.53 71.6092 163.373 71.6092C173.155 71.6092 174.701 63.3559 174.939 62.478C174.98 62.0415 175 61.6034 175 61.165C175 53.7225 169.318 50.87 165.24 50.87V50.87Z" fill="black"/>
<path d="M149.217 71.6092C151.293 71.6092 153.108 70.975 154.56 69.9584C154.062 70.1074 153.451 70.2295 152.835 70.2295C150.073 70.2295 144.394 68.1847 144.394 61.4148C144.394 55.9701 148.971 53.342 152.697 52.9649C152.697 52.9649 150.959 50.87 147.35 50.87C143.272 50.87 137.589 53.7225 137.589 61.165C137.589 61.5965 137.608 62.0328 137.65 62.478C137.888 63.3633 139.404 71.6092 149.217 71.6092V71.6092Z" fill="black"/>
<path d="M152.836 70.2293C153.451 70.2293 154.063 70.1072 154.56 69.9583L154.561 69.9581C155.23 69.4908 155.821 68.938 156.326 68.334V68.3335C155.981 67.9008 154.381 65.736 154.381 62.8397C154.381 60.1309 155.833 58.9745 156.312 58.6659C156.312 58.6654 156.311 58.665 156.311 58.6646C155.314 57.922 154.191 57.707 153.553 57.707C152.523 57.707 149.743 58.4123 149.087 61.5873C149.087 61.5862 149.087 61.5849 149.087 61.5842L149.085 61.5937C149.062 61.72 149.041 61.8468 149.022 61.9741C148.956 62.5035 148.918 63.0893 148.918 63.7306C148.918 66.2779 150.002 68.5553 150.849 69.9511C151.584 70.1441 152.272 70.2293 152.836 70.2293V70.2293Z" fill="black"/>
<path d="M156.346 55.1929C151.815 55.1929 149.661 58.5244 149.086 61.5871C149.742 58.4121 152.523 57.7068 153.552 57.7068C154.191 57.7068 155.314 57.9217 156.31 58.6644C156.311 58.6649 156.311 58.6649 156.311 58.6657C157.398 59.4745 158.334 60.8436 158.334 63.0278C158.334 64.8896 157.61 66.7948 156.325 68.3333V68.3337C154.721 70.2591 152.246 71.6089 149.216 71.6089C139.404 71.6089 137.888 63.3629 137.65 62.4776C138.255 69.1112 143.362 76.9171 150.867 76.9171C158.193 76.9171 163.792 69.521 163.792 63.3273C163.792 59.0324 161.355 55.1929 156.346 55.1929V55.1929Z" fill="black"/>
<path d="M156.482 52.664C156.482 52.664 154.918 51.1619 154.809 49.114C154.73 47.6234 155.335 45.343 157.695 44.0782C163.218 41.1227 168.018 45.4223 167.461 48.2079C167.461 48.2079 163.347 46.3378 159.56 48.5759C156.774 50.2213 156.482 52.664 156.482 52.664Z" fill="black"/>
<path d="M71.5946 50.6317H72.9755V67.5405H71.5946V50.6317ZM70.0613 61.5306C70.0613 65.3056 68.0009 67.8139 64.9093 67.8139C61.7726 67.8139 59.6886 65.3303 59.6886 61.5306C59.6886 57.681 61.7492 55.2222 64.9325 55.2222C68.069 55.2222 70.0613 57.681 70.0613 61.5306V61.5306ZM61.1915 61.555C61.1915 64.4611 62.7339 66.6354 64.8869 66.6354C67.0389 66.6354 68.5593 64.4611 68.5593 61.5306C68.5593 58.5747 67.0614 56.3999 64.9092 56.3999C62.6653 56.3999 61.1915 58.5255 61.1915 61.555V61.555ZM99.332 61.5306C99.332 65.3056 97.2718 67.8139 94.1795 67.8139C91.0426 67.8139 88.9588 65.3303 88.9588 61.5306C88.9588 57.681 91.02 55.2222 94.2029 55.2222C97.3398 55.2222 99.332 57.681 99.332 61.5306V61.5306ZM90.4617 61.555C90.4617 64.4611 92.0047 66.6354 94.1573 66.6354C96.3092 66.6354 97.8298 64.4611 97.8298 61.5306C97.8298 58.5747 96.3319 56.3999 94.1795 56.3999C91.935 56.3999 90.4617 58.5255 90.4617 61.555V61.555ZM58.6557 61.5306C58.6557 65.3056 56.5949 67.8139 53.504 67.8139C50.3668 67.8139 48.283 65.3303 48.283 61.5306C48.283 57.681 50.3437 55.2222 53.5264 55.2222C56.6634 55.2222 58.6557 57.681 58.6557 61.5306V61.5306ZM49.7861 61.555C49.7861 64.4611 51.3283 66.6354 53.481 66.6354C55.6334 66.6354 57.1537 64.4611 57.1537 61.5306C57.1537 58.5747 55.6556 56.3999 53.504 56.3999C51.2595 56.3999 49.7861 58.5255 49.7861 61.555V61.555ZM114.551 55.52V56.0916C114.527 56.6135 114.551 57.1594 114.48 57.681C115.257 56.191 116.645 55.3463 118.27 55.3463C120.928 55.3463 121.882 57.3084 122.022 59.8168C122.071 60.3888 122.094 61.3573 122.094 61.9277V67.5408H120.717V61.9277C120.717 61.2326 120.692 60.0574 120.647 59.4866C120.482 57.5728 119.541 56.5306 118.012 56.5306C116.762 56.5306 115.61 57.3497 114.997 58.6415C114.763 59.1139 114.668 59.5853 114.598 60.6041C114.574 60.9765 114.551 61.73 114.551 61.9277V67.5408H113.181V50.6317H114.551V55.52ZM129.569 56.9277C128.641 56.6092 128.203 56.5165 127.279 56.4795C125.904 56.4234 124.921 57.3084 124.921 58.3267C124.921 60.8101 130.558 60.5369 130.558 64.3621C130.558 66.3736 128.883 67.7639 126.431 67.7639C125.398 67.7639 124.528 67.591 123.495 67.1677L123.594 65.8067C124.626 66.3774 125.421 66.5885 126.339 66.5885C127.899 66.5885 129.044 65.5543 129.044 64.3621C129.044 61.4806 123.542 61.9772 123.542 58.3513C123.542 56.4892 125.01 55.2605 127.301 55.2968C128.186 55.3111 128.602 55.3356 129.677 55.7082L129.569 56.9277V56.9277ZM82.2233 55.4755C82.2233 55.4755 83.9004 62.2997 84.25 63.8981L84.67 65.8183C84.67 65.8183 84.9311 64.6768 85.1398 63.8999C85.5722 62.2913 87.4866 55.4758 87.4866 55.4758H88.9674L85.4738 67.5291H83.8471C83.8471 67.5291 82.0097 59.5668 81.7945 58.5876C81.6864 58.096 81.5363 57.3472 81.5363 57.3472C81.5363 57.3472 81.3866 58.096 81.2777 58.5876C81.0625 59.5668 79.2256 67.5291 79.2256 67.5291H77.5981L74.1051 55.4757H75.5858C75.5858 55.4757 77.5007 62.2914 77.9332 63.8998C78.1417 64.6766 78.4024 65.8181 78.4024 65.8181C78.4024 65.8181 78.6522 64.6766 78.8222 63.8979C79.1723 62.2997 80.849 55.4754 80.849 55.4754H82.2233V55.4755ZM40.8508 53.652C40.8508 53.652 43.1049 61.8657 43.4847 63.284C43.6975 64.0768 44.0307 65.474 44.0307 65.474C44.0307 65.474 44.3252 64.0746 44.5226 63.2766C44.8716 61.8696 46.9809 53.652 46.9809 53.652H48.415L44.8403 67.5372H43.273C43.273 67.5372 40.6486 57.4904 40.5226 56.9766C40.397 56.4629 40.2078 55.4722 40.2078 55.4722C40.2078 55.4722 40.0188 56.4626 39.8924 56.9766C39.7673 57.4904 37.1426 67.5372 37.1426 67.5372H35.5749L32 53.652H33.4346C33.4346 53.652 35.5438 61.8696 35.8922 63.2766C36.09 64.0749 36.3844 65.474 36.3844 65.474C36.3844 65.474 36.7182 64.0765 36.9306 63.284C37.3108 61.8653 39.5649 53.652 39.5649 53.652H40.8508V53.652ZM100.819 67.5405V55.4967H101.991V58.2503C101.991 58.2503 102.645 55.6884 106.285 55.5C106.791 55.4735 107.451 55.4892 107.451 55.4892V52.46L108.819 51.9263V55.4923H111.632V56.7134H108.819V64.0345C108.819 65.7619 109.359 66.3631 110.538 66.3631C111.191 66.3631 111.729 66.1209 111.729 66.1209L111.875 67.3112C111.875 67.3112 111.193 67.5343 110.473 67.5343C110.102 67.5343 109.004 67.5869 108.253 66.8273C107.75 66.3194 107.451 65.4962 107.451 63.966C107.451 62.5679 107.453 56.6642 107.451 56.6642C106.975 56.6608 105.95 56.6039 105.119 56.821C104.007 57.1124 102.19 58.2671 102.19 61.1484V67.5407H100.819V67.5405V67.5405Z" fill="black"/>
</svg>
