<svg width="77" height="131" viewBox="0 0 77 131" fill="none" xmlns="http://www.w3.org/2000/svg">
<g clip-path="url(#clip0_264_2101)">
<path d="M22.4807 38.2998H38.392C42.2623 38.2998 47.367 38.2998 50.0029 39.9004C52.8937 41.6205 55.1633 44.7501 55.1633 49.0582C55.1633 53.7247 52.7105 57.2286 48.6491 58.885V59.0124C54.0564 60.1193 57.0029 64.1726 57.0029 69.5797C57.0029 76.03 52.392 82.1777 43.6719 82.1777H22.4807V38.2998ZM28.3101 57.1569H39.9927C46.6263 57.1569 49.334 54.76 49.334 50.1492C49.334 44.0652 45.0336 43.2052 39.9927 43.2052H28.3101V57.1569ZM28.3101 77.2484H42.9392C47.9722 77.2484 51.1736 74.1745 51.1736 69.3886C51.1736 63.6709 46.5626 62.0783 41.6491 62.0783H28.3101V77.2484Z" fill="white"/>
<path d="M71.9356 60.2468C71.9356 78.6739 56.9959 93.6131 38.5601 93.6131C20.1324 93.6131 5.19266 78.6739 5.19266 60.2468C5.19266 41.8197 20.1324 26.8805 38.5601 26.8805C56.9959 26.8885 71.9356 41.8197 71.9356 60.2468ZM38.5601 21.792C17.3371 21.792 0.127808 39.0007 0.127808 60.2229C0.127808 81.4451 17.3371 98.6539 38.5601 98.6539C59.7911 98.6539 77.0004 81.4451 77.0004 60.2229C77.0004 39.0007 59.7911 21.792 38.5601 21.792Z" fill="white"/>
<path d="M76.9192 106.769H0.205811V111.809H76.9192V106.769Z" fill="white"/>
<path d="M74.5222 101.218C74.6178 101.218 74.7054 101.21 74.793 101.21C74.8726 101.202 74.9523 101.186 75.016 101.162C75.0877 101.131 75.1354 101.083 75.1753 101.027C75.2151 100.963 75.231 100.884 75.231 100.78C75.231 100.693 75.2151 100.613 75.1832 100.565C75.1514 100.509 75.1036 100.47 75.0478 100.446C74.9921 100.414 74.9363 100.398 74.8567 100.382C74.785 100.374 74.7213 100.374 74.6417 100.374H74.0922V101.226H74.5222V101.218ZM74.7054 100.032C75.0239 100.032 75.2549 100.095 75.4142 100.223C75.5655 100.35 75.6451 100.541 75.6451 100.804C75.6451 101.051 75.5734 101.218 75.446 101.338C75.3106 101.449 75.1434 101.513 74.9363 101.537L75.7008 102.715H75.2549L74.5222 101.561H74.0842V102.715H73.6622V100.04H74.7054V100.032ZM72.818 102.134C72.9056 102.373 73.041 102.588 73.2162 102.763C73.3834 102.938 73.5825 103.074 73.8135 103.177C74.0365 103.273 74.2913 103.32 74.5541 103.32C74.8249 103.32 75.0717 103.273 75.2947 103.177C75.5257 103.074 75.7247 102.938 75.892 102.763C76.0592 102.588 76.1946 102.381 76.2822 102.134C76.3778 101.895 76.4335 101.64 76.4335 101.361C76.4335 101.083 76.3857 100.828 76.2822 100.589C76.1866 100.35 76.0513 100.143 75.892 99.9679C75.7168 99.7927 75.5177 99.6573 75.2947 99.5618C75.0717 99.4662 74.8169 99.4105 74.5541 99.4105C74.2913 99.4105 74.0365 99.4662 73.8135 99.5618C73.5825 99.6653 73.3755 99.8007 73.2162 99.9679C73.041 100.143 72.9136 100.35 72.818 100.589C72.7225 100.828 72.6747 101.075 72.6747 101.361C72.6747 101.64 72.7225 101.903 72.818 102.134ZM72.4437 100.454C72.5632 100.175 72.7304 99.944 72.9375 99.737C73.1445 99.5299 73.3914 99.3786 73.6701 99.2592C73.9489 99.1397 74.2515 99.084 74.5541 99.084C74.8726 99.084 75.1673 99.1397 75.454 99.2592C75.7247 99.3786 75.9716 99.5299 76.1707 99.737C76.3778 99.944 76.553 100.183 76.6644 100.454C76.7919 100.732 76.8476 101.035 76.8476 101.361C76.8476 101.688 76.7919 101.991 76.6644 102.269C76.545 102.556 76.3778 102.795 76.1707 103.002C75.9637 103.217 75.7247 103.368 75.454 103.488C75.1673 103.599 74.8726 103.655 74.5541 103.655C74.2435 103.655 73.9489 103.599 73.6701 103.488C73.3914 103.368 73.1445 103.217 72.9375 103.002C72.7304 102.795 72.5632 102.556 72.4437 102.269C72.3163 101.991 72.2685 101.688 72.2685 101.361C72.2606 101.043 72.3084 100.732 72.4437 100.454Z" fill="white"/>
<path d="M9.50057 4.89369C9.31741 4.59905 9.09443 4.34422 8.82367 4.12921C8.55291 3.90624 8.24232 3.73901 7.89989 3.6116C7.55746 3.49215 7.19909 3.42844 6.8248 3.42844C6.13993 3.42844 5.55859 3.56382 5.07281 3.82661C4.595 4.0894 4.20478 4.44775 3.91013 4.89369C3.61547 5.33964 3.39249 5.84929 3.25711 6.42265C3.12173 6.98804 3.05006 7.57733 3.05006 8.1905C3.05006 8.77182 3.11377 9.33722 3.25711 9.88669C3.39249 10.4362 3.60751 10.9299 3.91013 11.3758C4.20478 11.8138 4.595 12.1722 5.07281 12.4349C5.55063 12.6977 6.13197 12.8331 6.8248 12.8331C7.75655 12.8331 8.4892 12.5464 9.00683 11.981C9.53243 11.4077 9.85097 10.6591 9.97043 9.72742H12.9249C12.8453 10.5954 12.6462 11.3758 12.3197 12.0766C11.9932 12.7774 11.5711 13.3746 11.0375 13.8604C10.504 14.3541 9.88283 14.7284 9.17407 14.9912C8.46531 15.246 7.67691 15.3814 6.8248 15.3814C5.76565 15.3814 4.81001 15.1982 3.95791 14.8239C3.1058 14.4576 2.39704 13.948 1.80774 13.295C1.22639 12.65 0.780433 11.8855 0.469852 11.0095C0.159272 10.1415 0 9.20184 0 8.1905C0 7.15527 0.159272 6.19171 0.469852 5.29982C0.780433 4.41589 1.22639 3.63549 1.80774 2.9825C2.38908 2.32154 3.1058 1.80393 3.95791 1.42965C4.80205 1.05538 5.75768 0.864258 6.8248 0.864258C7.58931 0.864258 8.314 0.975744 8.9909 1.19075C9.66781 1.41373 10.281 1.73226 10.8146 2.15431C11.3481 2.57637 11.7941 3.09398 12.1445 3.71512C12.4949 4.33626 12.7179 5.05296 12.8055 5.84929H9.85097C9.80319 5.50687 9.68374 5.18833 9.50057 4.89369Z" fill="white"/>
<path d="M16.8984 12.6581C17.3125 13.0563 17.9098 13.2633 18.6823 13.2633C19.2397 13.2633 19.7175 13.1279 20.1237 12.8492C20.5218 12.5705 20.7687 12.2759 20.8643 11.9653H23.2932C22.903 13.1677 22.3057 14.0357 21.5014 14.5534C20.697 15.071 19.7255 15.3338 18.5867 15.3338C17.7983 15.3338 17.0816 15.2063 16.4524 14.9515C15.8154 14.6967 15.2818 14.3383 14.8358 13.8765C14.3978 13.4146 14.0554 12.8572 13.8165 12.2042C13.5776 11.5592 13.4581 10.8425 13.4581 10.07C13.4581 9.32146 13.5776 8.62069 13.8245 7.97566C14.0713 7.33064 14.4217 6.76524 14.8757 6.29541C15.3296 5.82557 15.8711 5.4513 16.5002 5.18054C17.1293 4.90979 17.8222 4.77441 18.5867 4.77441C19.4388 4.77441 20.1874 4.94164 20.8245 5.26814C21.4615 5.6026 21.9792 6.04058 22.3853 6.59801C22.7915 7.15544 23.0861 7.79251 23.2693 8.50124C23.4524 9.20998 23.5162 9.95853 23.4604 10.7389H16.2135C16.2613 11.6069 16.4843 12.2599 16.8984 12.6581ZM20.0201 7.37045C19.6857 7.0121 19.184 6.82895 18.515 6.82895C18.077 6.82895 17.7107 6.90062 17.416 7.05192C17.1214 7.20322 16.8904 7.38638 16.7152 7.60139C16.54 7.82436 16.4206 8.0553 16.3489 8.30216C16.2772 8.54902 16.2374 8.76403 16.2215 8.96311H20.705C20.5776 8.26234 20.3466 7.73677 20.0201 7.37045Z" fill="white"/>
<path d="M27.3311 5.02075V6.88417H27.3709C27.4983 6.5736 27.6735 6.28692 27.8965 6.01617C28.1195 5.75338 28.3663 5.52244 28.653 5.33929C28.9397 5.15613 29.2423 5.00483 29.5688 4.9013C29.8953 4.79778 30.2298 4.75 30.5802 4.75C30.7634 4.75 30.9625 4.78185 31.1854 4.84556V7.40975C31.058 7.38586 30.8987 7.36197 30.7156 7.34604C30.5324 7.33011 30.3572 7.31419 30.19 7.31419C29.6883 7.31419 29.2582 7.40178 28.9078 7.56901C28.5574 7.73624 28.2787 7.96718 28.0637 8.26182C27.8487 8.55646 27.6974 8.89092 27.6098 9.28113C27.5222 9.67133 27.4744 10.0934 27.4744 10.5473V15.0784H24.719V5.02075H27.3311Z" fill="white"/>
<path d="M38.5664 5.02087V6.86836H36.5437V11.8454C36.5437 12.3153 36.6233 12.6258 36.7746 12.7771C36.9259 12.9284 37.2445 13.0081 37.7063 13.0081C37.8656 13.0081 38.009 13.0001 38.1523 12.9921C38.2957 12.9762 38.431 12.9603 38.5584 12.9364V15.0706C38.3275 15.1104 38.0647 15.1343 37.778 15.1502C37.4913 15.1661 37.2126 15.1741 36.9418 15.1741C36.5118 15.1741 36.1057 15.1422 35.7314 15.0865C35.3491 15.0308 35.0146 14.9193 34.72 14.7441C34.4253 14.5768 34.2024 14.3379 34.0272 14.0274C33.8599 13.7168 33.7723 13.3107 33.7723 12.801V6.86836H32.1V5.02087H33.7723V2.01074H36.5277V5.02087H38.5664Z" fill="white"/>
<path d="M40.1681 3.46794V1.19043H42.9235V3.46794H40.1681ZM42.9315 5.02078V15.0625H40.1761V5.02078H42.9315Z" fill="white"/>
<path d="M44.0215 6.86827V5.02078H45.67V4.24038C45.67 3.34849 45.9487 2.61586 46.5061 2.0425C47.0636 1.46915 47.9077 1.19043 49.0306 1.19043C49.2775 1.19043 49.5243 1.19839 49.7712 1.22228C50.0181 1.23821 50.257 1.2621 50.4879 1.27006V3.33256C50.1694 3.29274 49.8349 3.27682 49.4845 3.27682C49.1102 3.27682 48.8395 3.36441 48.6802 3.53961C48.5209 3.7148 48.4413 4.00944 48.4413 4.42353V5.02875H50.3446V6.87623H48.4413V15.0784H45.6779V6.86827H44.0215Z" fill="white"/>
<path d="M52.209 3.46794V1.19043H54.9644V3.46794H52.209ZM54.9644 5.02078V15.0625H52.209V5.02078H54.9644Z" fill="white"/>
<path d="M59.3209 12.6581C59.735 13.0563 60.3322 13.2633 61.1047 13.2633C61.6622 13.2633 62.14 13.1279 62.5461 12.8492C62.9443 12.5705 63.1912 12.2759 63.2867 11.9653H65.7156C65.3254 13.1677 64.7281 14.0357 63.9318 14.5534C63.1275 15.071 62.1559 15.3338 61.0171 15.3338C60.2287 15.3338 59.512 15.2063 58.8829 14.9515C58.2458 14.6967 57.7122 14.3383 57.2663 13.8765C56.8283 13.4146 56.4858 12.8572 56.2469 12.2042C56.008 11.5592 55.8885 10.8425 55.8885 10.07C55.8885 9.32146 56.016 8.62069 56.2549 7.97566C56.5017 7.33064 56.8521 6.76524 57.3061 6.29541C57.76 5.82557 58.3015 5.4513 58.9306 5.18054C59.5598 4.90979 60.2526 4.77441 61.0171 4.77441C61.8692 4.77441 62.6178 4.94164 63.2549 5.26814C63.892 5.6026 64.4096 6.04058 64.8157 6.59801C65.2219 7.15544 65.5165 7.79251 65.6997 8.50124C65.8829 9.20998 65.9466 9.95853 65.8988 10.7389H58.6519C58.6758 11.6069 58.9068 12.2599 59.3209 12.6581ZM62.4346 7.37045C62.1081 7.0121 61.5985 6.82895 60.9295 6.82895C60.4915 6.82895 60.1252 6.90062 59.8305 7.05192C59.5359 7.20322 59.3049 7.38638 59.1297 7.60139C58.9545 7.82436 58.8351 8.0553 58.7634 8.30216C58.6917 8.54902 58.6519 8.76403 58.636 8.96311H63.1195C63 8.26234 62.7691 7.73677 62.4346 7.37045Z" fill="white"/>
<path d="M74.26 13.7804C73.9335 14.3219 73.5114 14.7201 72.9858 14.959C72.4602 15.1979 71.8709 15.3173 71.2099 15.3173C70.4613 15.3173 69.8004 15.174 69.227 14.8794C68.6536 14.5847 68.1837 14.1945 67.8174 13.6928C67.4511 13.1911 67.1724 12.6178 66.9812 11.9728C66.7901 11.3277 66.7025 10.6508 66.7025 9.95007C66.7025 9.27319 66.7981 8.62816 66.9812 7.99906C67.1644 7.36996 67.4511 6.82049 67.8174 6.33473C68.1837 5.85693 68.6536 5.46673 69.2031 5.18005C69.7605 4.88541 70.4056 4.74207 71.1462 4.74207C71.7435 4.74207 72.3089 4.86948 72.8424 5.12431C73.384 5.37913 73.806 5.74545 74.1166 6.23917H74.1564V1.19043H76.9118V15.0625H74.2998V13.7804H74.26ZM74.1405 8.81928C74.0609 8.43705 73.9335 8.10259 73.7423 7.80794C73.5512 7.5133 73.3123 7.28236 73.0097 7.09921C72.715 6.91605 72.3328 6.82846 71.8868 6.82846C71.4409 6.82846 71.0506 6.91605 70.7401 7.09921C70.4295 7.28236 70.1826 7.52126 69.9915 7.81591C69.8083 8.11055 69.6729 8.45297 69.5853 8.83521C69.4977 9.21745 69.4579 9.61562 69.4579 10.0297C69.4579 10.4199 69.5057 10.8101 69.5933 11.1924C69.6809 11.5826 69.8322 11.925 70.0313 12.2355C70.2304 12.5382 70.4852 12.785 70.7878 12.9761C71.0905 13.1673 71.4568 13.2549 71.8868 13.2549C72.3407 13.2549 72.715 13.1673 73.0256 12.9841C73.3282 12.8009 73.5751 12.562 73.7583 12.2515C73.9414 11.9489 74.0688 11.5985 74.1485 11.2162C74.2281 10.826 74.2679 10.4279 74.2679 10.0138C74.2679 9.59969 74.2201 9.20152 74.1405 8.81928Z" fill="white"/>
<path d="M6.93629 121.715C6.80091 120.744 5.86917 120.003 4.80205 120.003C2.87486 120.003 2.15017 121.643 2.15017 123.356C2.15017 124.98 2.87486 126.621 4.80205 126.621C6.11604 126.621 6.85666 125.721 7.01593 124.431H9.10239C8.87941 126.867 7.19909 128.428 4.80205 128.428C1.77588 128.428 0 126.167 0 123.356C0 120.457 1.77588 118.195 4.80205 118.195C6.95222 118.195 8.752 119.454 9.01479 121.715H6.93629Z" fill="white"/>
<path d="M13.5862 120.935C15.816 120.935 17.2495 122.408 17.2495 124.669C17.2495 126.915 15.816 128.388 13.5862 128.388C11.3723 128.388 9.93091 126.907 9.93091 124.669C9.93091 122.408 11.3644 120.935 13.5862 120.935ZM13.5862 126.923C14.9161 126.923 15.3063 125.784 15.3063 124.669C15.3063 123.531 14.9082 122.4 13.5862 122.4C12.2722 122.4 11.874 123.539 11.874 124.669C11.874 125.792 12.2722 126.923 13.5862 126.923Z" fill="white"/>
<path d="M18.4514 121.11H20.299V122.424H20.3308C20.6812 121.532 21.6448 120.919 22.5925 120.919C22.7279 120.919 22.8951 120.943 23.0146 120.983V122.79C22.8314 122.751 22.5447 122.727 22.3138 122.727C20.8883 122.727 20.3945 123.754 20.3945 124.996V128.182H18.4514V121.11Z" fill="white"/>
<path d="M23.7636 121.126H25.6111V122.026H25.635C26.0969 121.277 26.8614 120.935 27.7374 120.935C29.9593 120.935 30.9547 122.726 30.9547 124.733C30.9547 126.62 29.9194 128.388 27.8489 128.388C27.0048 128.388 26.1925 128.022 25.7306 127.321H25.6987V130.69H23.7556V121.126H23.7636ZM29.0196 124.685C29.0196 123.562 28.5656 122.4 27.3233 122.4C26.0491 122.4 25.643 123.539 25.643 124.685C25.643 125.832 26.081 126.931 27.3392 126.931C28.6054 126.923 29.0196 125.832 29.0196 124.685Z" fill="white"/>
<path d="M35.2229 120.935C37.4527 120.935 38.8941 122.408 38.8941 124.669C38.8941 126.915 37.4527 128.388 35.2229 128.388C33.009 128.388 31.5756 126.907 31.5756 124.669C31.5756 122.408 33.009 120.935 35.2229 120.935ZM35.2229 126.923C36.5528 126.923 36.951 125.784 36.951 124.669C36.951 123.531 36.5528 122.4 35.2229 122.4C33.9089 122.4 33.5107 123.539 33.5107 124.669C33.5107 125.792 33.9089 126.923 35.2229 126.923Z" fill="white"/>
<path d="M40.0878 121.11H41.9354V122.424H41.9672C42.3176 121.532 43.2812 120.919 44.2209 120.919C44.3563 120.919 44.5235 120.943 44.643 120.983V122.79C44.4678 122.751 44.1811 122.727 43.9422 122.727C42.5167 122.727 42.023 123.754 42.023 124.996V128.182H40.0798V121.11H40.0878Z" fill="white"/>
<path d="M45.2171 123.3C45.3286 121.476 46.9532 120.935 48.5459 120.935C49.9554 120.935 51.6517 121.245 51.6517 122.941V126.62C51.6517 127.265 51.7154 127.902 51.8986 128.197H49.9236C49.8599 127.974 49.7962 127.743 49.7882 127.512C49.175 128.157 48.2751 128.388 47.4071 128.388C46.0692 128.388 45.0021 127.719 45.0021 126.27C45.0021 124.669 46.2046 124.287 47.4071 124.12C48.6016 123.945 49.7086 123.985 49.7086 123.188C49.7086 122.352 49.1272 122.233 48.4503 122.233C47.7097 122.233 47.2319 122.535 47.1602 123.3H45.2171ZM49.7086 124.733C49.3741 125.02 48.6972 125.036 48.092 125.147C47.4867 125.267 46.9452 125.474 46.9452 126.19C46.9452 126.915 47.5026 127.09 48.1397 127.09C49.6528 127.09 49.7165 125.888 49.7165 125.466V124.733H49.7086Z" fill="white"/>
<path d="M55.5768 121.126H57.0023V122.424H55.5768V125.928C55.5768 126.589 55.744 126.748 56.3971 126.748C56.6041 126.748 56.7952 126.732 57.0023 126.692V128.213C56.6758 128.269 56.2458 128.285 55.8635 128.285C54.6769 128.285 53.6337 128.006 53.6337 126.605V122.432H52.4551V121.134H53.6337V119.016H55.5768V121.126Z" fill="white"/>
<path d="M60.4038 120.035H58.4607V118.435H60.4038V120.035ZM58.4607 121.126H60.4038V128.198H58.4607V121.126Z" fill="white"/>
<path d="M65.3655 120.935C67.5953 120.935 69.0367 122.408 69.0367 124.669C69.0367 126.915 67.5953 128.388 65.3655 128.388C63.1516 128.388 61.7182 126.907 61.7182 124.669C61.7102 122.408 63.1516 120.935 65.3655 120.935ZM65.3655 126.923C66.6954 126.923 67.0936 125.784 67.0936 124.669C67.0936 123.531 66.6954 122.4 65.3655 122.4C64.0515 122.4 63.6533 123.539 63.6533 124.669C63.6533 125.792 64.0515 126.923 65.3655 126.923Z" fill="white"/>
<path d="M70.2865 121.126H72.1341V122.113H72.1739C72.6676 121.317 73.5118 120.935 74.34 120.935C76.4025 120.935 76.9281 122.097 76.9281 123.849V128.197H74.985V124.2C74.985 123.037 74.6426 122.464 73.7427 122.464C72.6835 122.464 72.2376 123.053 72.2376 124.494V128.205H70.2945V121.126H70.2865Z" fill="white"/>
</g>
<defs>
<clipPath id="clip0_264_2101">
<rect width="77.0001" height="129.826" fill="white" transform="translate(0 0.864258)"/>
</clipPath>
</defs>
</svg>
