<svg width="235" height="45" viewBox="0 0 235 45" fill="none" xmlns="http://www.w3.org/2000/svg">
<path d="M61.305 5.22559V36.6366H79.6543V31.5585H66.4355V5.22559H61.305Z" fill="white"/>
<path d="M96.6208 34.5948C95.0765 36.2701 92.7206 36.9768 90.4172 36.9768C84.9202 36.9768 81.4389 33.1813 81.4389 27.475V14.5179H86.3076V27.3965C86.3076 29.7785 88.1137 32.3437 91.3595 32.3437C93.8462 32.3437 95.7047 31.1134 96.6208 28.5744V14.5179H101.49V36.6365H96.6208V34.5948Z" fill="white"/>
<path d="M133.493 23.7581C133.493 21.3761 132.132 18.8108 128.939 18.8108C126.766 18.8108 125.039 20.0934 124.122 22.6587C124.175 23.0251 124.175 23.3131 124.175 23.6795V36.6366H119.306V23.7581C119.306 21.3761 117.893 18.8108 114.699 18.8108C112.579 18.8108 110.799 20.0411 109.909 22.5801V36.6366H105.04V14.518H109.909V16.5859C111.401 14.9106 113.574 14.1515 115.615 14.1515C118.704 14.1515 121.06 15.4341 122.526 17.5544C124.594 14.8059 127.656 14.1515 129.829 14.1515C135.273 14.1515 138.362 17.947 138.362 23.6534V36.6366H133.493V23.7581Z" fill="white"/>
<path d="M146.616 14.5179H141.747V36.6365H146.616V14.5179Z" fill="white"/>
<path d="M150.171 14.518H155.04V16.5859C156.584 14.9106 158.94 14.1515 161.243 14.1515C166.74 14.1515 170.222 17.947 170.222 23.6534V36.6366H165.353V23.7581C165.353 21.3761 163.573 18.8108 160.301 18.8108C157.814 18.8108 155.93 20.0934 155.04 22.711V36.6366H150.171V14.518Z" fill="white"/>
<path d="M189.928 29.3335V21.821C188.724 20.0149 186.473 18.8108 184.038 18.8108C180.269 18.8108 177.625 21.7425 177.625 25.5904C177.625 29.4382 180.269 32.3699 184.038 32.3699C186.473 32.3437 188.75 31.1397 189.928 29.3335ZM189.928 35.0399C188.383 36.2701 186.342 36.9769 184.012 36.9769C177.468 36.9769 172.652 32.0296 172.652 25.5642C172.652 19.0988 177.468 14.1515 184.012 14.1515C186.368 14.1515 188.383 14.9106 189.928 16.1409V14.4918H194.797V36.6366H189.928V35.0399Z" fill="white"/>
<path d="M198.232 14.5182H203.101V16.6908C204.515 15.0156 206.425 14.2041 208.807 14.2041C209.383 14.2041 209.907 14.2565 210.404 14.335V19.4131C209.75 19.2037 208.912 19.099 207.97 19.099C205.902 19.099 204.07 19.8843 203.101 21.7428V36.6368H198.232V14.5182Z" fill="white"/>
<path d="M229.485 14.5179L223.413 29.7785L217.392 14.5179H212.183L220.9 35.4848L216.921 44.7772H222.051L234.694 14.5179H229.485Z" fill="white"/>
<path fill-rule="evenodd" clip-rule="evenodd" d="M146.54 9.79369C146.812 9.33302 146.948 8.8214 146.948 8.31054C146.948 6.70754 145.624 5.38543 144.019 5.38543C142.414 5.38543 141.09 6.70754 141.09 8.31054C141.09 8.87009 141.242 9.36373 141.499 9.79369H146.54Z" fill="white"/>
<path d="M6.84928 25.9917C4.22355 25.9917 1.83183 26.9708 0 28.5746V43.2832H14.6529C16.272 41.448 17.2625 39.0451 17.2625 36.4051C17.2625 30.6532 12.6001 25.9917 6.84928 25.9917ZM6.84783 0.777622C4.13701 0.777622 1.85419 1.77636 0 3.34586V19.0386C1.99691 20.7507 4.42237 21.6064 6.84783 21.6064C12.5541 21.6064 17.2625 16.8987 17.2625 11.1923C17.2625 5.4857 12.5541 0.777622 6.84783 0.777622ZM21.6919 36.4355C21.6919 30.7289 26.4 26.0208 32.1064 26.0208C37.8126 26.0208 42.5205 30.7289 42.5205 36.4355C42.5205 38.8609 41.665 41.2864 39.9529 43.2832H24.2598C22.6907 41.4289 21.6919 39.1464 21.6919 36.4355Z" fill="#FF5438"/>
</svg>
