<svg xmlns="http://www.w3.org/2000/svg" xmlns:xlink="http://www.w3.org/1999/xlink" viewBox="0 0 130 130"><defs><circle id="a" cx="65" cy="65" r="65"/></defs><g fill="none" fill-rule="evenodd"><mask id="b" fill="#fff"><use xlink:href="#a"/></mask><use xlink:href="#a" fill="#F5F5F5"/><g mask="url(#b)"><g transform="translate(23.4 20.8)"><rect width="68.073" height="64.426" x="1.823" y="10.94" fill="#AAA" rx="4.03"/><rect width="68.073" height="64.426" y="8.509" fill="#FFF" rx="4.03"/><path fill="#D8D8D8" d="M6.078 57.132h6.078v6.078H6.078zm8.509 0h6.078v6.078h-6.078zm8.509 0h6.078v6.078h-6.078zm8.509 0h6.078v6.078h-6.078z"/><path fill="#F5F5F5" d="M40.114 57.132h6.078v6.078h-6.078z"/><path fill="#D8D8D8" d="M6.078 31.605h6.078v6.078H6.078zm8.509 0h6.078v6.078h-6.078zm8.509 0h6.078v6.078h-6.078zm8.509 0h6.078v6.078h-6.078zm8.509 0h6.078v6.078h-6.078zm8.509 0H54.7v6.078h-6.078zm8.51 0h6.078v6.078h-6.078z"/><path fill="#F5F5F5" d="M6.078 23.096h6.078v6.078H6.078zm8.509 0h6.078v6.078h-6.078zm8.509 0h6.078v6.078h-6.078z"/><path fill="#D8D8D8" d="M31.605 23.096h6.078v6.078h-6.078zm8.509 0h6.078v6.078h-6.078zm8.509 0H54.7v6.078h-6.078zm8.51 0h6.078v6.078h-6.078zM6.078 40.114h6.078v6.078H6.078zm8.509 0h6.078v6.078h-6.078zm8.509 0h6.078v6.078h-6.078z"/><path fill="#FAAB43" d="M31.605 40.114h6.078v6.078h-6.078z"/><path fill="#D8D8D8" d="M40.114 40.114h6.078v6.078h-6.078zm8.509 0H54.7v6.078h-6.078zm8.51 0h6.078v6.078h-6.078zM6.078 48.623h6.078v6.078H6.078z"/><path fill="#FAAB43" d="M14.587 48.623h6.078v6.078h-6.078z"/><path fill="#D8D8D8" d="M23.096 48.623h6.078v6.078h-6.078zm8.509 0h6.078v6.078h-6.078z"/><path fill="#7786B7" d="M4.03 8.51h60.013a4.03 4.03 0 0 1 4.03 4.03v4.478H0V12.54a4.03 4.03 0 0 1 4.03-4.03z"/><rect width="4.862" height="13.371" x="13.371" fill="#AAA" stroke="#EBECEC" stroke-width="1.008" rx="2.431"/><rect width="4.862" height="13.371" x="49.839" fill="#AAA" stroke="#EBECEC" stroke-width="1.008" rx="2.431"/></g><g transform="translate(68.377 73.07)"><circle cx="18.842" cy="18.842" r="18.842" fill="#00BF8F"/><path stroke="#FFF" stroke-linecap="round" stroke-width="3.022" d="M18.842 7.294v11.548m5.911 5.612-5.911-5.613"/></g></g></g></svg>